<svg width="14" height="19" viewBox="0 0 14 19" fill="none" xmlns="http://www.w3.org/2000/svg">
<path d="M5.18275 15.3077C4.68408 15.3077 4.25808 15.1311 3.90475 14.7778C3.55158 14.4246 3.375 13.9987 3.375 13.5V11.9038C2.46983 11.2987 1.76442 10.5199 1.25875 9.56725C0.752917 8.61475 0.5 7.5955 0.5 6.5095C0.5 4.70067 1.13108 3.1635 2.39325 1.898C3.65542 0.632666 5.191 0 7 0C8.809 0 10.3446 0.631083 11.6068 1.89325C12.8689 3.15542 13.5 4.691 13.5 6.5C13.5 7.59233 13.2471 8.61217 12.7413 9.5595C12.2356 10.507 11.5302 11.2884 10.625 11.9038V13.5C10.625 13.9987 10.4484 14.4246 10.0953 14.7778C9.74192 15.1311 9.31592 15.3077 8.81725 15.3077H5.18275ZM5.18275 13.8077H8.81725C8.90708 13.8077 8.98083 13.7789 9.0385 13.7212C9.09617 13.6636 9.125 13.5898 9.125 13.5V11.1135L9.85 10.6C10.527 10.127 11.0546 9.52958 11.4327 8.80775C11.8109 8.08592 12 7.31667 12 6.5C12 5.11667 11.5125 3.9375 10.5375 2.9625C9.5625 1.9875 8.38333 1.5 7 1.5C5.61667 1.5 4.4375 1.9875 3.4625 2.9625C2.4875 3.9375 2 5.11667 2 6.5C2 7.31667 2.18908 8.08592 2.56725 8.80775C2.94542 9.52958 3.473 10.127 4.15 10.6L4.875 11.1135V13.5C4.875 13.5898 4.90383 13.6636 4.9615 13.7212C5.01917 13.7789 5.09292 13.8077 5.18275 13.8077ZM5.0865 19C4.87367 19 4.6955 18.9282 4.552 18.7845C4.40833 18.641 4.3365 18.4628 4.3365 18.25V17.5H9.6635V18.25C9.6635 18.4628 9.59167 18.641 9.448 18.7845C9.3045 18.9282 9.12633 19 8.9135 19H5.0865Z" fill="#F38933"/>
</svg>
