<svg width="26" height="26" viewBox="0 0 26 26" fill="none" xmlns="http://www.w3.org/2000/svg">
<path d="M13.0016 25.6666C12.0111 25.6666 11.1693 25.3201 10.4759 24.627C9.78259 23.9341 9.43592 23.0926 9.43592 22.1026C9.43592 21.9658 9.4457 21.8243 9.46525 21.6783C9.48503 21.5321 9.51459 21.3905 9.55392 21.2536L6.38959 19.4693C6.06825 19.7889 5.69492 20.0362 5.26959 20.2113C4.84403 20.3866 4.38659 20.4743 3.89725 20.4743C2.90725 20.4743 2.06581 20.1268 1.37292 19.4316C0.679808 18.7365 0.333252 17.8925 0.333252 16.8996C0.333252 15.9068 0.679808 15.062 1.37292 14.3653C2.06581 13.6689 2.90725 13.3206 3.89725 13.3206C4.41192 13.3206 4.89447 13.4228 5.34492 13.627C5.79536 13.8312 6.18803 14.1154 6.52292 14.4796L10.8229 12.313C10.722 11.7932 10.737 11.2803 10.8679 10.7743C10.9986 10.2683 11.2366 9.81276 11.5819 9.40765L10.1796 7.30265C10.0154 7.3642 9.84159 7.41031 9.65825 7.44098C9.47492 7.47165 9.28536 7.48698 9.08959 7.48698C8.09959 7.48698 7.25814 7.13954 6.56525 6.44465C5.87214 5.74954 5.52559 4.90554 5.52559 3.91265C5.52559 2.91954 5.87225 2.07476 6.56559 1.37831C7.25892 0.681646 8.10081 0.333313 9.09125 0.333313C10.0817 0.333313 10.9274 0.68109 11.6283 1.37665C12.3289 2.0722 12.6793 2.91676 12.6793 3.91031C12.6793 4.34609 12.6028 4.76098 12.4499 5.15498C12.2968 5.5492 12.0896 5.90009 11.8283 6.20765L13.2513 8.31298C13.429 8.25142 13.6025 8.2052 13.7716 8.17431C13.9407 8.14365 14.1219 8.12831 14.3153 8.12831C14.6899 8.12831 15.0426 8.17909 15.3733 8.28065C15.7039 8.38242 16.0119 8.53076 16.2973 8.72565L18.8306 6.65631C18.7333 6.43409 18.6559 6.20631 18.5986 5.97298C18.5415 5.73965 18.5129 5.49654 18.5129 5.24365C18.5129 4.25009 18.8595 3.40553 19.5526 2.70998C20.2459 2.01442 21.0878 1.66665 22.0783 1.66665C23.0687 1.66665 23.9144 2.0142 24.6153 2.70931C25.3161 3.40443 25.6666 4.24842 25.6666 5.24131C25.6666 6.2342 25.3161 7.07898 24.6153 7.77565C23.9144 8.47209 23.0683 8.82031 22.0769 8.82031C21.6991 8.82031 21.3478 8.76398 21.0229 8.65131C20.6983 8.53842 20.3931 8.38454 20.1076 8.18965L17.5869 10.2793C17.6929 10.5058 17.7725 10.7378 17.8256 10.9753C17.8785 11.2129 17.9049 11.4561 17.9049 11.705C17.9049 12.6988 17.5545 13.5433 16.8536 14.2386C16.1529 14.9342 15.3068 15.282 14.3153 15.282C13.799 15.282 13.317 15.1778 12.8693 14.9693C12.4213 14.7606 12.0298 14.4743 11.6949 14.1103L7.41525 16.2563C7.48525 16.499 7.51192 16.7432 7.49525 16.989C7.47836 17.2345 7.43636 17.4801 7.36925 17.7256L10.5409 19.5306C10.8623 19.2111 11.2303 18.9636 11.6449 18.7883C12.0594 18.6132 12.511 18.5256 12.9999 18.5256C13.9913 18.5256 14.8374 18.8723 15.5383 19.5656C16.2391 20.259 16.5896 21.1009 16.5896 22.0913C16.5896 23.0818 16.2391 23.9252 15.5383 24.6216C14.8374 25.3183 13.9918 25.6666 13.0016 25.6666ZM3.90392 18.4743C4.3457 18.4743 4.72003 18.3233 5.02692 18.0213C5.33381 17.7191 5.48725 17.3446 5.48725 16.898C5.48725 16.4515 5.33481 16.0749 5.02992 15.768C4.72525 15.4611 4.3477 15.3076 3.89725 15.3076C3.4597 15.3076 3.0897 15.46 2.78725 15.7646C2.48459 16.0693 2.33325 16.4469 2.33325 16.8973C2.33325 17.3351 2.48459 17.7073 2.78725 18.014C3.0897 18.3209 3.46192 18.4743 3.90392 18.4743ZM9.09592 5.48731C9.53792 5.48731 9.91236 5.3362 10.2193 5.03398C10.5261 4.73198 10.6796 4.35765 10.6796 3.91098C10.6796 3.46431 10.5271 3.08976 10.2223 2.78731C9.91759 2.48465 9.54003 2.33331 9.08959 2.33331C8.65203 2.33331 8.28192 2.48676 7.97925 2.79365C7.67681 3.10054 7.52559 3.47276 7.52559 3.91031C7.52559 4.34787 7.67681 4.72009 7.97925 5.02698C8.28192 5.33387 8.65414 5.48731 9.09592 5.48731ZM13.0063 23.6793C13.4483 23.6793 13.8205 23.5283 14.1229 23.2263C14.4256 22.9241 14.5769 22.5498 14.5769 22.1033C14.5769 21.6566 14.4258 21.282 14.1236 20.9793C13.8214 20.6769 13.4468 20.5256 12.9999 20.5256C12.5624 20.5256 12.1901 20.6791 11.8833 20.986C11.5764 21.2926 11.4229 21.6649 11.4229 22.1026C11.4229 22.5402 11.5764 22.9124 11.8833 23.2193C12.1901 23.526 12.5645 23.6793 13.0063 23.6793ZM14.3013 13.282C14.743 13.282 15.1153 13.131 15.4179 12.829C15.7204 12.5268 15.8716 12.1523 15.8716 11.7056C15.8716 11.2592 15.7205 10.8846 15.4183 10.582C15.116 10.2795 14.7416 10.1283 14.2949 10.1283C13.8571 10.1283 13.4849 10.2816 13.1783 10.5883C12.8714 10.8952 12.7179 11.2674 12.7179 11.705C12.7179 12.1428 12.8714 12.515 13.1783 12.8216C13.4849 13.1285 13.8593 13.282 14.3013 13.282ZM22.0833 6.82065C22.525 6.82065 22.8994 6.66954 23.2063 6.36731C23.5131 6.06531 23.6666 5.69098 23.6666 5.24431C23.6666 4.79765 23.5143 4.42309 23.2096 4.12065C22.9049 3.81798 22.5274 3.66665 22.0769 3.66665C21.6391 3.66665 21.269 3.81776 20.9666 4.11998C20.6639 4.4222 20.5126 4.79676 20.5126 5.24365C20.5126 5.6812 20.6639 6.05342 20.9666 6.36031C21.269 6.6672 21.6413 6.82065 22.0833 6.82065Z" fill="white"/>
</svg>
