<svg width="20" height="22" viewBox="0 0 20 22" fill="none" xmlns="http://www.w3.org/2000/svg">
<path d="M10 21.5C9.16667 21.5 8.45833 21.2083 7.875 20.625C7.29167 20.0417 7 19.3333 7 18.5C7 17.6667 7.29167 16.9583 7.875 16.375C8.45833 15.7917 9.16667 15.5 10 15.5C10.8333 15.5 11.5417 15.7917 12.125 16.375C12.7083 16.9583 13 17.6667 13 18.5C13 19.3333 12.7083 20.0417 12.125 20.625C11.5417 21.2083 10.8333 21.5 10 21.5ZM10 19.5C10.2833 19.5 10.5208 19.4042 10.7125 19.2125C10.9042 19.0208 11 18.7833 11 18.5C11 18.2167 10.9042 17.9792 10.7125 17.7875C10.5208 17.5958 10.2833 17.5 10 17.5C9.71667 17.5 9.47917 17.5958 9.2875 17.7875C9.09583 17.9792 9 18.2167 9 18.5C9 18.7833 9.09583 19.0208 9.2875 19.2125C9.47917 19.4042 9.71667 19.5 10 19.5ZM3.5 17.75C2.66667 17.75 1.95833 17.4583 1.375 16.875C0.791667 16.2917 0.5 15.5833 0.5 14.75C0.5 13.9167 0.791667 13.2083 1.375 12.625C1.95833 12.0417 2.66667 11.75 3.5 11.75C4.33333 11.75 5.04167 12.0417 5.625 12.625C6.20833 13.2083 6.5 13.9167 6.5 14.75C6.5 15.5833 6.20833 16.2917 5.625 16.875C5.04167 17.4583 4.33333 17.75 3.5 17.75ZM16.5 17.75C15.6667 17.75 14.9583 17.4583 14.375 16.875C13.7917 16.2917 13.5 15.5833 13.5 14.75C13.5 13.9167 13.7917 13.2083 14.375 12.625C14.9583 12.0417 15.6667 11.75 16.5 11.75C17.3333 11.75 18.0417 12.0417 18.625 12.625C19.2083 13.2083 19.5 13.9167 19.5 14.75C19.5 15.5833 19.2083 16.2917 18.625 16.875C18.0417 17.4583 17.3333 17.75 16.5 17.75ZM3.5 15.75C3.78333 15.75 4.02083 15.6542 4.2125 15.4625C4.40417 15.2708 4.5 15.0333 4.5 14.75C4.5 14.4667 4.40417 14.2292 4.2125 14.0375C4.02083 13.8458 3.78333 13.75 3.5 13.75C3.21667 13.75 2.97917 13.8458 2.7875 14.0375C2.59583 14.2292 2.5 14.4667 2.5 14.75C2.5 15.0333 2.59583 15.2708 2.7875 15.4625C2.97917 15.6542 3.21667 15.75 3.5 15.75ZM16.5 15.75C16.7833 15.75 17.0208 15.6542 17.2125 15.4625C17.4042 15.2708 17.5 15.0333 17.5 14.75C17.5 14.4667 17.4042 14.2292 17.2125 14.0375C17.0208 13.8458 16.7833 13.75 16.5 13.75C16.2167 13.75 15.9792 13.8458 15.7875 14.0375C15.5958 14.2292 15.5 14.4667 15.5 14.75C15.5 15.0333 15.5958 15.2708 15.7875 15.4625C15.9792 15.6542 16.2167 15.75 16.5 15.75ZM3.5 10.25C2.66667 10.25 1.95833 9.95833 1.375 9.375C0.791667 8.79167 0.5 8.08333 0.5 7.25C0.5 6.41667 0.791667 5.70833 1.375 5.125C1.95833 4.54167 2.66667 4.25 3.5 4.25C4.33333 4.25 5.04167 4.54167 5.625 5.125C6.20833 5.70833 6.5 6.41667 6.5 7.25C6.5 8.08333 6.20833 8.79167 5.625 9.375C5.04167 9.95833 4.33333 10.25 3.5 10.25ZM16.5 10.25C15.6667 10.25 14.9583 9.95833 14.375 9.375C13.7917 8.79167 13.5 8.08333 13.5 7.25C13.5 6.41667 13.7917 5.70833 14.375 5.125C14.9583 4.54167 15.6667 4.25 16.5 4.25C17.3333 4.25 18.0417 4.54167 18.625 5.125C19.2083 5.70833 19.5 6.41667 19.5 7.25C19.5 8.08333 19.2083 8.79167 18.625 9.375C18.0417 9.95833 17.3333 10.25 16.5 10.25ZM3.5 8.25C3.78333 8.25 4.02083 8.15417 4.2125 7.9625C4.40417 7.77083 4.5 7.53333 4.5 7.25C4.5 6.96667 4.40417 6.72917 4.2125 6.5375C4.02083 6.34583 3.78333 6.25 3.5 6.25C3.21667 6.25 2.97917 6.34583 2.7875 6.5375C2.59583 6.72917 2.5 6.96667 2.5 7.25C2.5 7.53333 2.59583 7.77083 2.7875 7.9625C2.97917 8.15417 3.21667 8.25 3.5 8.25ZM16.5 8.25C16.7833 8.25 17.0208 8.15417 17.2125 7.9625C17.4042 7.77083 17.5 7.53333 17.5 7.25C17.5 6.96667 17.4042 6.72917 17.2125 6.5375C17.0208 6.34583 16.7833 6.25 16.5 6.25C16.2167 6.25 15.9792 6.34583 15.7875 6.5375C15.5958 6.72917 15.5 6.96667 15.5 7.25C15.5 7.53333 15.5958 7.77083 15.7875 7.9625C15.9792 8.15417 16.2167 8.25 16.5 8.25ZM10 6.5C9.16667 6.5 8.45833 6.20833 7.875 5.625C7.29167 5.04167 7 4.33333 7 3.5C7 2.66667 7.29167 1.95833 7.875 1.375C8.45833 0.791667 9.16667 0.5 10 0.5C10.8333 0.5 11.5417 0.791667 12.125 1.375C12.7083 1.95833 13 2.66667 13 3.5C13 4.33333 12.7083 5.04167 12.125 5.625C11.5417 6.20833 10.8333 6.5 10 6.5ZM10 4.5C10.2833 4.5 10.5208 4.40417 10.7125 4.2125C10.9042 4.02083 11 3.78333 11 3.5C11 3.21667 10.9042 2.97917 10.7125 2.7875C10.5208 2.59583 10.2833 2.5 10 2.5C9.71667 2.5 9.47917 2.59583 9.2875 2.7875C9.09583 2.97917 9 3.21667 9 3.5C9 3.78333 9.09583 4.02083 9.2875 4.2125C9.47917 4.40417 9.71667 4.5 10 4.5Z" fill="#F59D54"/>
</svg>
