<svg width="24" height="20" viewBox="0 0 24 20" fill="none" xmlns="http://www.w3.org/2000/svg">
<path d="M7.06191 20C6.84302 20 6.63869 19.9474 6.44891 19.8423C6.25913 19.7372 6.11302 19.5821 6.01057 19.377L3.53891 14.9487H5.34391L6.62591 17.4613H9.50024V16.282H7.33624L6.05424 13.7693H2.88224L1.08491 10.6027C1.04046 10.5 1.00369 10.3996 0.974575 10.3013C0.945464 10.2031 0.930908 10.1027 0.930908 10C0.930908 9.92822 0.982241 9.72733 1.08491 9.39733L2.88224 6.23067H6.05424L7.33624 3.718H9.50024V2.53867H6.62591L5.34391 5.05133H3.53891L6.01057 0.623C6.11302 0.417889 6.25913 0.262777 6.44891 0.157666C6.63869 0.0525549 6.84302 0 7.06191 0H10.2052C10.549 0 10.8358 0.114999 11.0656 0.344999C11.2956 0.574777 11.4106 0.861555 11.4106 1.20533V6.282H9.39757L8.21824 7.46167H11.4106V11.282H8.63091L7.37457 8.782H4.60291L3.42324 9.96167H6.66424L7.92091 12.4617H11.4106V18.7947C11.4106 19.1384 11.2956 19.4252 11.0656 19.655C10.8358 19.885 10.549 20 10.2052 20H7.06191ZM14.6669 20C14.0191 20 13.4682 19.7731 13.0142 19.3193C12.5605 18.8653 12.3336 18.3144 12.3336 17.6667C12.3336 17.1898 12.4579 16.7718 12.7066 16.4127C12.9555 16.0538 13.2756 15.7778 13.6669 15.5847V4.41533C13.2756 4.22222 12.9555 3.94622 12.7066 3.58733C12.4579 3.22822 12.3336 2.81022 12.3336 2.33333C12.3336 1.68556 12.5605 1.13467 13.0142 0.680666C13.4682 0.226888 14.0191 0 14.6669 0C15.3147 0 15.8656 0.226888 16.3196 0.680666C16.7734 1.13467 17.0002 1.68556 17.0002 2.33333C17.0002 2.81022 16.8759 3.22822 16.6272 3.58733C16.3784 3.94622 16.0582 4.22222 15.6669 4.41533V8.02567L18.6926 6.20767C18.6241 5.52056 18.8211 4.92311 19.2836 4.41533C19.746 3.90778 20.3182 3.654 21.0002 3.654C21.648 3.654 22.1989 3.88089 22.6529 4.33467C23.1067 4.78844 23.3336 5.33933 23.3336 5.98733C23.3336 6.63511 23.1067 7.18589 22.6529 7.63967C22.1989 8.09344 21.648 8.32033 21.0002 8.32033C20.7558 8.32033 20.5301 8.28411 20.3232 8.21167C20.1164 8.139 19.9172 8.03856 19.7259 7.91033L16.4232 9.91033L19.9952 12.7437C20.1508 12.6599 20.3106 12.6004 20.4746 12.5653C20.6386 12.5302 20.8138 12.5127 21.0002 12.5127C21.648 12.5127 22.1989 12.7397 22.6529 13.1937C23.1067 13.6474 23.3336 14.1982 23.3336 14.846C23.3336 15.494 23.1067 16.0449 22.6529 16.4987C22.1989 16.9524 21.648 17.1793 21.0002 17.1793C20.2378 17.1793 19.6297 16.8811 19.1759 16.2847C18.7221 15.688 18.5764 15.0324 18.7386 14.318L15.6669 11.8563V15.618C16.0582 15.8111 16.3728 16.085 16.6106 16.4397C16.8481 16.7943 16.9669 17.2033 16.9669 17.6667C16.9669 18.3144 16.7456 18.8653 16.3029 19.3193C15.86 19.7731 15.3147 20 14.6669 20Z" fill="white"/>
</svg>
