<svg width="16" height="16" viewBox="0 0 16 16" fill="none" xmlns="http://www.w3.org/2000/svg">
<mask id="mask0_74_189" style="mask-type:alpha" maskUnits="userSpaceOnUse" x="0" y="0" width="16" height="16">
<rect width="16" height="16" fill="#D9D9D9"/>
</mask>
<g mask="url(#mask0_74_189)">
<path d="M0.666748 14L8.00008 1.33334L15.3334 14H0.666748ZM2.96675 12.6667H13.0334L8.00008 4.00001L2.96675 12.6667ZM8.00008 12C8.18897 12 8.3473 11.9361 8.47508 11.8083C8.60286 11.6806 8.66675 11.5222 8.66675 11.3333C8.66675 11.1445 8.60286 10.9861 8.47508 10.8583C8.3473 10.7306 8.18897 10.6667 8.00008 10.6667C7.81119 10.6667 7.65286 10.7306 7.52508 10.8583C7.3973 10.9861 7.33342 11.1445 7.33342 11.3333C7.33342 11.5222 7.3973 11.6806 7.52508 11.8083C7.65286 11.9361 7.81119 12 8.00008 12ZM7.33342 10H8.66675V6.66668H7.33342V10Z" fill="#F06C00"/>
</g>
</svg>
