<svg width="24" height="24" viewBox="0 0 24 24" fill="none" xmlns="http://www.w3.org/2000/svg">
<rect x="0.5" y="0.5" width="23" height="23" rx="7.5" fill="white"/>
<rect x="0.5" y="0.5" width="23" height="23" rx="7.5" stroke="#E2E8F0"/>
<path d="M13.3333 6.04806C13.993 6.42887 14.5635 6.94658 15.0064 7.56633C15.4492 8.18609 15.7542 8.89352 15.9007 9.64101C16.0472 10.3885 16.032 11.1587 15.8559 11.8998C15.6798 12.6409 15.3471 13.3357 14.88 13.9374L18.4713 17.5287C18.5928 17.6545 18.66 17.8229 18.6584 17.9977C18.6569 18.1725 18.5868 18.3397 18.4632 18.4633C18.3396 18.5869 18.1724 18.657 17.9976 18.6585C17.8228 18.66 17.6544 18.5928 17.5287 18.4714L13.9367 14.8801C13.1483 15.4919 12.2041 15.8703 11.2113 15.9722C10.2186 16.0742 9.21719 15.8955 8.32095 15.4566C7.4247 15.0177 6.66958 14.3361 6.14144 13.4894C5.61329 12.6426 5.33331 11.6647 5.33333 10.6667L5.33666 10.4767C5.36946 9.55723 5.63957 8.66185 6.12076 7.87762C6.60194 7.09338 7.27783 6.44697 8.08272 6.00121C8.88762 5.55545 9.79414 5.3255 10.7142 5.33371C11.6342 5.34192 12.5365 5.58801 13.3333 6.04806ZM12 8.00006H10.3333C9.8913 8.00006 9.46738 8.17565 9.15482 8.48821C8.84226 8.80078 8.66666 9.2247 8.66666 9.66673C8.66666 10.1088 8.84226 10.5327 9.15482 10.8452C9.46738 11.1578 9.8913 11.3334 10.3333 11.3334H11C11.0884 11.3334 11.1732 11.3685 11.2357 11.431C11.2982 11.4935 11.3333 11.5783 11.3333 11.6667C11.3333 11.7551 11.2982 11.8399 11.2357 11.9024C11.1732 11.9649 11.0884 12.0001 11 12.0001H9.33333C9.15652 12.0001 8.98695 12.0703 8.86192 12.1953C8.7369 12.3203 8.66666 12.4899 8.66666 12.6667C8.66666 12.8435 8.7369 13.0131 8.86192 13.1381C8.98695 13.2632 9.15652 13.3334 9.33333 13.3334H11C11.442 13.3334 11.8659 13.1578 12.1785 12.8452C12.4911 12.5327 12.6667 12.1088 12.6667 11.6667C12.6667 11.2247 12.4911 10.8008 12.1785 10.4882C11.8659 10.1757 11.442 10.0001 11 10.0001H10.3333C10.2449 10.0001 10.1601 9.96494 10.0976 9.90243C10.0351 9.83992 10 9.75513 10 9.66673C10 9.57832 10.0351 9.49354 10.0976 9.43102C10.1601 9.36851 10.2449 9.33339 10.3333 9.33339H12C12.1768 9.33339 12.3464 9.26315 12.4714 9.13813C12.5964 9.01311 12.6667 8.84354 12.6667 8.66673C12.6667 8.48992 12.5964 8.32035 12.4714 8.19532C12.3464 8.0703 12.1768 8.00006 12 8.00006Z" fill="#2563EB"/>
</svg>
