<svg width="643" height="188" viewBox="0 0 643 188" fill="none" xmlns="http://www.w3.org/2000/svg">
<path d="M13.4617 10C13.3417 10 13.2484 9.97 13.1817 9.91C13.1151 9.84333 13.0817 9.75333 13.0817 9.64C13.0817 9.52667 13.1151 9.44333 13.1817 9.39C13.2484 9.33 13.3417 9.3 13.4617 9.3H14.7617V3.63H15.1917L13.7417 4.59C13.6551 4.63667 13.5717 4.65667 13.4917 4.65C13.4184 4.64333 13.3551 4.61667 13.3017 4.57C13.2551 4.51667 13.2217 4.45667 13.2017 4.39C13.1817 4.31667 13.1851 4.24333 13.2117 4.17C13.2384 4.09 13.2951 4.02333 13.3817 3.97L14.7617 3.06C14.8484 3.00667 14.9317 2.96333 15.0117 2.93C15.0917 2.89667 15.1717 2.88 15.2517 2.88C15.3451 2.88 15.4217 2.91 15.4817 2.97C15.5484 3.02333 15.5817 3.11 15.5817 3.23V9.3H16.7817C16.9017 9.3 16.9951 9.33 17.0617 9.39C17.1284 9.44333 17.1617 9.52667 17.1617 9.64C17.1617 9.76 17.1284 9.85 17.0617 9.91C16.9951 9.97 16.9017 10 16.7817 10H13.4617ZM18.8978 10C18.7511 10 18.6411 9.96667 18.5678 9.9C18.5011 9.82667 18.4678 9.73 18.4678 9.61C18.4678 9.53667 18.4845 9.46667 18.5178 9.4C18.5578 9.32667 18.6111 9.25333 18.6778 9.18L20.9178 6.78C21.2578 6.41333 21.5011 6.07667 21.6478 5.77C21.8011 5.45667 21.8778 5.14 21.8778 4.82C21.8778 4.42 21.7545 4.11667 21.5078 3.91C21.2678 3.69667 20.9145 3.59 20.4478 3.59C20.1478 3.59 19.8645 3.63667 19.5978 3.73C19.3311 3.82333 19.0745 3.96667 18.8278 4.16C18.7411 4.22667 18.6611 4.25667 18.5878 4.25C18.5211 4.24333 18.4611 4.21667 18.4078 4.17C18.3545 4.12333 18.3178 4.06333 18.2978 3.99C18.2778 3.91667 18.2778 3.84333 18.2978 3.77C18.3245 3.69667 18.3778 3.63 18.4578 3.57C18.7178 3.35667 19.0311 3.18667 19.3978 3.06C19.7645 2.92667 20.1378 2.86 20.5178 2.86C20.9911 2.86 21.3911 2.93333 21.7178 3.08C22.0445 3.22667 22.2911 3.44333 22.4578 3.73C22.6245 4.01 22.7078 4.35333 22.7078 4.76C22.7078 5.04 22.6611 5.31667 22.5678 5.59C22.4811 5.85667 22.3445 6.13 22.1578 6.41C21.9778 6.69 21.7411 6.98 21.4478 7.28L19.3178 9.53V9.3H22.6878C22.8145 9.3 22.9078 9.33 22.9678 9.39C23.0345 9.44333 23.0678 9.52667 23.0678 9.64C23.0678 9.76 23.0345 9.85 22.9678 9.91C22.9078 9.97 22.8145 10 22.6878 10H18.8978ZM26.3039 10.09C25.4972 10.09 24.8839 9.78 24.4639 9.16C24.0439 8.54 23.8339 7.64333 23.8339 6.47C23.8339 5.68333 23.9272 5.02333 24.1139 4.49C24.3006 3.95 24.5772 3.54333 24.9439 3.27C25.3172 2.99667 25.7706 2.86 26.3039 2.86C27.1172 2.86 27.7306 3.16667 28.1439 3.78C28.5639 4.38667 28.7739 5.28 28.7739 6.46C28.7739 7.24667 28.6806 7.91 28.4939 8.45C28.3072 8.99 28.0306 9.4 27.6639 9.68C27.2972 9.95333 26.8439 10.09 26.3039 10.09ZM26.3039 9.38C26.8639 9.38 27.2772 9.14333 27.5439 8.67C27.8172 8.19 27.9539 7.45333 27.9539 6.46C27.9539 5.46 27.8172 4.73 27.5439 4.27C27.2772 3.80333 26.8639 3.57 26.3039 3.57C25.7506 3.57 25.3372 3.80333 25.0639 4.27C24.7906 4.73667 24.6539 5.46667 24.6539 6.46C24.6539 7.45333 24.7906 8.19 25.0639 8.67C25.3372 9.14333 25.7506 9.38 26.3039 9.38ZM30.16 10.07C30.0267 10.07 29.9267 10.0333 29.86 9.96C29.7933 9.88667 29.76 9.78333 29.76 9.65V3.29C29.76 3.15667 29.7933 3.05667 29.86 2.99C29.9267 2.91667 30.0267 2.88 30.16 2.88C30.2867 2.88 30.3867 2.91667 30.46 2.99C30.5333 3.05667 30.57 3.15667 30.57 3.29V7.3H30.59L32.64 5.34C32.7333 5.25333 32.8133 5.18667 32.88 5.14C32.9533 5.09333 33.05 5.07 33.17 5.07C33.2767 5.07 33.36 5.1 33.42 5.16C33.48 5.21333 33.5067 5.28333 33.5 5.37C33.5 5.45 33.46 5.53667 33.38 5.63L31.2 7.7V7.26L33.57 9.49C33.6633 9.58333 33.71 9.67333 33.71 9.76C33.71 9.84667 33.6767 9.92 33.61 9.98C33.55 10.04 33.47 10.07 33.37 10.07C33.25 10.07 33.1533 10.0467 33.08 10C33.0067 9.94667 32.9167 9.87 32.81 9.77L30.59 7.72H30.57V9.65C30.57 9.93 30.4333 10.07 30.16 10.07Z" fill="#9CA3AF"/>
<path d="M20.6078 48.09C20.0811 48.09 19.6278 48.0133 19.2478 47.86C18.8745 47.7067 18.5878 47.4833 18.3878 47.19C18.1945 46.8967 18.0978 46.5433 18.0978 46.13C18.0978 45.8033 18.1645 45.5133 18.2978 45.26C18.4311 45 18.6178 44.79 18.8578 44.63C19.0978 44.47 19.3745 44.37 19.6878 44.33V44.48C19.2545 44.3867 18.9078 44.1833 18.6478 43.87C18.3945 43.55 18.2678 43.1733 18.2678 42.74C18.2678 42.34 18.3611 42.0033 18.5478 41.73C18.7411 41.45 19.0145 41.2367 19.3678 41.09C19.7211 40.9367 20.1345 40.86 20.6078 40.86C21.0878 40.86 21.5011 40.9367 21.8478 41.09C22.2011 41.2367 22.4745 41.45 22.6678 41.73C22.8611 42.0033 22.9578 42.34 22.9578 42.74C22.9578 43.0267 22.8978 43.2933 22.7778 43.54C22.6645 43.78 22.5011 43.98 22.2878 44.14C22.0745 44.3 21.8245 44.41 21.5378 44.47V44.33C22.0111 44.3967 22.3911 44.5933 22.6778 44.92C22.9711 45.24 23.1178 45.6433 23.1178 46.13C23.1178 46.5433 23.0178 46.8967 22.8178 47.19C22.6245 47.4833 22.3378 47.7067 21.9578 47.86C21.5845 48.0133 21.1345 48.09 20.6078 48.09ZM20.6078 47.41C21.1745 47.41 21.6011 47.3 21.8878 47.08C22.1811 46.86 22.3278 46.5267 22.3278 46.08C22.3278 45.64 22.1811 45.3133 21.8878 45.1C21.6011 44.88 21.1745 44.77 20.6078 44.77C20.0478 44.77 19.6211 44.88 19.3278 45.1C19.0345 45.3133 18.8878 45.64 18.8878 46.08C18.8878 46.5267 19.0345 46.86 19.3278 47.08C19.6211 47.3 20.0478 47.41 20.6078 47.41ZM20.6078 44.09C20.9345 44.09 21.2111 44.04 21.4378 43.94C21.6711 43.8333 21.8511 43.6833 21.9778 43.49C22.1045 43.2967 22.1678 43.07 22.1678 42.81C22.1678 42.41 22.0278 42.1 21.7478 41.88C21.4745 41.6533 21.0945 41.54 20.6078 41.54C20.1211 41.54 19.7411 41.6533 19.4678 41.88C19.1945 42.1 19.0578 42.41 19.0578 42.81C19.0578 43.21 19.1945 43.5233 19.4678 43.75C19.7411 43.9767 20.1211 44.09 20.6078 44.09ZM26.3039 48.09C25.4972 48.09 24.8839 47.78 24.4639 47.16C24.0439 46.54 23.8339 45.6433 23.8339 44.47C23.8339 43.6833 23.9272 43.0233 24.1139 42.49C24.3006 41.95 24.5772 41.5433 24.9439 41.27C25.3172 40.9967 25.7706 40.86 26.3039 40.86C27.1172 40.86 27.7306 41.1667 28.1439 41.78C28.5639 42.3867 28.7739 43.28 28.7739 44.46C28.7739 45.2467 28.6806 45.91 28.4939 46.45C28.3072 46.99 28.0306 47.4 27.6639 47.68C27.2972 47.9533 26.8439 48.09 26.3039 48.09ZM26.3039 47.38C26.8639 47.38 27.2772 47.1433 27.5439 46.67C27.8172 46.19 27.9539 45.4533 27.9539 44.46C27.9539 43.46 27.8172 42.73 27.5439 42.27C27.2772 41.8033 26.8639 41.57 26.3039 41.57C25.7506 41.57 25.3372 41.8033 25.0639 42.27C24.7906 42.7367 24.6539 43.4667 24.6539 44.46C24.6539 45.4533 24.7906 46.19 25.0639 46.67C25.3372 47.1433 25.7506 47.38 26.3039 47.38ZM30.16 48.07C30.0267 48.07 29.9267 48.0333 29.86 47.96C29.7933 47.8867 29.76 47.7833 29.76 47.65V41.29C29.76 41.1567 29.7933 41.0567 29.86 40.99C29.9267 40.9167 30.0267 40.88 30.16 40.88C30.2867 40.88 30.3867 40.9167 30.46 40.99C30.5333 41.0567 30.57 41.1567 30.57 41.29V45.3H30.59L32.64 43.34C32.7333 43.2533 32.8133 43.1867 32.88 43.14C32.9533 43.0933 33.05 43.07 33.17 43.07C33.2767 43.07 33.36 43.1 33.42 43.16C33.48 43.2133 33.5067 43.2833 33.5 43.37C33.5 43.45 33.46 43.5367 33.38 43.63L31.2 45.7V45.26L33.57 47.49C33.6633 47.5833 33.71 47.6733 33.71 47.76C33.71 47.8467 33.6767 47.92 33.61 47.98C33.55 48.04 33.47 48.07 33.37 48.07C33.25 48.07 33.1533 48.0467 33.08 48C33.0067 47.9467 32.9167 47.87 32.81 47.77L30.59 45.72H30.57V47.65C30.57 47.93 30.4333 48.07 30.16 48.07Z" fill="#9CA3AF"/>
<path d="M20.8478 86.09C20.2945 86.09 19.8211 85.9567 19.4278 85.69C19.0411 85.4167 18.7478 85.0233 18.5478 84.51C18.3478 83.9967 18.2478 83.3767 18.2478 82.65C18.2478 82.0367 18.3111 81.4967 18.4378 81.03C18.5645 80.5633 18.7511 80.17 18.9978 79.85C19.2445 79.5233 19.5445 79.2767 19.8978 79.11C20.2511 78.9433 20.6511 78.86 21.0978 78.86C21.4045 78.86 21.7178 78.92 22.0378 79.04C22.3645 79.16 22.6511 79.33 22.8978 79.55C22.9711 79.6033 23.0145 79.67 23.0278 79.75C23.0478 79.8233 23.0478 79.8967 23.0278 79.97C23.0078 80.0367 22.9711 80.0933 22.9178 80.14C22.8711 80.1867 22.8111 80.2133 22.7378 80.22C22.6645 80.22 22.5878 80.19 22.5078 80.13C22.2811 79.9367 22.0478 79.8 21.8078 79.72C21.5678 79.6333 21.3245 79.59 21.0778 79.59C20.6445 79.59 20.2745 79.6967 19.9678 79.91C19.6678 80.1233 19.4378 80.4467 19.2778 80.88C19.1245 81.3067 19.0478 81.8433 19.0478 82.49V83.42H18.9578C18.9978 83.04 19.1078 82.7133 19.2878 82.44C19.4745 82.16 19.7111 81.9467 19.9978 81.8C20.2845 81.6533 20.6078 81.58 20.9678 81.58C21.3811 81.58 21.7478 81.6733 22.0678 81.86C22.3878 82.0467 22.6378 82.31 22.8178 82.65C22.9978 82.9833 23.0878 83.3667 23.0878 83.8C23.0878 84.24 22.9945 84.6333 22.8078 84.98C22.6211 85.3267 22.3578 85.6 22.0178 85.8C21.6778 85.9933 21.2878 86.09 20.8478 86.09ZM20.7978 85.39C21.0911 85.39 21.3511 85.3267 21.5778 85.2C21.8045 85.0667 21.9811 84.8833 22.1078 84.65C22.2345 84.41 22.2978 84.1367 22.2978 83.83C22.2978 83.5233 22.2345 83.2533 22.1078 83.02C21.9811 82.7867 21.8045 82.6033 21.5778 82.47C21.3511 82.3367 21.0911 82.27 20.7978 82.27C20.5045 82.27 20.2445 82.3367 20.0178 82.47C19.7911 82.6033 19.6145 82.7867 19.4878 83.02C19.3611 83.2533 19.2978 83.5233 19.2978 83.83C19.2978 84.1367 19.3611 84.41 19.4878 84.65C19.6145 84.8833 19.7911 85.0667 20.0178 85.2C20.2445 85.3267 20.5045 85.39 20.7978 85.39ZM26.3039 86.09C25.4972 86.09 24.8839 85.78 24.4639 85.16C24.0439 84.54 23.8339 83.6433 23.8339 82.47C23.8339 81.6833 23.9272 81.0233 24.1139 80.49C24.3006 79.95 24.5772 79.5433 24.9439 79.27C25.3172 78.9967 25.7706 78.86 26.3039 78.86C27.1172 78.86 27.7306 79.1667 28.1439 79.78C28.5639 80.3867 28.7739 81.28 28.7739 82.46C28.7739 83.2467 28.6806 83.91 28.4939 84.45C28.3072 84.99 28.0306 85.4 27.6639 85.68C27.2972 85.9533 26.8439 86.09 26.3039 86.09ZM26.3039 85.38C26.8639 85.38 27.2772 85.1433 27.5439 84.67C27.8172 84.19 27.9539 83.4533 27.9539 82.46C27.9539 81.46 27.8172 80.73 27.5439 80.27C27.2772 79.8033 26.8639 79.57 26.3039 79.57C25.7506 79.57 25.3372 79.8033 25.0639 80.27C24.7906 80.7367 24.6539 81.4667 24.6539 82.46C24.6539 83.4533 24.7906 84.19 25.0639 84.67C25.3372 85.1433 25.7506 85.38 26.3039 85.38ZM30.16 86.07C30.0267 86.07 29.9267 86.0333 29.86 85.96C29.7933 85.8867 29.76 85.7833 29.76 85.65V79.29C29.76 79.1567 29.7933 79.0567 29.86 78.99C29.9267 78.9167 30.0267 78.88 30.16 78.88C30.2867 78.88 30.3867 78.9167 30.46 78.99C30.5333 79.0567 30.57 79.1567 30.57 79.29V83.3H30.59L32.64 81.34C32.7333 81.2533 32.8133 81.1867 32.88 81.14C32.9533 81.0933 33.05 81.07 33.17 81.07C33.2767 81.07 33.36 81.1 33.42 81.16C33.48 81.2133 33.5067 81.2833 33.5 81.37C33.5 81.45 33.46 81.5367 33.38 81.63L31.2 83.7V83.26L33.57 85.49C33.6633 85.5833 33.71 85.6733 33.71 85.76C33.71 85.8467 33.6767 85.92 33.61 85.98C33.55 86.04 33.47 86.07 33.37 86.07C33.25 86.07 33.1533 86.0467 33.08 86C33.0067 85.9467 32.9167 85.87 32.81 85.77L30.59 83.72H30.57V85.65C30.57 85.93 30.4333 86.07 30.16 86.07Z" fill="#9CA3AF"/>
<path d="M18.8978 124C18.7511 124 18.6411 123.967 18.5678 123.9C18.5011 123.827 18.4678 123.73 18.4678 123.61C18.4678 123.537 18.4845 123.467 18.5178 123.4C18.5578 123.327 18.6111 123.253 18.6778 123.18L20.9178 120.78C21.2578 120.413 21.5011 120.077 21.6478 119.77C21.8011 119.457 21.8778 119.14 21.8778 118.82C21.8778 118.42 21.7545 118.117 21.5078 117.91C21.2678 117.697 20.9145 117.59 20.4478 117.59C20.1478 117.59 19.8645 117.637 19.5978 117.73C19.3311 117.823 19.0745 117.967 18.8278 118.16C18.7411 118.227 18.6611 118.257 18.5878 118.25C18.5211 118.243 18.4611 118.217 18.4078 118.17C18.3545 118.123 18.3178 118.063 18.2978 117.99C18.2778 117.917 18.2778 117.843 18.2978 117.77C18.3245 117.697 18.3778 117.63 18.4578 117.57C18.7178 117.357 19.0311 117.187 19.3978 117.06C19.7645 116.927 20.1378 116.86 20.5178 116.86C20.9911 116.86 21.3911 116.933 21.7178 117.08C22.0445 117.227 22.2911 117.443 22.4578 117.73C22.6245 118.01 22.7078 118.353 22.7078 118.76C22.7078 119.04 22.6611 119.317 22.5678 119.59C22.4811 119.857 22.3445 120.13 22.1578 120.41C21.9778 120.69 21.7411 120.98 21.4478 121.28L19.3178 123.53V123.3H22.6878C22.8145 123.3 22.9078 123.33 22.9678 123.39C23.0345 123.443 23.0678 123.527 23.0678 123.64C23.0678 123.76 23.0345 123.85 22.9678 123.91C22.9078 123.97 22.8145 124 22.6878 124H18.8978ZM26.3039 124.09C25.4972 124.09 24.8839 123.78 24.4639 123.16C24.0439 122.54 23.8339 121.643 23.8339 120.47C23.8339 119.683 23.9272 119.023 24.1139 118.49C24.3006 117.95 24.5772 117.543 24.9439 117.27C25.3172 116.997 25.7706 116.86 26.3039 116.86C27.1172 116.86 27.7306 117.167 28.1439 117.78C28.5639 118.387 28.7739 119.28 28.7739 120.46C28.7739 121.247 28.6806 121.91 28.4939 122.45C28.3072 122.99 28.0306 123.4 27.6639 123.68C27.2972 123.953 26.8439 124.09 26.3039 124.09ZM26.3039 123.38C26.8639 123.38 27.2772 123.143 27.5439 122.67C27.8172 122.19 27.9539 121.453 27.9539 120.46C27.9539 119.46 27.8172 118.73 27.5439 118.27C27.2772 117.803 26.8639 117.57 26.3039 117.57C25.7506 117.57 25.3372 117.803 25.0639 118.27C24.7906 118.737 24.6539 119.467 24.6539 120.46C24.6539 121.453 24.7906 122.19 25.0639 122.67C25.3372 123.143 25.7506 123.38 26.3039 123.38ZM30.16 124.07C30.0267 124.07 29.9267 124.033 29.86 123.96C29.7933 123.887 29.76 123.783 29.76 123.65V117.29C29.76 117.157 29.7933 117.057 29.86 116.99C29.9267 116.917 30.0267 116.88 30.16 116.88C30.2867 116.88 30.3867 116.917 30.46 116.99C30.5333 117.057 30.57 117.157 30.57 117.29V121.3H30.59L32.64 119.34C32.7333 119.253 32.8133 119.187 32.88 119.14C32.9533 119.093 33.05 119.07 33.17 119.07C33.2767 119.07 33.36 119.1 33.42 119.16C33.48 119.213 33.5067 119.283 33.5 119.37C33.5 119.45 33.46 119.537 33.38 119.63L31.2 121.7V121.26L33.57 123.49C33.6633 123.583 33.71 123.673 33.71 123.76C33.71 123.847 33.6767 123.92 33.61 123.98C33.55 124.04 33.47 124.07 33.37 124.07C33.25 124.07 33.1533 124.047 33.08 124C33.0067 123.947 32.9167 123.87 32.81 123.77L30.59 121.72H30.57V123.65C30.57 123.93 30.4333 124.07 30.16 124.07Z" fill="#9CA3AF"/>
<path d="M31.0039 162.09C30.1972 162.09 29.5839 161.78 29.1639 161.16C28.7439 160.54 28.5339 159.643 28.5339 158.47C28.5339 157.683 28.6272 157.023 28.8139 156.49C29.0006 155.95 29.2772 155.543 29.6439 155.27C30.0172 154.997 30.4706 154.86 31.0039 154.86C31.8172 154.86 32.4306 155.167 32.8439 155.78C33.2639 156.387 33.4739 157.28 33.4739 158.46C33.4739 159.247 33.3806 159.91 33.1939 160.45C33.0072 160.99 32.7306 161.4 32.3639 161.68C31.9972 161.953 31.5439 162.09 31.0039 162.09ZM31.0039 161.38C31.5639 161.38 31.9772 161.143 32.2439 160.67C32.5172 160.19 32.6539 159.453 32.6539 158.46C32.6539 157.46 32.5172 156.73 32.2439 156.27C31.9772 155.803 31.5639 155.57 31.0039 155.57C30.4506 155.57 30.0372 155.803 29.7639 156.27C29.4906 156.737 29.3539 157.467 29.3539 158.46C29.3539 159.453 29.4906 160.19 29.7639 160.67C30.0372 161.143 30.4506 161.38 31.0039 161.38Z" fill="#9CA3AF"/>
<rect x="46" y="116" width="17.375" height="50" rx="4" fill="#E2E8F0"/>
<rect x="67.375" y="85" width="17.375" height="81" rx="4" fill="#7C3AED"/>
<rect x="96.75" y="69" width="17.375" height="97" rx="4" fill="#E2E8F0"/>
<rect x="118.125" y="52" width="17.375" height="114" rx="4" fill="#7C3AED"/>
<rect x="147.5" y="111" width="17.375" height="55" rx="4" fill="#E2E8F0"/>
<rect x="168.875" y="87" width="17.375" height="79" rx="4" fill="#7C3AED"/>
<rect x="198.25" y="103" width="17.375" height="63" rx="4" fill="#E2E8F0"/>
<rect x="219.625" y="67" width="17.375" height="99" rx="4" fill="#7C3AED"/>
<rect x="249" y="95" width="17.375" height="71" rx="4" fill="#E2E8F0"/>
<rect x="270.375" y="50" width="17.375" height="116" rx="4" fill="#7C3AED"/>
<rect x="299.75" y="91" width="17.375" height="75" rx="4" fill="#E2E8F0"/>
<rect x="321.125" y="17" width="17.375" height="149" rx="4" fill="#7C3AED"/>
<rect x="350.5" y="73" width="17.375" height="93" rx="4" fill="#E2E8F0"/>
<rect x="371.875" y="73" width="17.375" height="93" rx="4" fill="#7C3AED"/>
<rect x="401.25" y="90" width="17.375" height="76" rx="4" fill="#E2E8F0"/>
<rect x="422.625" y="108" width="17.375" height="58" rx="4" fill="#7C3AED"/>
<rect x="452" y="44" width="17.375" height="122" rx="4" fill="#E2E8F0"/>
<rect x="473.375" y="44" width="17.375" height="122" rx="4" fill="#7C3AED"/>
<rect x="502.75" y="107" width="17.375" height="59" rx="4" fill="#9CA3AF"/>
<rect x="553.5" y="134" width="17.375" height="32" rx="4" fill="#9CA3AF"/>
<rect x="604.25" y="108" width="17.375" height="58" rx="4" fill="#9CA3AF"/>
<rect y="174" width="34" height="14" fill="white"/>
<path d="M58.8407 184.06C58.7141 184.067 58.6174 184.033 58.5507 183.96C58.4774 183.887 58.4407 183.797 58.4407 183.69C58.4407 183.61 58.4674 183.537 58.5207 183.47C58.5674 183.403 58.6441 183.367 58.7507 183.36L59.0607 183.34C59.4007 183.313 59.6607 183.197 59.8407 182.99C60.0207 182.777 60.1107 182.487 60.1107 182.12V177.3C60.1107 177.16 60.1441 177.057 60.2107 176.99C60.2841 176.917 60.3874 176.88 60.5207 176.88C60.6541 176.88 60.7541 176.917 60.8207 176.99C60.8941 177.057 60.9307 177.16 60.9307 177.3V182.13C60.9307 182.51 60.8641 182.84 60.7307 183.12C60.5974 183.393 60.3974 183.607 60.1307 183.76C59.8707 183.913 59.5507 184.003 59.1707 184.03L58.8407 184.06ZM63.7929 184.09C63.4596 184.09 63.1596 184.027 62.8929 183.9C62.6329 183.767 62.4263 183.587 62.2729 183.36C62.1196 183.133 62.0429 182.88 62.0429 182.6C62.0429 182.24 62.1329 181.957 62.3129 181.75C62.4996 181.543 62.8029 181.397 63.2229 181.31C63.6496 181.223 64.2296 181.18 64.9629 181.18H65.4129V181.71H64.9729C64.4329 181.71 64.0063 181.737 63.6929 181.79C63.3863 181.837 63.1696 181.92 63.0429 182.04C62.9229 182.16 62.8629 182.33 62.8629 182.55C62.8629 182.823 62.9563 183.047 63.1429 183.22C63.3363 183.393 63.5963 183.48 63.9229 183.48C64.1896 183.48 64.4229 183.417 64.6229 183.29C64.8296 183.163 64.9896 182.99 65.1029 182.77C65.2229 182.55 65.2829 182.297 65.2829 182.01V180.87C65.2829 180.457 65.1996 180.16 65.0329 179.98C64.8663 179.793 64.5929 179.7 64.2129 179.7C63.9796 179.7 63.7463 179.73 63.5129 179.79C63.2796 179.85 63.0329 179.947 62.7729 180.08C62.6796 180.127 62.5996 180.143 62.5329 180.13C62.4663 180.11 62.4129 180.073 62.3729 180.02C62.3329 179.967 62.3096 179.907 62.3029 179.84C62.2963 179.767 62.3096 179.697 62.3429 179.63C62.3829 179.563 62.4429 179.51 62.5229 179.47C62.8163 179.323 63.1063 179.217 63.3929 179.15C63.6796 179.083 63.9529 179.05 64.2129 179.05C64.6329 179.05 64.9796 179.12 65.2529 179.26C65.5263 179.393 65.7296 179.6 65.8629 179.88C65.9963 180.153 66.0629 180.507 66.0629 180.94V183.65C66.0629 183.783 66.0296 183.887 65.9629 183.96C65.9029 184.033 65.8129 184.07 65.6929 184.07C65.5663 184.07 65.4696 184.033 65.4029 183.96C65.3363 183.887 65.3029 183.783 65.3029 183.65V182.87H65.3929C65.3396 183.123 65.2363 183.34 65.0829 183.52C64.9363 183.7 64.7529 183.84 64.5329 183.94C64.3129 184.04 64.0663 184.09 63.7929 184.09ZM67.6657 184.07C67.5323 184.07 67.4323 184.033 67.3657 183.96C67.299 183.887 67.2657 183.783 67.2657 183.65V179.48C67.2657 179.347 67.299 179.247 67.3657 179.18C67.4323 179.107 67.529 179.07 67.6557 179.07C67.7823 179.07 67.879 179.107 67.9457 179.18C68.019 179.247 68.0557 179.347 68.0557 179.48V180.34L67.9457 180.22C68.0857 179.833 68.3123 179.543 68.6257 179.35C68.9457 179.15 69.3123 179.05 69.7257 179.05C70.1123 179.05 70.4323 179.12 70.6857 179.26C70.9457 179.4 71.139 179.613 71.2657 179.9C71.3923 180.18 71.4557 180.537 71.4557 180.97V183.65C71.4557 183.783 71.419 183.887 71.3457 183.96C71.279 184.033 71.1823 184.07 71.0557 184.07C70.9223 184.07 70.819 184.033 70.7457 183.96C70.679 183.887 70.6457 183.783 70.6457 183.65V181.02C70.6457 180.567 70.5557 180.237 70.3757 180.03C70.2023 179.817 69.9223 179.71 69.5357 179.71C69.089 179.71 68.7323 179.85 68.4657 180.13C68.2057 180.403 68.0757 180.77 68.0757 181.23V183.65C68.0757 183.93 67.939 184.07 67.6657 184.07Z" fill="#9CA3AF"/>
<path d="M109.512 184.07C109.372 184.07 109.262 184.033 109.182 183.96C109.109 183.88 109.072 183.767 109.072 183.62V177.4C109.072 177.253 109.109 177.143 109.182 177.07C109.262 176.99 109.376 176.95 109.522 176.95H113.152C113.266 176.95 113.352 176.98 113.412 177.04C113.472 177.1 113.502 177.183 113.502 177.29C113.502 177.403 113.472 177.49 113.412 177.55C113.352 177.61 113.266 177.64 113.152 177.64H109.892V180.1H112.942C113.056 180.1 113.142 180.13 113.202 180.19C113.269 180.25 113.302 180.333 113.302 180.44C113.302 180.553 113.269 180.64 113.202 180.7C113.142 180.76 113.056 180.79 112.942 180.79H109.892V183.62C109.892 183.92 109.766 184.07 109.512 184.07ZM116.145 184.09C115.632 184.09 115.189 183.99 114.815 183.79C114.449 183.583 114.162 183.293 113.955 182.92C113.755 182.547 113.655 182.1 113.655 181.58C113.655 181.073 113.755 180.633 113.955 180.26C114.155 179.88 114.429 179.583 114.775 179.37C115.129 179.157 115.535 179.05 115.995 179.05C116.322 179.05 116.615 179.107 116.875 179.22C117.135 179.327 117.355 179.483 117.535 179.69C117.722 179.897 117.862 180.147 117.955 180.44C118.055 180.733 118.105 181.063 118.105 181.43C118.105 181.537 118.075 181.617 118.015 181.67C117.955 181.717 117.869 181.74 117.755 181.74H114.275V181.21H117.565L117.405 181.34C117.405 180.98 117.352 180.677 117.245 180.43C117.139 180.177 116.982 179.983 116.775 179.85C116.575 179.717 116.322 179.65 116.015 179.65C115.675 179.65 115.385 179.73 115.145 179.89C114.912 180.043 114.735 180.26 114.615 180.54C114.495 180.813 114.435 181.133 114.435 181.5V181.56C114.435 182.173 114.582 182.64 114.875 182.96C115.175 183.28 115.599 183.44 116.145 183.44C116.372 183.44 116.595 183.41 116.815 183.35C117.042 183.29 117.262 183.19 117.475 183.05C117.569 182.99 117.652 182.963 117.725 182.97C117.805 182.97 117.869 182.993 117.915 183.04C117.962 183.08 117.992 183.133 118.005 183.2C118.025 183.26 118.019 183.327 117.985 183.4C117.959 183.473 117.902 183.537 117.815 183.59C117.595 183.75 117.335 183.873 117.035 183.96C116.735 184.047 116.439 184.09 116.145 184.09ZM121.438 184.09C120.998 184.09 120.618 183.977 120.298 183.75C119.984 183.523 119.774 183.22 119.668 182.84L119.778 182.73V183.65C119.778 183.783 119.741 183.887 119.668 183.96C119.601 184.033 119.504 184.07 119.378 184.07C119.244 184.07 119.144 184.033 119.078 183.96C119.011 183.887 118.978 183.783 118.978 183.65V177.29C118.978 177.157 119.011 177.057 119.078 176.99C119.144 176.917 119.244 176.88 119.378 176.88C119.504 176.88 119.604 176.917 119.678 176.99C119.751 177.057 119.788 177.157 119.788 177.29V180.27H119.668C119.781 179.897 119.994 179.6 120.308 179.38C120.621 179.16 120.998 179.05 121.438 179.05C121.878 179.05 122.258 179.153 122.578 179.36C122.898 179.56 123.144 179.85 123.318 180.23C123.498 180.603 123.588 181.05 123.588 181.57C123.588 182.083 123.498 182.53 123.318 182.91C123.144 183.283 122.894 183.573 122.568 183.78C122.248 183.987 121.871 184.09 121.438 184.09ZM121.268 183.44C121.574 183.44 121.838 183.367 122.058 183.22C122.284 183.073 122.458 182.86 122.578 182.58C122.704 182.3 122.768 181.963 122.768 181.57C122.768 180.963 122.631 180.5 122.358 180.18C122.091 179.86 121.728 179.7 121.268 179.7C120.968 179.7 120.704 179.773 120.478 179.92C120.251 180.06 120.074 180.27 119.948 180.55C119.828 180.823 119.768 181.163 119.768 181.57C119.768 182.17 119.904 182.633 120.178 182.96C120.451 183.28 120.814 183.44 121.268 183.44Z" fill="#9CA3AF"/>
<path d="M159.724 184.07C159.604 184.07 159.511 184.037 159.444 183.97C159.378 183.897 159.344 183.797 159.344 183.67V177.28C159.344 177.147 159.378 177.047 159.444 176.98C159.511 176.913 159.604 176.88 159.724 176.88C159.831 176.88 159.914 176.903 159.974 176.95C160.041 176.99 160.101 177.06 160.154 177.16L162.894 182.32H162.594L165.324 177.16C165.378 177.06 165.434 176.99 165.494 176.95C165.554 176.903 165.641 176.88 165.754 176.88C165.868 176.88 165.958 176.913 166.024 176.98C166.091 177.047 166.124 177.147 166.124 177.28V183.67C166.124 183.797 166.091 183.897 166.024 183.97C165.964 184.037 165.871 184.07 165.744 184.07C165.624 184.07 165.531 184.037 165.464 183.97C165.398 183.897 165.364 183.797 165.364 183.67V178.05H165.604L163.104 182.74C163.058 182.827 163.008 182.89 162.954 182.93C162.908 182.963 162.838 182.98 162.744 182.98C162.651 182.98 162.578 182.96 162.524 182.92C162.471 182.88 162.424 182.82 162.384 182.74L159.854 178.04H160.094V183.67C160.094 183.797 160.061 183.897 159.994 183.97C159.934 184.037 159.844 184.07 159.724 184.07ZM168.999 184.09C168.666 184.09 168.366 184.027 168.099 183.9C167.839 183.767 167.632 183.587 167.479 183.36C167.326 183.133 167.249 182.88 167.249 182.6C167.249 182.24 167.339 181.957 167.519 181.75C167.706 181.543 168.009 181.397 168.429 181.31C168.856 181.223 169.436 181.18 170.169 181.18H170.619V181.71H170.179C169.639 181.71 169.212 181.737 168.899 181.79C168.592 181.837 168.376 181.92 168.249 182.04C168.129 182.16 168.069 182.33 168.069 182.55C168.069 182.823 168.162 183.047 168.349 183.22C168.542 183.393 168.802 183.48 169.129 183.48C169.396 183.48 169.629 183.417 169.829 183.29C170.036 183.163 170.196 182.99 170.309 182.77C170.429 182.55 170.489 182.297 170.489 182.01V180.87C170.489 180.457 170.406 180.16 170.239 179.98C170.072 179.793 169.799 179.7 169.419 179.7C169.186 179.7 168.952 179.73 168.719 179.79C168.486 179.85 168.239 179.947 167.979 180.08C167.886 180.127 167.806 180.143 167.739 180.13C167.672 180.11 167.619 180.073 167.579 180.02C167.539 179.967 167.516 179.907 167.509 179.84C167.502 179.767 167.516 179.697 167.549 179.63C167.589 179.563 167.649 179.51 167.729 179.47C168.022 179.323 168.312 179.217 168.599 179.15C168.886 179.083 169.159 179.05 169.419 179.05C169.839 179.05 170.186 179.12 170.459 179.26C170.732 179.393 170.936 179.6 171.069 179.88C171.202 180.153 171.269 180.507 171.269 180.94V183.65C171.269 183.783 171.236 183.887 171.169 183.96C171.109 184.033 171.019 184.07 170.899 184.07C170.772 184.07 170.676 184.033 170.609 183.96C170.542 183.887 170.509 183.783 170.509 183.65V182.87H170.599C170.546 183.123 170.442 183.34 170.289 183.52C170.142 183.7 169.959 183.84 169.739 183.94C169.519 184.04 169.272 184.09 168.999 184.09ZM172.882 184.07C172.748 184.07 172.645 184.033 172.572 183.96C172.505 183.887 172.472 183.783 172.472 183.65V179.48C172.472 179.347 172.505 179.247 172.572 179.18C172.638 179.107 172.735 179.07 172.862 179.07C172.988 179.07 173.085 179.107 173.152 179.18C173.225 179.247 173.262 179.347 173.262 179.48V180.29H173.162C173.268 179.897 173.472 179.593 173.772 179.38C174.072 179.167 174.442 179.053 174.882 179.04C174.982 179.033 175.062 179.057 175.122 179.11C175.182 179.157 175.215 179.24 175.222 179.36C175.228 179.473 175.202 179.563 175.142 179.63C175.082 179.697 174.988 179.737 174.862 179.75L174.702 179.77C174.248 179.81 173.898 179.957 173.652 180.21C173.412 180.457 173.292 180.797 173.292 181.23V183.65C173.292 183.783 173.255 183.887 173.182 183.96C173.115 184.033 173.015 184.07 172.882 184.07Z" fill="#9CA3AF"/>
<path d="M210.295 184.07C210.189 184.07 210.102 184.047 210.035 184C209.975 183.947 209.939 183.88 209.925 183.8C209.919 183.713 209.939 183.617 209.985 183.51L212.735 177.25C212.795 177.117 212.865 177.023 212.945 176.97C213.032 176.91 213.125 176.88 213.225 176.88C213.325 176.88 213.415 176.91 213.495 176.97C213.582 177.023 213.652 177.117 213.705 177.25L216.465 183.51C216.519 183.617 216.539 183.713 216.525 183.8C216.519 183.887 216.485 183.953 216.425 184C216.365 184.047 216.282 184.07 216.175 184.07C216.055 184.07 215.959 184.04 215.885 183.98C215.812 183.913 215.752 183.82 215.705 183.7L214.965 181.99L215.365 182.2H211.065L211.475 181.99L210.745 183.7C210.685 183.827 210.622 183.92 210.555 183.98C210.489 184.04 210.402 184.07 210.295 184.07ZM213.215 177.91L211.605 181.7L211.365 181.51H215.065L214.845 181.7L213.235 177.91H213.215ZM217.721 185.87C217.587 185.87 217.487 185.833 217.421 185.76C217.354 185.693 217.321 185.593 217.321 185.46V179.48C217.321 179.347 217.354 179.247 217.421 179.18C217.487 179.107 217.584 179.07 217.711 179.07C217.844 179.07 217.944 179.107 218.011 179.18C218.084 179.247 218.121 179.347 218.121 179.48V180.43L218.011 180.29C218.117 179.91 218.327 179.61 218.641 179.39C218.961 179.163 219.341 179.05 219.781 179.05C220.214 179.05 220.591 179.153 220.911 179.36C221.237 179.56 221.487 179.85 221.661 180.23C221.841 180.603 221.931 181.05 221.931 181.57C221.931 182.083 221.841 182.53 221.661 182.91C221.487 183.283 221.241 183.573 220.921 183.78C220.601 183.987 220.221 184.09 219.781 184.09C219.341 184.09 218.964 183.98 218.651 183.76C218.337 183.533 218.124 183.233 218.011 182.86H218.131V185.46C218.131 185.593 218.094 185.693 218.021 185.76C217.947 185.833 217.847 185.87 217.721 185.87ZM219.611 183.44C219.917 183.44 220.181 183.367 220.401 183.22C220.627 183.073 220.801 182.86 220.921 182.58C221.047 182.3 221.111 181.963 221.111 181.57C221.111 180.963 220.974 180.5 220.701 180.18C220.434 179.86 220.071 179.7 219.611 179.7C219.311 179.7 219.047 179.773 218.821 179.92C218.594 180.06 218.417 180.27 218.291 180.55C218.171 180.823 218.111 181.163 218.111 181.57C218.111 182.17 218.247 182.633 218.521 182.96C218.794 183.28 219.157 183.44 219.611 183.44ZM223.261 184.07C223.127 184.07 223.024 184.033 222.951 183.96C222.884 183.887 222.851 183.783 222.851 183.65V179.48C222.851 179.347 222.884 179.247 222.951 179.18C223.017 179.107 223.114 179.07 223.241 179.07C223.367 179.07 223.464 179.107 223.531 179.18C223.604 179.247 223.641 179.347 223.641 179.48V180.29H223.541C223.647 179.897 223.851 179.593 224.151 179.38C224.451 179.167 224.821 179.053 225.261 179.04C225.361 179.033 225.441 179.057 225.501 179.11C225.561 179.157 225.594 179.24 225.601 179.36C225.607 179.473 225.581 179.563 225.521 179.63C225.461 179.697 225.367 179.737 225.241 179.75L225.081 179.77C224.627 179.81 224.277 179.957 224.031 180.21C223.791 180.457 223.671 180.797 223.671 181.23V183.65C223.671 183.783 223.634 183.887 223.561 183.96C223.494 184.033 223.394 184.07 223.261 184.07Z" fill="#9CA3AF"/>
<path d="M260.472 184.07C260.352 184.07 260.259 184.037 260.192 183.97C260.126 183.897 260.092 183.797 260.092 183.67V177.28C260.092 177.147 260.126 177.047 260.192 176.98C260.259 176.913 260.352 176.88 260.472 176.88C260.579 176.88 260.662 176.903 260.722 176.95C260.789 176.99 260.849 177.06 260.902 177.16L263.642 182.32H263.342L266.072 177.16C266.126 177.06 266.182 176.99 266.242 176.95C266.302 176.903 266.389 176.88 266.502 176.88C266.616 176.88 266.706 176.913 266.772 176.98C266.839 177.047 266.872 177.147 266.872 177.28V183.67C266.872 183.797 266.839 183.897 266.772 183.97C266.712 184.037 266.619 184.07 266.492 184.07C266.372 184.07 266.279 184.037 266.212 183.97C266.146 183.897 266.112 183.797 266.112 183.67V178.05H266.352L263.852 182.74C263.806 182.827 263.756 182.89 263.702 182.93C263.656 182.963 263.586 182.98 263.492 182.98C263.399 182.98 263.326 182.96 263.272 182.92C263.219 182.88 263.172 182.82 263.132 182.74L260.602 178.04H260.842V183.67C260.842 183.797 260.809 183.897 260.742 183.97C260.682 184.037 260.592 184.07 260.472 184.07ZM269.747 184.09C269.414 184.09 269.114 184.027 268.847 183.9C268.587 183.767 268.38 183.587 268.227 183.36C268.074 183.133 267.997 182.88 267.997 182.6C267.997 182.24 268.087 181.957 268.267 181.75C268.454 181.543 268.757 181.397 269.177 181.31C269.604 181.223 270.184 181.18 270.917 181.18H271.367V181.71H270.927C270.387 181.71 269.96 181.737 269.647 181.79C269.34 181.837 269.124 181.92 268.997 182.04C268.877 182.16 268.817 182.33 268.817 182.55C268.817 182.823 268.91 183.047 269.097 183.22C269.29 183.393 269.55 183.48 269.877 183.48C270.144 183.48 270.377 183.417 270.577 183.29C270.784 183.163 270.944 182.99 271.057 182.77C271.177 182.55 271.237 182.297 271.237 182.01V180.87C271.237 180.457 271.154 180.16 270.987 179.98C270.82 179.793 270.547 179.7 270.167 179.7C269.934 179.7 269.7 179.73 269.467 179.79C269.234 179.85 268.987 179.947 268.727 180.08C268.634 180.127 268.554 180.143 268.487 180.13C268.42 180.11 268.367 180.073 268.327 180.02C268.287 179.967 268.264 179.907 268.257 179.84C268.25 179.767 268.264 179.697 268.297 179.63C268.337 179.563 268.397 179.51 268.477 179.47C268.77 179.323 269.06 179.217 269.347 179.15C269.634 179.083 269.907 179.05 270.167 179.05C270.587 179.05 270.934 179.12 271.207 179.26C271.48 179.393 271.684 179.6 271.817 179.88C271.95 180.153 272.017 180.507 272.017 180.94V183.65C272.017 183.783 271.984 183.887 271.917 183.96C271.857 184.033 271.767 184.07 271.647 184.07C271.52 184.07 271.424 184.033 271.357 183.96C271.29 183.887 271.257 183.783 271.257 183.65V182.87H271.347C271.294 183.123 271.19 183.34 271.037 183.52C270.89 183.7 270.707 183.84 270.487 183.94C270.267 184.04 270.02 184.09 269.747 184.09ZM274.251 185.87C274.151 185.87 274.071 185.843 274.011 185.79C273.951 185.737 273.914 185.663 273.901 185.57C273.894 185.483 273.911 185.393 273.951 185.3L274.641 183.75V184.1L272.721 179.64C272.681 179.54 272.668 179.447 272.681 179.36C272.694 179.273 272.734 179.203 272.801 179.15C272.868 179.097 272.961 179.07 273.081 179.07C273.188 179.07 273.271 179.093 273.331 179.14C273.391 179.187 273.444 179.27 273.491 179.39L275.131 183.41H274.861L276.521 179.39C276.574 179.27 276.631 179.187 276.691 179.14C276.751 179.093 276.838 179.07 276.951 179.07C277.058 179.07 277.138 179.097 277.191 179.15C277.251 179.203 277.284 179.273 277.291 179.36C277.304 179.44 277.291 179.53 277.251 179.63L274.691 185.55C274.638 185.67 274.578 185.753 274.511 185.8C274.451 185.847 274.364 185.87 274.251 185.87Z" fill="#9CA3AF"/>
<path d="M312.439 184.06C312.313 184.067 312.216 184.033 312.149 183.96C312.076 183.887 312.039 183.797 312.039 183.69C312.039 183.61 312.066 183.537 312.119 183.47C312.166 183.403 312.243 183.367 312.349 183.36L312.659 183.34C312.999 183.313 313.259 183.197 313.439 182.99C313.619 182.777 313.709 182.487 313.709 182.12V177.3C313.709 177.16 313.743 177.057 313.809 176.99C313.883 176.917 313.986 176.88 314.119 176.88C314.253 176.88 314.353 176.917 314.419 176.99C314.493 177.057 314.529 177.16 314.529 177.3V182.13C314.529 182.51 314.463 182.84 314.329 183.12C314.196 183.393 313.996 183.607 313.729 183.76C313.469 183.913 313.149 184.003 312.769 184.03L312.439 184.06ZM317.582 184.09C317.188 184.09 316.862 184.02 316.602 183.88C316.348 183.733 316.155 183.517 316.022 183.23C315.895 182.943 315.832 182.587 315.832 182.16V179.48C315.832 179.34 315.865 179.237 315.932 179.17C316.005 179.103 316.105 179.07 316.232 179.07C316.365 179.07 316.465 179.103 316.532 179.17C316.605 179.237 316.642 179.34 316.642 179.48V182.15C316.642 182.577 316.728 182.897 316.902 183.11C317.082 183.317 317.362 183.42 317.742 183.42C318.155 183.42 318.492 183.28 318.752 183C319.012 182.72 319.142 182.353 319.142 181.9V179.48C319.142 179.34 319.175 179.237 319.242 179.17C319.315 179.103 319.418 179.07 319.552 179.07C319.678 179.07 319.775 179.103 319.842 179.17C319.915 179.237 319.952 179.34 319.952 179.48V183.65C319.952 183.93 319.822 184.07 319.562 184.07C319.435 184.07 319.335 184.033 319.262 183.96C319.195 183.887 319.162 183.783 319.162 183.65V182.74L319.292 182.88C319.158 183.273 318.938 183.573 318.632 183.78C318.332 183.987 317.982 184.09 317.582 184.09ZM321.567 184.07C321.434 184.07 321.334 184.033 321.267 183.96C321.2 183.887 321.167 183.783 321.167 183.65V179.48C321.167 179.347 321.2 179.247 321.267 179.18C321.334 179.107 321.43 179.07 321.557 179.07C321.684 179.07 321.78 179.107 321.847 179.18C321.92 179.247 321.957 179.347 321.957 179.48V180.34L321.847 180.22C321.987 179.833 322.214 179.543 322.527 179.35C322.847 179.15 323.214 179.05 323.627 179.05C324.014 179.05 324.334 179.12 324.587 179.26C324.847 179.4 325.04 179.613 325.167 179.9C325.294 180.18 325.357 180.537 325.357 180.97V183.65C325.357 183.783 325.32 183.887 325.247 183.96C325.18 184.033 325.084 184.07 324.957 184.07C324.824 184.07 324.72 184.033 324.647 183.96C324.58 183.887 324.547 183.783 324.547 183.65V181.02C324.547 180.567 324.457 180.237 324.277 180.03C324.104 179.817 323.824 179.71 323.437 179.71C322.99 179.71 322.634 179.85 322.367 180.13C322.107 180.403 321.977 180.77 321.977 181.23V183.65C321.977 183.93 321.84 184.07 321.567 184.07Z" fill="#9CA3AF"/>
<path d="M364.552 184.06C364.425 184.067 364.328 184.033 364.262 183.96C364.188 183.887 364.152 183.797 364.152 183.69C364.152 183.61 364.178 183.537 364.232 183.47C364.278 183.403 364.355 183.367 364.462 183.36L364.772 183.34C365.112 183.313 365.372 183.197 365.552 182.99C365.732 182.777 365.822 182.487 365.822 182.12V177.3C365.822 177.16 365.855 177.057 365.922 176.99C365.995 176.917 366.098 176.88 366.232 176.88C366.365 176.88 366.465 176.917 366.532 176.99C366.605 177.057 366.642 177.16 366.642 177.3V182.13C366.642 182.51 366.575 182.84 366.442 183.12C366.308 183.393 366.108 183.607 365.842 183.76C365.582 183.913 365.262 184.003 364.882 184.03L364.552 184.06ZM369.694 184.09C369.301 184.09 368.974 184.02 368.714 183.88C368.461 183.733 368.267 183.517 368.134 183.23C368.007 182.943 367.944 182.587 367.944 182.16V179.48C367.944 179.34 367.977 179.237 368.044 179.17C368.117 179.103 368.217 179.07 368.344 179.07C368.477 179.07 368.577 179.103 368.644 179.17C368.717 179.237 368.754 179.34 368.754 179.48V182.15C368.754 182.577 368.841 182.897 369.014 183.11C369.194 183.317 369.474 183.42 369.854 183.42C370.267 183.42 370.604 183.28 370.864 183C371.124 182.72 371.254 182.353 371.254 181.9V179.48C371.254 179.34 371.287 179.237 371.354 179.17C371.427 179.103 371.531 179.07 371.664 179.07C371.791 179.07 371.887 179.103 371.954 179.17C372.027 179.237 372.064 179.34 372.064 179.48V183.65C372.064 183.93 371.934 184.07 371.674 184.07C371.547 184.07 371.447 184.033 371.374 183.96C371.307 183.887 371.274 183.783 371.274 183.65V182.74L371.404 182.88C371.271 183.273 371.051 183.573 370.744 183.78C370.444 183.987 370.094 184.09 369.694 184.09ZM374.759 184.09C374.279 184.09 373.913 183.943 373.659 183.65C373.406 183.357 373.279 182.937 373.279 182.39V177.29C373.279 177.157 373.313 177.057 373.379 176.99C373.446 176.917 373.546 176.88 373.679 176.88C373.806 176.88 373.906 176.917 373.979 176.99C374.053 177.057 374.089 177.157 374.089 177.29V182.33C374.089 182.69 374.159 182.96 374.299 183.14C374.446 183.313 374.659 183.4 374.939 183.4C374.999 183.4 375.053 183.397 375.099 183.39C375.146 183.383 375.193 183.38 375.239 183.38C375.313 183.373 375.363 183.39 375.389 183.43C375.423 183.47 375.439 183.55 375.439 183.67C375.439 183.79 375.413 183.88 375.359 183.94C375.306 184 375.219 184.04 375.099 184.06C375.046 184.067 374.989 184.073 374.929 184.08C374.869 184.087 374.813 184.09 374.759 184.09Z" fill="#9CA3AF"/>
<path d="M412.27 184.07C412.163 184.07 412.077 184.047 412.01 184C411.95 183.947 411.913 183.88 411.9 183.8C411.893 183.713 411.913 183.617 411.96 183.51L414.71 177.25C414.77 177.117 414.84 177.023 414.92 176.97C415.007 176.91 415.1 176.88 415.2 176.88C415.3 176.88 415.39 176.91 415.47 176.97C415.557 177.023 415.627 177.117 415.68 177.25L418.44 183.51C418.493 183.617 418.513 183.713 418.5 183.8C418.493 183.887 418.46 183.953 418.4 184C418.34 184.047 418.257 184.07 418.15 184.07C418.03 184.07 417.933 184.04 417.86 183.98C417.787 183.913 417.727 183.82 417.68 183.7L416.94 181.99L417.34 182.2H413.04L413.45 181.99L412.72 183.7C412.66 183.827 412.597 183.92 412.53 183.98C412.463 184.04 412.377 184.07 412.27 184.07ZM415.19 177.91L413.58 181.7L413.34 181.51H417.04L416.82 181.7L415.21 177.91H415.19ZM421.015 184.09C420.622 184.09 420.295 184.02 420.035 183.88C419.782 183.733 419.588 183.517 419.455 183.23C419.328 182.943 419.265 182.587 419.265 182.16V179.48C419.265 179.34 419.298 179.237 419.365 179.17C419.438 179.103 419.538 179.07 419.665 179.07C419.798 179.07 419.898 179.103 419.965 179.17C420.038 179.237 420.075 179.34 420.075 179.48V182.15C420.075 182.577 420.162 182.897 420.335 183.11C420.515 183.317 420.795 183.42 421.175 183.42C421.588 183.42 421.925 183.28 422.185 183C422.445 182.72 422.575 182.353 422.575 181.9V179.48C422.575 179.34 422.608 179.237 422.675 179.17C422.748 179.103 422.852 179.07 422.985 179.07C423.112 179.07 423.208 179.103 423.275 179.17C423.348 179.237 423.385 179.34 423.385 179.48V183.65C423.385 183.93 423.255 184.07 422.995 184.07C422.868 184.07 422.768 184.033 422.695 183.96C422.628 183.887 422.595 183.783 422.595 183.65V182.74L422.725 182.88C422.592 183.273 422.372 183.573 422.065 183.78C421.765 183.987 421.415 184.09 421.015 184.09ZM426.751 185.89C426.397 185.89 426.051 185.847 425.711 185.76C425.377 185.68 425.074 185.55 424.801 185.37C424.721 185.323 424.667 185.267 424.641 185.2C424.621 185.133 424.617 185.067 424.631 185C424.644 184.94 424.674 184.883 424.721 184.83C424.767 184.783 424.821 184.753 424.881 184.74C424.947 184.727 425.014 184.737 425.081 184.77C425.374 184.95 425.654 185.073 425.921 185.14C426.187 185.207 426.451 185.24 426.711 185.24C427.184 185.24 427.541 185.113 427.781 184.86C428.027 184.607 428.151 184.24 428.151 183.76V182.63H428.251C428.151 183.017 427.937 183.323 427.611 183.55C427.291 183.777 426.914 183.89 426.481 183.89C426.034 183.89 425.647 183.79 425.321 183.59C424.994 183.383 424.741 183.097 424.561 182.73C424.387 182.363 424.301 181.94 424.301 181.46C424.301 181.1 424.351 180.773 424.451 180.48C424.551 180.18 424.694 179.927 424.881 179.72C425.074 179.507 425.304 179.343 425.571 179.23C425.844 179.11 426.147 179.05 426.481 179.05C426.921 179.05 427.301 179.163 427.621 179.39C427.941 179.61 428.147 179.91 428.241 180.29L428.141 180.41V179.48C428.141 179.347 428.174 179.247 428.241 179.18C428.314 179.107 428.414 179.07 428.541 179.07C428.674 179.07 428.774 179.107 428.841 179.18C428.907 179.247 428.941 179.347 428.941 179.48V183.65C428.941 184.39 428.754 184.947 428.381 185.32C428.014 185.7 427.471 185.89 426.751 185.89ZM426.631 183.23C426.944 183.23 427.214 183.16 427.441 183.02C427.667 182.873 427.841 182.667 427.961 182.4C428.087 182.133 428.151 181.82 428.151 181.46C428.151 180.92 428.014 180.493 427.741 180.18C427.467 179.86 427.097 179.7 426.631 179.7C426.324 179.7 426.057 179.773 425.831 179.92C425.604 180.06 425.427 180.263 425.301 180.53C425.181 180.79 425.121 181.1 425.121 181.46C425.121 182 425.257 182.43 425.531 182.75C425.804 183.07 426.171 183.23 426.631 183.23Z" fill="#9CA3AF"/>
<path d="M466.173 184.09C465.859 184.09 465.553 184.063 465.253 184.01C464.953 183.957 464.673 183.88 464.413 183.78C464.159 183.68 463.929 183.553 463.723 183.4C463.643 183.34 463.586 183.273 463.553 183.2C463.526 183.12 463.519 183.043 463.533 182.97C463.553 182.89 463.586 182.823 463.633 182.77C463.686 182.717 463.749 182.687 463.823 182.68C463.896 182.673 463.976 182.697 464.063 182.75C464.363 182.963 464.683 183.12 465.023 183.22C465.363 183.313 465.746 183.36 466.173 183.36C466.773 183.36 467.216 183.25 467.503 183.03C467.796 182.803 467.943 182.507 467.943 182.14C467.943 181.84 467.836 181.607 467.623 181.44C467.416 181.267 467.066 181.13 466.573 181.03L465.533 180.82C464.906 180.687 464.436 180.47 464.123 180.17C463.816 179.863 463.663 179.457 463.663 178.95C463.663 178.637 463.726 178.353 463.853 178.1C463.979 177.84 464.156 177.62 464.383 177.44C464.609 177.253 464.879 177.11 465.193 177.01C465.506 176.91 465.853 176.86 466.233 176.86C466.653 176.86 467.043 176.92 467.403 177.04C467.769 177.153 468.099 177.327 468.393 177.56C468.466 177.62 468.516 177.69 468.543 177.77C468.569 177.843 468.573 177.917 468.553 177.99C468.533 178.057 468.496 178.113 468.443 178.16C468.396 178.207 468.333 178.233 468.253 178.24C468.179 178.247 468.096 178.22 468.003 178.16C467.736 177.96 467.459 177.817 467.173 177.73C466.886 177.637 466.569 177.59 466.223 177.59C465.869 177.59 465.563 177.643 465.303 177.75C465.049 177.857 464.849 178.013 464.703 178.22C464.563 178.42 464.493 178.653 464.493 178.92C464.493 179.24 464.589 179.493 464.783 179.68C464.983 179.867 465.306 180.003 465.753 180.09L466.793 180.31C467.466 180.45 467.963 180.663 468.283 180.95C468.609 181.23 468.773 181.613 468.773 182.1C468.773 182.393 468.713 182.663 468.593 182.91C468.473 183.157 468.299 183.37 468.073 183.55C467.846 183.723 467.573 183.857 467.253 183.95C466.933 184.043 466.573 184.09 466.173 184.09ZM471.825 184.09C471.312 184.09 470.868 183.99 470.495 183.79C470.128 183.583 469.842 183.293 469.635 182.92C469.435 182.547 469.335 182.1 469.335 181.58C469.335 181.073 469.435 180.633 469.635 180.26C469.835 179.88 470.108 179.583 470.455 179.37C470.808 179.157 471.215 179.05 471.675 179.05C472.002 179.05 472.295 179.107 472.555 179.22C472.815 179.327 473.035 179.483 473.215 179.69C473.402 179.897 473.542 180.147 473.635 180.44C473.735 180.733 473.785 181.063 473.785 181.43C473.785 181.537 473.755 181.617 473.695 181.67C473.635 181.717 473.548 181.74 473.435 181.74H469.955V181.21H473.245L473.085 181.34C473.085 180.98 473.032 180.677 472.925 180.43C472.818 180.177 472.662 179.983 472.455 179.85C472.255 179.717 472.002 179.65 471.695 179.65C471.355 179.65 471.065 179.73 470.825 179.89C470.592 180.043 470.415 180.26 470.295 180.54C470.175 180.813 470.115 181.133 470.115 181.5V181.56C470.115 182.173 470.262 182.64 470.555 182.96C470.855 183.28 471.278 183.44 471.825 183.44C472.052 183.44 472.275 183.41 472.495 183.35C472.722 183.29 472.942 183.19 473.155 183.05C473.248 182.99 473.332 182.963 473.405 182.97C473.485 182.97 473.548 182.993 473.595 183.04C473.642 183.08 473.672 183.133 473.685 183.2C473.705 183.26 473.698 183.327 473.665 183.4C473.638 183.473 473.582 183.537 473.495 183.59C473.275 183.75 473.015 183.873 472.715 183.96C472.415 184.047 472.118 184.09 471.825 184.09ZM475.057 185.87C474.924 185.87 474.824 185.833 474.757 185.76C474.691 185.693 474.657 185.593 474.657 185.46V179.48C474.657 179.347 474.691 179.247 474.757 179.18C474.824 179.107 474.921 179.07 475.047 179.07C475.181 179.07 475.281 179.107 475.347 179.18C475.421 179.247 475.457 179.347 475.457 179.48V180.43L475.347 180.29C475.454 179.91 475.664 179.61 475.977 179.39C476.297 179.163 476.677 179.05 477.117 179.05C477.551 179.05 477.927 179.153 478.247 179.36C478.574 179.56 478.824 179.85 478.997 180.23C479.177 180.603 479.267 181.05 479.267 181.57C479.267 182.083 479.177 182.53 478.997 182.91C478.824 183.283 478.577 183.573 478.257 183.78C477.937 183.987 477.557 184.09 477.117 184.09C476.677 184.09 476.301 183.98 475.987 183.76C475.674 183.533 475.461 183.233 475.347 182.86H475.467V185.46C475.467 185.593 475.431 185.693 475.357 185.76C475.284 185.833 475.184 185.87 475.057 185.87ZM476.947 183.44C477.254 183.44 477.517 183.367 477.737 183.22C477.964 183.073 478.137 182.86 478.257 182.58C478.384 182.3 478.447 181.963 478.447 181.57C478.447 180.963 478.311 180.5 478.037 180.18C477.771 179.86 477.407 179.7 476.947 179.7C476.647 179.7 476.384 179.773 476.157 179.92C475.931 180.06 475.754 180.27 475.627 180.55C475.507 180.823 475.447 181.163 475.447 181.57C475.447 182.17 475.584 182.633 475.857 182.96C476.131 183.28 476.494 183.44 476.947 183.44Z" fill="#9CA3AF"/>
<path d="M518.359 184.09C517.706 184.09 517.136 183.943 516.649 183.65C516.169 183.35 515.796 182.93 515.529 182.39C515.269 181.85 515.139 181.21 515.139 180.47C515.139 179.91 515.213 179.41 515.359 178.97C515.513 178.523 515.729 178.147 516.009 177.84C516.289 177.527 516.626 177.287 517.019 177.12C517.419 176.947 517.866 176.86 518.359 176.86C519.026 176.86 519.599 177.007 520.079 177.3C520.566 177.593 520.939 178.01 521.199 178.55C521.466 179.083 521.599 179.72 521.599 180.46C521.599 181.02 521.523 181.523 521.369 181.97C521.216 182.417 520.999 182.797 520.719 183.11C520.439 183.423 520.099 183.667 519.699 183.84C519.306 184.007 518.859 184.09 518.359 184.09ZM518.359 183.36C518.866 183.36 519.293 183.247 519.639 183.02C519.993 182.793 520.263 182.463 520.449 182.03C520.636 181.597 520.729 181.077 520.729 180.47C520.729 179.557 520.523 178.85 520.109 178.35C519.703 177.843 519.119 177.59 518.359 177.59C517.866 177.59 517.443 177.703 517.089 177.93C516.743 178.157 516.476 178.487 516.289 178.92C516.103 179.347 516.009 179.863 516.009 180.47C516.009 181.377 516.216 182.087 516.629 182.6C517.043 183.107 517.619 183.36 518.359 183.36ZM524.716 184.09C524.229 184.09 523.809 183.983 523.456 183.77C523.102 183.557 522.829 183.26 522.636 182.88C522.449 182.493 522.356 182.047 522.356 181.54C522.356 181.153 522.409 180.807 522.516 180.5C522.622 180.193 522.779 179.933 522.986 179.72C523.192 179.5 523.439 179.333 523.726 179.22C524.019 179.107 524.349 179.05 524.716 179.05C524.956 179.05 525.206 179.087 525.466 179.16C525.726 179.233 525.962 179.36 526.176 179.54C526.242 179.587 526.286 179.643 526.306 179.71C526.326 179.777 526.326 179.843 526.306 179.91C526.286 179.97 526.252 180.023 526.206 180.07C526.159 180.11 526.099 180.133 526.026 180.14C525.959 180.147 525.889 180.123 525.816 180.07C525.642 179.937 525.466 179.843 525.286 179.79C525.106 179.737 524.932 179.71 524.766 179.71C524.506 179.71 524.279 179.753 524.086 179.84C523.892 179.92 523.729 180.037 523.596 180.19C523.462 180.343 523.359 180.533 523.286 180.76C523.219 180.987 523.186 181.25 523.186 181.55C523.186 182.13 523.322 182.59 523.596 182.93C523.869 183.263 524.259 183.43 524.766 183.43C524.932 183.43 525.102 183.403 525.276 183.35C525.456 183.297 525.636 183.203 525.816 183.07C525.889 183.017 525.959 182.993 526.026 183C526.092 183.007 526.149 183.033 526.196 183.08C526.242 183.12 526.272 183.173 526.286 183.24C526.306 183.307 526.306 183.373 526.286 183.44C526.266 183.5 526.222 183.553 526.156 183.6C525.942 183.773 525.709 183.9 525.456 183.98C525.202 184.053 524.956 184.09 524.716 184.09ZM528.934 184.09C528.554 184.09 528.234 184.023 527.974 183.89C527.721 183.75 527.531 183.55 527.404 183.29C527.278 183.023 527.214 182.7 527.214 182.32V179.77H526.544C526.431 179.77 526.344 179.743 526.284 179.69C526.224 179.63 526.194 179.55 526.194 179.45C526.194 179.35 526.224 179.273 526.284 179.22C526.344 179.167 526.431 179.14 526.544 179.14H527.214V177.99C527.214 177.857 527.251 177.757 527.324 177.69C527.398 177.617 527.498 177.58 527.624 177.58C527.751 177.58 527.848 177.617 527.914 177.69C527.988 177.757 528.024 177.857 528.024 177.99V179.14H529.284C529.398 179.14 529.484 179.167 529.544 179.22C529.604 179.273 529.634 179.35 529.634 179.45C529.634 179.55 529.604 179.63 529.544 179.69C529.484 179.743 529.398 179.77 529.284 179.77H528.024V182.24C528.024 182.62 528.104 182.91 528.264 183.11C528.424 183.303 528.684 183.4 529.044 183.4C529.171 183.4 529.278 183.387 529.364 183.36C529.458 183.333 529.534 183.32 529.594 183.32C529.654 183.313 529.704 183.333 529.744 183.38C529.784 183.427 529.804 183.507 529.804 183.62C529.804 183.7 529.788 183.773 529.754 183.84C529.728 183.907 529.678 183.953 529.604 183.98C529.524 184.007 529.418 184.03 529.284 184.05C529.158 184.077 529.041 184.09 528.934 184.09Z" fill="#9CA3AF"/>
<path d="M565.416 184.07C565.29 184.07 565.193 184.037 565.126 183.97C565.06 183.897 565.026 183.793 565.026 183.66V177.3C565.026 177.167 565.06 177.063 565.126 176.99C565.193 176.917 565.28 176.88 565.386 176.88C565.493 176.88 565.57 176.9 565.616 176.94C565.67 176.973 565.73 177.037 565.796 177.13L570.156 182.94H569.916V177.28C569.916 177.153 569.95 177.057 570.016 176.99C570.083 176.917 570.18 176.88 570.306 176.88C570.426 176.88 570.516 176.917 570.576 176.99C570.643 177.057 570.676 177.153 570.676 177.28V183.67C570.676 183.797 570.646 183.897 570.586 183.97C570.533 184.037 570.453 184.07 570.346 184.07C570.246 184.07 570.166 184.05 570.106 184.01C570.046 183.97 569.983 183.907 569.916 183.82L565.566 178.01H565.796V183.66C565.796 183.793 565.763 183.897 565.696 183.97C565.63 184.037 565.536 184.07 565.416 184.07ZM574.039 184.09C573.565 184.09 573.155 183.987 572.809 183.78C572.462 183.573 572.192 183.283 571.999 182.91C571.812 182.53 571.719 182.083 571.719 181.57C571.719 181.183 571.772 180.837 571.879 180.53C571.985 180.217 572.142 179.95 572.349 179.73C572.555 179.51 572.799 179.343 573.079 179.23C573.365 179.11 573.685 179.05 574.039 179.05C574.512 179.05 574.922 179.153 575.269 179.36C575.615 179.567 575.882 179.86 576.069 180.24C576.262 180.613 576.359 181.057 576.359 181.57C576.359 181.957 576.305 182.303 576.199 182.61C576.092 182.917 575.935 183.183 575.729 183.41C575.522 183.63 575.275 183.8 574.989 183.92C574.709 184.033 574.392 184.09 574.039 184.09ZM574.039 183.44C574.339 183.44 574.602 183.367 574.829 183.22C575.055 183.073 575.229 182.86 575.349 182.58C575.475 182.3 575.539 181.963 575.539 181.57C575.539 180.963 575.402 180.5 575.129 180.18C574.862 179.86 574.499 179.7 574.039 179.7C573.732 179.7 573.465 179.773 573.239 179.92C573.019 180.06 572.845 180.27 572.719 180.55C572.599 180.823 572.539 181.163 572.539 181.57C572.539 182.17 572.675 182.633 572.949 182.96C573.222 183.28 573.585 183.44 574.039 183.44ZM579.017 184.07C578.904 184.07 578.804 184.04 578.717 183.98C578.63 183.913 578.557 183.813 578.497 183.68L576.767 179.64C576.72 179.54 576.704 179.447 576.717 179.36C576.73 179.273 576.77 179.203 576.837 179.15C576.904 179.097 576.997 179.07 577.117 179.07C577.224 179.07 577.307 179.093 577.367 179.14C577.427 179.187 577.48 179.27 577.527 179.39L579.167 183.4H578.897L580.567 179.39C580.614 179.27 580.667 179.187 580.727 179.14C580.787 179.093 580.874 179.07 580.987 179.07C581.094 179.07 581.174 179.097 581.227 179.15C581.287 179.203 581.32 179.273 581.327 179.36C581.34 179.44 581.327 179.53 581.287 179.63L579.537 183.68C579.49 183.813 579.42 183.913 579.327 183.98C579.24 184.04 579.137 184.07 579.017 184.07Z" fill="#9CA3AF"/>
<path d="M616.466 184C616.319 184 616.206 183.963 616.126 183.89C616.052 183.81 616.016 183.697 616.016 183.55V177.4C616.016 177.253 616.052 177.143 616.126 177.07C616.206 176.99 616.319 176.95 616.466 176.95H618.396C619.536 176.95 620.416 177.25 621.036 177.85C621.656 178.45 621.966 179.323 621.966 180.47C621.966 181.043 621.886 181.55 621.726 181.99C621.572 182.423 621.342 182.79 621.036 183.09C620.729 183.39 620.356 183.617 619.916 183.77C619.476 183.923 618.969 184 618.396 184H616.466ZM616.836 183.3H618.336C618.802 183.3 619.206 183.24 619.546 183.12C619.892 183 620.179 182.823 620.406 182.59C620.639 182.357 620.812 182.063 620.926 181.71C621.039 181.35 621.096 180.937 621.096 180.47C621.096 179.53 620.866 178.827 620.406 178.36C619.946 177.887 619.256 177.65 618.336 177.65H616.836V183.3ZM625.218 184.09C624.704 184.09 624.261 183.99 623.888 183.79C623.521 183.583 623.234 183.293 623.028 182.92C622.828 182.547 622.728 182.1 622.728 181.58C622.728 181.073 622.828 180.633 623.028 180.26C623.228 179.88 623.501 179.583 623.848 179.37C624.201 179.157 624.608 179.05 625.068 179.05C625.394 179.05 625.688 179.107 625.948 179.22C626.208 179.327 626.428 179.483 626.608 179.69C626.794 179.897 626.934 180.147 627.028 180.44C627.128 180.733 627.178 181.063 627.178 181.43C627.178 181.537 627.148 181.617 627.088 181.67C627.028 181.717 626.941 181.74 626.828 181.74H623.348V181.21H626.638L626.478 181.34C626.478 180.98 626.424 180.677 626.318 180.43C626.211 180.177 626.054 179.983 625.848 179.85C625.648 179.717 625.394 179.65 625.088 179.65C624.748 179.65 624.458 179.73 624.218 179.89C623.984 180.043 623.808 180.26 623.688 180.54C623.568 180.813 623.508 181.133 623.508 181.5V181.56C623.508 182.173 623.654 182.64 623.948 182.96C624.248 183.28 624.671 183.44 625.218 183.44C625.444 183.44 625.668 183.41 625.888 183.35C626.114 183.29 626.334 183.19 626.548 183.05C626.641 182.99 626.724 182.963 626.798 182.97C626.878 182.97 626.941 182.993 626.988 183.04C627.034 183.08 627.064 183.133 627.078 183.2C627.098 183.26 627.091 183.327 627.058 183.4C627.031 183.473 626.974 183.537 626.888 183.59C626.668 183.75 626.408 183.873 626.108 183.96C625.808 184.047 625.511 184.09 625.218 184.09ZM629.69 184.09C629.39 184.09 629.087 184.053 628.78 183.98C628.48 183.907 628.2 183.78 627.94 183.6C627.873 183.553 627.827 183.5 627.8 183.44C627.773 183.373 627.763 183.31 627.77 183.25C627.783 183.183 627.81 183.127 627.85 183.08C627.897 183.033 627.95 183.007 628.01 183C628.077 182.987 628.15 183 628.23 183.04C628.49 183.2 628.74 183.313 628.98 183.38C629.227 183.44 629.47 183.47 629.71 183.47C630.09 183.47 630.377 183.4 630.57 183.26C630.763 183.12 630.86 182.93 630.86 182.69C630.86 182.503 630.797 182.357 630.67 182.25C630.543 182.137 630.343 182.05 630.07 181.99L629.16 181.79C628.74 181.703 628.427 181.553 628.22 181.34C628.02 181.127 627.92 180.85 627.92 180.51C627.92 180.21 627.997 179.953 628.15 179.74C628.31 179.52 628.533 179.35 628.82 179.23C629.107 179.11 629.44 179.05 629.82 179.05C630.113 179.05 630.39 179.09 630.65 179.17C630.917 179.243 631.157 179.363 631.37 179.53C631.437 179.577 631.48 179.633 631.5 179.7C631.527 179.76 631.53 179.823 631.51 179.89C631.497 179.95 631.467 180.003 631.42 180.05C631.373 180.09 631.317 180.113 631.25 180.12C631.183 180.127 631.113 180.107 631.04 180.06C630.84 179.927 630.637 179.83 630.43 179.77C630.223 179.703 630.02 179.67 629.82 179.67C629.447 179.67 629.163 179.743 628.97 179.89C628.777 180.037 628.68 180.23 628.68 180.47C628.68 180.657 628.74 180.81 628.86 180.93C628.98 181.05 629.167 181.137 629.42 181.19L630.33 181.38C630.763 181.473 631.087 181.623 631.3 181.83C631.52 182.03 631.63 182.303 631.63 182.65C631.63 183.09 631.453 183.44 631.1 183.7C630.747 183.96 630.277 184.09 629.69 184.09Z" fill="#9CA3AF"/>
</svg>
