<svg width="24" height="24" viewBox="0 0 24 24" fill="none" xmlns="http://www.w3.org/2000/svg">
<rect x="0.5" y="0.5" width="23" height="23" rx="7.5" fill="white"/>
<rect x="0.5" y="0.5" width="23" height="23" rx="7.5" stroke="#E2E8F0"/>
<path d="M12.0586 7.21333C13.0413 6.73025 14.1278 6.49664 15.2222 6.53315C16.3165 6.56966 17.385 6.87516 18.3333 7.42267C18.4231 7.47451 18.4996 7.54657 18.5566 7.63314C18.6137 7.7197 18.6497 7.81838 18.662 7.92133L18.6666 8V16.6667C18.6666 16.7837 18.6358 16.8986 18.5773 17C18.5188 17.1013 18.4347 17.1855 18.3333 17.244C18.232 17.3025 18.117 17.3333 18 17.3333C17.883 17.3333 17.768 17.3025 17.6666 17.244C16.8559 16.7759 15.9362 16.5295 15 16.5295C14.0638 16.5295 13.1441 16.7759 12.3333 17.244C12.232 17.3025 12.117 17.3333 12 17.3333C11.883 17.3333 11.768 17.3025 11.6666 17.244C10.8858 16.7931 10.0033 16.5475 9.1017 16.5302C8.20012 16.513 7.30889 16.7246 6.51131 17.1453L6.29331 17.2653L6.22465 17.2947L6.19198 17.3053L6.11865 17.3227L6.07798 17.3293L5.99998 17.3333H5.97198L5.89865 17.3253L5.84731 17.316L5.77531 17.2947L5.69131 17.2573L5.62798 17.22L5.56865 17.1753L5.52865 17.138L5.47998 17.0833L5.43731 17.024L5.42265 17L5.40131 16.96L5.37198 16.8913L5.36131 16.8587L5.34398 16.7853L5.33731 16.7447L5.33465 16.712L5.33331 16.6667V8C5.33332 7.88298 5.36412 7.76802 5.42263 7.66668C5.48115 7.56533 5.5653 7.48118 5.66665 7.42267C6.61491 6.87516 7.68343 6.56966 8.7778 6.53315C9.87216 6.49664 10.9587 6.73025 11.9413 7.21333L12 7.24267L12.0586 7.21333Z" fill="#2563EB"/>
</svg>
