<svg width="831" height="14" viewBox="0 0 831 14" fill="none" xmlns="http://www.w3.org/2000/svg">
<rect width="34" height="14" fill="white"/>
<path d="M66.6741 10.06C66.5474 10.0667 66.4507 10.0333 66.3841 9.96C66.3107 9.88667 66.2741 9.79667 66.2741 9.69C66.2741 9.61 66.3007 9.53667 66.3541 9.47C66.4007 9.40333 66.4774 9.36667 66.5841 9.36L66.8941 9.34C67.2341 9.31333 67.4941 9.19667 67.6741 8.99C67.8541 8.77667 67.9441 8.48667 67.9441 8.12V3.3C67.9441 3.16 67.9774 3.05667 68.0441 2.99C68.1174 2.91667 68.2207 2.88 68.3541 2.88C68.4874 2.88 68.5874 2.91667 68.6541 2.99C68.7274 3.05667 68.7641 3.16 68.7641 3.3V8.13C68.7641 8.51 68.6974 8.84 68.5641 9.12C68.4307 9.39333 68.2307 9.60667 67.9641 9.76C67.7041 9.91333 67.3841 10.0033 67.0041 10.03L66.6741 10.06ZM71.6263 10.09C71.2929 10.09 70.9929 10.0267 70.7263 9.9C70.4663 9.76667 70.2596 9.58667 70.1063 9.36C69.9529 9.13333 69.8763 8.88 69.8763 8.6C69.8763 8.24 69.9663 7.95667 70.1463 7.75C70.3329 7.54333 70.6363 7.39667 71.0563 7.31C71.4829 7.22333 72.0629 7.18 72.7963 7.18H73.2463V7.71H72.8063C72.2663 7.71 71.8396 7.73667 71.5263 7.79C71.2196 7.83667 71.0029 7.92 70.8763 8.04C70.7563 8.16 70.6963 8.33 70.6963 8.55C70.6963 8.82333 70.7896 9.04667 70.9763 9.22C71.1696 9.39333 71.4296 9.48 71.7563 9.48C72.0229 9.48 72.2563 9.41667 72.4563 9.29C72.6629 9.16333 72.8229 8.99 72.9363 8.77C73.0563 8.55 73.1163 8.29667 73.1163 8.01V6.87C73.1163 6.45667 73.0329 6.16 72.8663 5.98C72.6996 5.79333 72.4263 5.7 72.0463 5.7C71.8129 5.7 71.5796 5.73 71.3463 5.79C71.1129 5.85 70.8663 5.94667 70.6063 6.08C70.5129 6.12667 70.4329 6.14333 70.3663 6.13C70.2996 6.11 70.2463 6.07333 70.2063 6.02C70.1663 5.96667 70.1429 5.90667 70.1363 5.84C70.1296 5.76667 70.1429 5.69667 70.1763 5.63C70.2163 5.56333 70.2763 5.51 70.3563 5.47C70.6496 5.32333 70.9396 5.21667 71.2263 5.15C71.5129 5.08333 71.7863 5.05 72.0463 5.05C72.4663 5.05 72.8129 5.12 73.0863 5.26C73.3596 5.39333 73.5629 5.6 73.6963 5.88C73.8296 6.15333 73.8963 6.50667 73.8963 6.94V9.65C73.8963 9.78333 73.8629 9.88667 73.7963 9.96C73.7363 10.0333 73.6463 10.07 73.5263 10.07C73.3996 10.07 73.3029 10.0333 73.2363 9.96C73.1696 9.88667 73.1363 9.78333 73.1363 9.65V8.87H73.2263C73.1729 9.12333 73.0696 9.34 72.9163 9.52C72.7696 9.7 72.5863 9.84 72.3663 9.94C72.1463 10.04 71.8996 10.09 71.6263 10.09ZM75.499 10.07C75.3657 10.07 75.2657 10.0333 75.199 9.96C75.1323 9.88667 75.099 9.78333 75.099 9.65V5.48C75.099 5.34667 75.1323 5.24667 75.199 5.18C75.2657 5.10667 75.3623 5.07 75.489 5.07C75.6157 5.07 75.7123 5.10667 75.779 5.18C75.8523 5.24667 75.889 5.34667 75.889 5.48V6.34L75.779 6.22C75.919 5.83333 76.1457 5.54333 76.459 5.35C76.779 5.15 77.1457 5.05 77.559 5.05C77.9457 5.05 78.2657 5.12 78.519 5.26C78.779 5.4 78.9723 5.61333 79.099 5.9C79.2257 6.18 79.289 6.53667 79.289 6.97V9.65C79.289 9.78333 79.2523 9.88667 79.179 9.96C79.1123 10.0333 79.0157 10.07 78.889 10.07C78.7557 10.07 78.6523 10.0333 78.579 9.96C78.5123 9.88667 78.479 9.78333 78.479 9.65V7.02C78.479 6.56667 78.389 6.23667 78.209 6.03C78.0357 5.81667 77.7557 5.71 77.369 5.71C76.9223 5.71 76.5657 5.85 76.299 6.13C76.039 6.40333 75.909 6.77 75.909 7.23V9.65C75.909 9.93 75.7723 10.07 75.499 10.07Z" fill="#9CA3AF"/>
<path d="M133.012 10.07C132.872 10.07 132.762 10.0333 132.682 9.96C132.609 9.88 132.572 9.76667 132.572 9.62V3.4C132.572 3.25333 132.609 3.14333 132.682 3.07C132.762 2.99 132.876 2.95 133.022 2.95H136.652C136.766 2.95 136.852 2.98 136.912 3.04C136.972 3.1 137.002 3.18333 137.002 3.29C137.002 3.40333 136.972 3.49 136.912 3.55C136.852 3.61 136.766 3.64 136.652 3.64H133.392V6.1H136.442C136.556 6.1 136.642 6.13 136.702 6.19C136.769 6.25 136.802 6.33333 136.802 6.44C136.802 6.55333 136.769 6.64 136.702 6.7C136.642 6.76 136.556 6.79 136.442 6.79H133.392V9.62C133.392 9.92 133.266 10.07 133.012 10.07ZM139.645 10.09C139.132 10.09 138.689 9.99 138.315 9.79C137.949 9.58333 137.662 9.29333 137.455 8.92C137.255 8.54667 137.155 8.1 137.155 7.58C137.155 7.07333 137.255 6.63333 137.455 6.26C137.655 5.88 137.929 5.58333 138.275 5.37C138.629 5.15667 139.035 5.05 139.495 5.05C139.822 5.05 140.115 5.10667 140.375 5.22C140.635 5.32667 140.855 5.48333 141.035 5.69C141.222 5.89667 141.362 6.14667 141.455 6.44C141.555 6.73333 141.605 7.06333 141.605 7.43C141.605 7.53667 141.575 7.61667 141.515 7.67C141.455 7.71667 141.369 7.74 141.255 7.74H137.775V7.21H141.065L140.905 7.34C140.905 6.98 140.852 6.67667 140.745 6.43C140.639 6.17667 140.482 5.98333 140.275 5.85C140.075 5.71667 139.822 5.65 139.515 5.65C139.175 5.65 138.885 5.73 138.645 5.89C138.412 6.04333 138.235 6.26 138.115 6.54C137.995 6.81333 137.935 7.13333 137.935 7.5V7.56C137.935 8.17333 138.082 8.64 138.375 8.96C138.675 9.28 139.099 9.44 139.645 9.44C139.872 9.44 140.095 9.41 140.315 9.35C140.542 9.29 140.762 9.19 140.975 9.05C141.069 8.99 141.152 8.96333 141.225 8.97C141.305 8.97 141.369 8.99333 141.415 9.04C141.462 9.08 141.492 9.13333 141.505 9.2C141.525 9.26 141.519 9.32667 141.485 9.4C141.459 9.47333 141.402 9.53667 141.315 9.59C141.095 9.75 140.835 9.87333 140.535 9.96C140.235 10.0467 139.939 10.09 139.645 10.09ZM144.938 10.09C144.498 10.09 144.118 9.97667 143.798 9.75C143.484 9.52333 143.274 9.22 143.168 8.84L143.278 8.73V9.65C143.278 9.78333 143.241 9.88667 143.168 9.96C143.101 10.0333 143.004 10.07 142.878 10.07C142.744 10.07 142.644 10.0333 142.578 9.96C142.511 9.88667 142.478 9.78333 142.478 9.65V3.29C142.478 3.15667 142.511 3.05667 142.578 2.99C142.644 2.91667 142.744 2.88 142.878 2.88C143.004 2.88 143.104 2.91667 143.178 2.99C143.251 3.05667 143.288 3.15667 143.288 3.29V6.27H143.168C143.281 5.89667 143.494 5.6 143.808 5.38C144.121 5.16 144.498 5.05 144.938 5.05C145.378 5.05 145.758 5.15333 146.078 5.36C146.398 5.56 146.644 5.85 146.818 6.23C146.998 6.60333 147.088 7.05 147.088 7.57C147.088 8.08333 146.998 8.53 146.818 8.91C146.644 9.28333 146.394 9.57333 146.068 9.78C145.748 9.98667 145.371 10.09 144.938 10.09ZM144.768 9.44C145.074 9.44 145.338 9.36667 145.558 9.22C145.784 9.07333 145.958 8.86 146.078 8.58C146.204 8.3 146.268 7.96333 146.268 7.57C146.268 6.96333 146.131 6.5 145.858 6.18C145.591 5.86 145.228 5.7 144.768 5.7C144.468 5.7 144.204 5.77333 143.978 5.92C143.751 6.06 143.574 6.27 143.448 6.55C143.328 6.82333 143.268 7.16333 143.268 7.57C143.268 8.17 143.404 8.63333 143.678 8.96C143.951 9.28 144.314 9.44 144.768 9.44Z" fill="#9CA3AF"/>
<path d="M198.891 10.07C198.771 10.07 198.678 10.0367 198.611 9.97C198.544 9.89667 198.511 9.79667 198.511 9.67V3.28C198.511 3.14667 198.544 3.04667 198.611 2.98C198.678 2.91333 198.771 2.88 198.891 2.88C198.998 2.88 199.081 2.90333 199.141 2.95C199.208 2.99 199.268 3.06 199.321 3.16L202.061 8.32H201.761L204.491 3.16C204.544 3.06 204.601 2.99 204.661 2.95C204.721 2.90333 204.808 2.88 204.921 2.88C205.034 2.88 205.124 2.91333 205.191 2.98C205.258 3.04667 205.291 3.14667 205.291 3.28V9.67C205.291 9.79667 205.258 9.89667 205.191 9.97C205.131 10.0367 205.038 10.07 204.911 10.07C204.791 10.07 204.698 10.0367 204.631 9.97C204.564 9.89667 204.531 9.79667 204.531 9.67V4.05H204.771L202.271 8.74C202.224 8.82667 202.174 8.89 202.121 8.93C202.074 8.96333 202.004 8.98 201.911 8.98C201.818 8.98 201.744 8.96 201.691 8.92C201.638 8.88 201.591 8.82 201.551 8.74L199.021 4.04H199.261V9.67C199.261 9.79667 199.228 9.89667 199.161 9.97C199.101 10.0367 199.011 10.07 198.891 10.07ZM208.166 10.09C207.832 10.09 207.532 10.0267 207.266 9.9C207.006 9.76667 206.799 9.58667 206.646 9.36C206.492 9.13333 206.416 8.88 206.416 8.6C206.416 8.24 206.506 7.95667 206.686 7.75C206.872 7.54333 207.176 7.39667 207.596 7.31C208.022 7.22333 208.602 7.18 209.336 7.18H209.786V7.71H209.346C208.806 7.71 208.379 7.73667 208.066 7.79C207.759 7.83667 207.542 7.92 207.416 8.04C207.296 8.16 207.236 8.33 207.236 8.55C207.236 8.82333 207.329 9.04667 207.516 9.22C207.709 9.39333 207.969 9.48 208.296 9.48C208.562 9.48 208.796 9.41667 208.996 9.29C209.202 9.16333 209.362 8.99 209.476 8.77C209.596 8.55 209.656 8.29667 209.656 8.01V6.87C209.656 6.45667 209.572 6.16 209.406 5.98C209.239 5.79333 208.966 5.7 208.586 5.7C208.352 5.7 208.119 5.73 207.886 5.79C207.652 5.85 207.406 5.94667 207.146 6.08C207.052 6.12667 206.972 6.14333 206.906 6.13C206.839 6.11 206.786 6.07333 206.746 6.02C206.706 5.96667 206.682 5.90667 206.676 5.84C206.669 5.76667 206.682 5.69667 206.716 5.63C206.756 5.56333 206.816 5.51 206.896 5.47C207.189 5.32333 207.479 5.21667 207.766 5.15C208.052 5.08333 208.326 5.05 208.586 5.05C209.006 5.05 209.352 5.12 209.626 5.26C209.899 5.39333 210.102 5.6 210.236 5.88C210.369 6.15333 210.436 6.50667 210.436 6.94V9.65C210.436 9.78333 210.402 9.88667 210.336 9.96C210.276 10.0333 210.186 10.07 210.066 10.07C209.939 10.07 209.842 10.0333 209.776 9.96C209.709 9.88667 209.676 9.78333 209.676 9.65V8.87H209.766C209.712 9.12333 209.609 9.34 209.456 9.52C209.309 9.7 209.126 9.84 208.906 9.94C208.686 10.04 208.439 10.09 208.166 10.09ZM212.048 10.07C211.915 10.07 211.812 10.0333 211.738 9.96C211.672 9.88667 211.638 9.78333 211.638 9.65V5.48C211.638 5.34667 211.672 5.24667 211.738 5.18C211.805 5.10667 211.902 5.07 212.028 5.07C212.155 5.07 212.252 5.10667 212.318 5.18C212.392 5.24667 212.428 5.34667 212.428 5.48V6.29H212.328C212.435 5.89667 212.638 5.59333 212.938 5.38C213.238 5.16667 213.608 5.05333 214.048 5.04C214.148 5.03333 214.228 5.05667 214.288 5.11C214.348 5.15667 214.382 5.24 214.388 5.36C214.395 5.47333 214.368 5.56333 214.308 5.63C214.248 5.69667 214.155 5.73667 214.028 5.75L213.868 5.77C213.415 5.81 213.065 5.95667 212.818 6.21C212.578 6.45667 212.458 6.79667 212.458 7.23V9.65C212.458 9.78333 212.422 9.88667 212.348 9.96C212.282 10.0333 212.182 10.07 212.048 10.07Z" fill="#9CA3AF"/>
<path d="M265.129 10.07C265.022 10.07 264.935 10.0467 264.869 10C264.809 9.94667 264.772 9.88 264.759 9.8C264.752 9.71333 264.772 9.61667 264.819 9.51L267.569 3.25C267.629 3.11667 267.699 3.02333 267.779 2.97C267.865 2.91 267.959 2.88 268.059 2.88C268.159 2.88 268.249 2.91 268.329 2.97C268.415 3.02333 268.485 3.11667 268.539 3.25L271.299 9.51C271.352 9.61667 271.372 9.71333 271.359 9.8C271.352 9.88667 271.319 9.95333 271.259 10C271.199 10.0467 271.115 10.07 271.009 10.07C270.889 10.07 270.792 10.04 270.719 9.98C270.645 9.91333 270.585 9.82 270.539 9.7L269.799 7.99L270.199 8.2H265.899L266.309 7.99L265.579 9.7C265.519 9.82667 265.455 9.92 265.389 9.98C265.322 10.04 265.235 10.07 265.129 10.07ZM268.049 3.91L266.439 7.7L266.199 7.51H269.899L269.679 7.7L268.069 3.91H268.049ZM272.554 11.87C272.421 11.87 272.321 11.8333 272.254 11.76C272.187 11.6933 272.154 11.5933 272.154 11.46V5.48C272.154 5.34667 272.187 5.24667 272.254 5.18C272.321 5.10667 272.417 5.07 272.544 5.07C272.677 5.07 272.777 5.10667 272.844 5.18C272.917 5.24667 272.954 5.34667 272.954 5.48V6.43L272.844 6.29C272.951 5.91 273.161 5.61 273.474 5.39C273.794 5.16333 274.174 5.05 274.614 5.05C275.047 5.05 275.424 5.15333 275.744 5.36C276.071 5.56 276.321 5.85 276.494 6.23C276.674 6.60333 276.764 7.05 276.764 7.57C276.764 8.08333 276.674 8.53 276.494 8.91C276.321 9.28333 276.074 9.57333 275.754 9.78C275.434 9.98667 275.054 10.09 274.614 10.09C274.174 10.09 273.797 9.98 273.484 9.76C273.171 9.53333 272.957 9.23333 272.844 8.86H272.964V11.46C272.964 11.5933 272.927 11.6933 272.854 11.76C272.781 11.8333 272.681 11.87 272.554 11.87ZM274.444 9.44C274.751 9.44 275.014 9.36667 275.234 9.22C275.461 9.07333 275.634 8.86 275.754 8.58C275.881 8.3 275.944 7.96333 275.944 7.57C275.944 6.96333 275.807 6.5 275.534 6.18C275.267 5.86 274.904 5.7 274.444 5.7C274.144 5.7 273.881 5.77333 273.654 5.92C273.427 6.06 273.251 6.27 273.124 6.55C273.004 6.82333 272.944 7.16333 272.944 7.57C272.944 8.17 273.081 8.63333 273.354 8.96C273.627 9.28 273.991 9.44 274.444 9.44ZM278.094 10.07C277.961 10.07 277.857 10.0333 277.784 9.96C277.717 9.88667 277.684 9.78333 277.684 9.65V5.48C277.684 5.34667 277.717 5.24667 277.784 5.18C277.851 5.10667 277.947 5.07 278.074 5.07C278.201 5.07 278.297 5.10667 278.364 5.18C278.437 5.24667 278.474 5.34667 278.474 5.48V6.29H278.374C278.481 5.89667 278.684 5.59333 278.984 5.38C279.284 5.16667 279.654 5.05333 280.094 5.04C280.194 5.03333 280.274 5.05667 280.334 5.11C280.394 5.15667 280.427 5.24 280.434 5.36C280.441 5.47333 280.414 5.56333 280.354 5.63C280.294 5.69667 280.201 5.73667 280.074 5.75L279.914 5.77C279.461 5.81 279.111 5.95667 278.864 6.21C278.624 6.45667 278.504 6.79667 278.504 7.23V9.65C278.504 9.78333 278.467 9.88667 278.394 9.96C278.327 10.0333 278.227 10.07 278.094 10.07Z" fill="#9CA3AF"/>
<path d="M330.972 10.07C330.852 10.07 330.759 10.0367 330.692 9.97C330.626 9.89667 330.592 9.79667 330.592 9.67V3.28C330.592 3.14667 330.626 3.04667 330.692 2.98C330.759 2.91333 330.852 2.88 330.972 2.88C331.079 2.88 331.162 2.90333 331.222 2.95C331.289 2.99 331.349 3.06 331.402 3.16L334.142 8.32H333.842L336.572 3.16C336.626 3.06 336.682 2.99 336.742 2.95C336.802 2.90333 336.889 2.88 337.002 2.88C337.116 2.88 337.206 2.91333 337.272 2.98C337.339 3.04667 337.372 3.14667 337.372 3.28V9.67C337.372 9.79667 337.339 9.89667 337.272 9.97C337.212 10.0367 337.119 10.07 336.992 10.07C336.872 10.07 336.779 10.0367 336.712 9.97C336.646 9.89667 336.612 9.79667 336.612 9.67V4.05H336.852L334.352 8.74C334.306 8.82667 334.256 8.89 334.202 8.93C334.156 8.96333 334.086 8.98 333.992 8.98C333.899 8.98 333.826 8.96 333.772 8.92C333.719 8.88 333.672 8.82 333.632 8.74L331.102 4.04H331.342V9.67C331.342 9.79667 331.309 9.89667 331.242 9.97C331.182 10.0367 331.092 10.07 330.972 10.07ZM340.247 10.09C339.914 10.09 339.614 10.0267 339.347 9.9C339.087 9.76667 338.88 9.58667 338.727 9.36C338.574 9.13333 338.497 8.88 338.497 8.6C338.497 8.24 338.587 7.95667 338.767 7.75C338.954 7.54333 339.257 7.39667 339.677 7.31C340.104 7.22333 340.684 7.18 341.417 7.18H341.867V7.71H341.427C340.887 7.71 340.46 7.73667 340.147 7.79C339.84 7.83667 339.624 7.92 339.497 8.04C339.377 8.16 339.317 8.33 339.317 8.55C339.317 8.82333 339.41 9.04667 339.597 9.22C339.79 9.39333 340.05 9.48 340.377 9.48C340.644 9.48 340.877 9.41667 341.077 9.29C341.284 9.16333 341.444 8.99 341.557 8.77C341.677 8.55 341.737 8.29667 341.737 8.01V6.87C341.737 6.45667 341.654 6.16 341.487 5.98C341.32 5.79333 341.047 5.7 340.667 5.7C340.434 5.7 340.2 5.73 339.967 5.79C339.734 5.85 339.487 5.94667 339.227 6.08C339.134 6.12667 339.054 6.14333 338.987 6.13C338.92 6.11 338.867 6.07333 338.827 6.02C338.787 5.96667 338.764 5.90667 338.757 5.84C338.75 5.76667 338.764 5.69667 338.797 5.63C338.837 5.56333 338.897 5.51 338.977 5.47C339.27 5.32333 339.56 5.21667 339.847 5.15C340.134 5.08333 340.407 5.05 340.667 5.05C341.087 5.05 341.434 5.12 341.707 5.26C341.98 5.39333 342.184 5.6 342.317 5.88C342.45 6.15333 342.517 6.50667 342.517 6.94V9.65C342.517 9.78333 342.484 9.88667 342.417 9.96C342.357 10.0333 342.267 10.07 342.147 10.07C342.02 10.07 341.924 10.0333 341.857 9.96C341.79 9.88667 341.757 9.78333 341.757 9.65V8.87H341.847C341.794 9.12333 341.69 9.34 341.537 9.52C341.39 9.7 341.207 9.84 340.987 9.94C340.767 10.04 340.52 10.09 340.247 10.09ZM344.751 11.87C344.651 11.87 344.571 11.8433 344.511 11.79C344.451 11.7367 344.414 11.6633 344.401 11.57C344.394 11.4833 344.411 11.3933 344.451 11.3L345.141 9.75V10.1L343.221 5.64C343.181 5.54 343.168 5.44667 343.181 5.36C343.194 5.27333 343.234 5.20333 343.301 5.15C343.368 5.09667 343.461 5.07 343.581 5.07C343.688 5.07 343.771 5.09333 343.831 5.14C343.891 5.18667 343.944 5.27 343.991 5.39L345.631 9.41H345.361L347.021 5.39C347.074 5.27 347.131 5.18667 347.191 5.14C347.251 5.09333 347.338 5.07 347.451 5.07C347.558 5.07 347.638 5.09667 347.691 5.15C347.751 5.20333 347.784 5.27333 347.791 5.36C347.804 5.44 347.791 5.53 347.751 5.63L345.191 11.55C345.138 11.67 345.078 11.7533 345.011 11.8C344.951 11.8467 344.864 11.87 344.751 11.87Z" fill="#9CA3AF"/>
<path d="M398.606 10.06C398.479 10.0667 398.383 10.0333 398.316 9.96C398.243 9.88667 398.206 9.79667 398.206 9.69C398.206 9.61 398.233 9.53667 398.286 9.47C398.333 9.40333 398.409 9.36667 398.516 9.36L398.826 9.34C399.166 9.31333 399.426 9.19667 399.606 8.99C399.786 8.77667 399.876 8.48667 399.876 8.12V3.3C399.876 3.16 399.909 3.05667 399.976 2.99C400.049 2.91667 400.153 2.88 400.286 2.88C400.419 2.88 400.519 2.91667 400.586 2.99C400.659 3.05667 400.696 3.16 400.696 3.3V8.13C400.696 8.51 400.629 8.84 400.496 9.12C400.363 9.39333 400.163 9.60667 399.896 9.76C399.636 9.91333 399.316 10.0033 398.936 10.03L398.606 10.06ZM403.748 10.09C403.355 10.09 403.028 10.02 402.768 9.88C402.515 9.73333 402.321 9.51667 402.188 9.23C402.061 8.94333 401.998 8.58667 401.998 8.16V5.48C401.998 5.34 402.031 5.23667 402.098 5.17C402.171 5.10333 402.271 5.07 402.398 5.07C402.531 5.07 402.631 5.10333 402.698 5.17C402.771 5.23667 402.808 5.34 402.808 5.48V8.15C402.808 8.57667 402.895 8.89667 403.068 9.11C403.248 9.31667 403.528 9.42 403.908 9.42C404.321 9.42 404.658 9.28 404.918 9C405.178 8.72 405.308 8.35333 405.308 7.9V5.48C405.308 5.34 405.341 5.23667 405.408 5.17C405.481 5.10333 405.585 5.07 405.718 5.07C405.845 5.07 405.941 5.10333 406.008 5.17C406.081 5.23667 406.118 5.34 406.118 5.48V9.65C406.118 9.93 405.988 10.07 405.728 10.07C405.601 10.07 405.501 10.0333 405.428 9.96C405.361 9.88667 405.328 9.78333 405.328 9.65V8.74L405.458 8.88C405.325 9.27333 405.105 9.57333 404.798 9.78C404.498 9.98667 404.148 10.09 403.748 10.09ZM407.734 10.07C407.6 10.07 407.5 10.0333 407.434 9.96C407.367 9.88667 407.334 9.78333 407.334 9.65V5.48C407.334 5.34667 407.367 5.24667 407.434 5.18C407.5 5.10667 407.597 5.07 407.724 5.07C407.85 5.07 407.947 5.10667 408.014 5.18C408.087 5.24667 408.124 5.34667 408.124 5.48V6.34L408.014 6.22C408.154 5.83333 408.38 5.54333 408.694 5.35C409.014 5.15 409.38 5.05 409.794 5.05C410.18 5.05 410.5 5.12 410.754 5.26C411.014 5.4 411.207 5.61333 411.334 5.9C411.46 6.18 411.524 6.53667 411.524 6.97V9.65C411.524 9.78333 411.487 9.88667 411.414 9.96C411.347 10.0333 411.25 10.07 411.124 10.07C410.99 10.07 410.887 10.0333 410.814 9.96C410.747 9.88667 410.714 9.78333 410.714 9.65V7.02C410.714 6.56667 410.624 6.23667 410.444 6.03C410.27 5.81667 409.99 5.71 409.604 5.71C409.157 5.71 408.8 5.85 408.534 6.13C408.274 6.40333 408.144 6.77 408.144 7.23V9.65C408.144 9.93 408.007 10.07 407.734 10.07Z" fill="#9CA3AF"/>
<path d="M466.385 10.06C466.258 10.0667 466.162 10.0333 466.095 9.96C466.022 9.88667 465.985 9.79667 465.985 9.69C465.985 9.61 466.012 9.53667 466.065 9.47C466.112 9.40333 466.188 9.36667 466.295 9.36L466.605 9.34C466.945 9.31333 467.205 9.19667 467.385 8.99C467.565 8.77667 467.655 8.48667 467.655 8.12V3.3C467.655 3.16 467.688 3.05667 467.755 2.99C467.828 2.91667 467.932 2.88 468.065 2.88C468.198 2.88 468.298 2.91667 468.365 2.99C468.438 3.05667 468.475 3.16 468.475 3.3V8.13C468.475 8.51 468.408 8.84 468.275 9.12C468.142 9.39333 467.942 9.60667 467.675 9.76C467.415 9.91333 467.095 10.0033 466.715 10.03L466.385 10.06ZM471.527 10.09C471.134 10.09 470.807 10.02 470.547 9.88C470.294 9.73333 470.101 9.51667 469.967 9.23C469.841 8.94333 469.777 8.58667 469.777 8.16V5.48C469.777 5.34 469.811 5.23667 469.877 5.17C469.951 5.10333 470.051 5.07 470.177 5.07C470.311 5.07 470.411 5.10333 470.477 5.17C470.551 5.23667 470.587 5.34 470.587 5.48V8.15C470.587 8.57667 470.674 8.89667 470.847 9.11C471.027 9.31667 471.307 9.42 471.687 9.42C472.101 9.42 472.437 9.28 472.697 9C472.957 8.72 473.087 8.35333 473.087 7.9V5.48C473.087 5.34 473.121 5.23667 473.187 5.17C473.261 5.10333 473.364 5.07 473.497 5.07C473.624 5.07 473.721 5.10333 473.787 5.17C473.861 5.23667 473.897 5.34 473.897 5.48V9.65C473.897 9.93 473.767 10.07 473.507 10.07C473.381 10.07 473.281 10.0333 473.207 9.96C473.141 9.88667 473.107 9.78333 473.107 9.65V8.74L473.237 8.88C473.104 9.27333 472.884 9.57333 472.577 9.78C472.277 9.98667 471.927 10.09 471.527 10.09ZM476.593 10.09C476.113 10.09 475.746 9.94333 475.493 9.65C475.239 9.35667 475.113 8.93667 475.113 8.39V3.29C475.113 3.15667 475.146 3.05667 475.213 2.99C475.279 2.91667 475.379 2.88 475.513 2.88C475.639 2.88 475.739 2.91667 475.813 2.99C475.886 3.05667 475.923 3.15667 475.923 3.29V8.33C475.923 8.69 475.993 8.96 476.133 9.14C476.279 9.31333 476.493 9.4 476.773 9.4C476.833 9.4 476.886 9.39667 476.933 9.39C476.979 9.38333 477.026 9.38 477.073 9.38C477.146 9.37333 477.196 9.39 477.223 9.43C477.256 9.47 477.273 9.55 477.273 9.67C477.273 9.79 477.246 9.88 477.193 9.94C477.139 10 477.053 10.04 476.933 10.06C476.879 10.0667 476.823 10.0733 476.763 10.08C476.703 10.0867 476.646 10.09 476.593 10.09Z" fill="#9CA3AF"/>
<path d="M529.77 10.07C529.663 10.07 529.577 10.0467 529.51 10C529.45 9.94667 529.413 9.88 529.4 9.8C529.393 9.71333 529.413 9.61667 529.46 9.51L532.21 3.25C532.27 3.11667 532.34 3.02333 532.42 2.97C532.507 2.91 532.6 2.88 532.7 2.88C532.8 2.88 532.89 2.91 532.97 2.97C533.057 3.02333 533.127 3.11667 533.18 3.25L535.94 9.51C535.993 9.61667 536.013 9.71333 536 9.8C535.993 9.88667 535.96 9.95333 535.9 10C535.84 10.0467 535.757 10.07 535.65 10.07C535.53 10.07 535.433 10.04 535.36 9.98C535.287 9.91333 535.227 9.82 535.18 9.7L534.44 7.99L534.84 8.2H530.54L530.95 7.99L530.22 9.7C530.16 9.82667 530.097 9.92 530.03 9.98C529.963 10.04 529.877 10.07 529.77 10.07ZM532.69 3.91L531.08 7.7L530.84 7.51H534.54L534.32 7.7L532.71 3.91H532.69ZM538.515 10.09C538.122 10.09 537.795 10.02 537.535 9.88C537.282 9.73333 537.088 9.51667 536.955 9.23C536.828 8.94333 536.765 8.58667 536.765 8.16V5.48C536.765 5.34 536.798 5.23667 536.865 5.17C536.938 5.10333 537.038 5.07 537.165 5.07C537.298 5.07 537.398 5.10333 537.465 5.17C537.538 5.23667 537.575 5.34 537.575 5.48V8.15C537.575 8.57667 537.662 8.89667 537.835 9.11C538.015 9.31667 538.295 9.42 538.675 9.42C539.088 9.42 539.425 9.28 539.685 9C539.945 8.72 540.075 8.35333 540.075 7.9V5.48C540.075 5.34 540.108 5.23667 540.175 5.17C540.248 5.10333 540.352 5.07 540.485 5.07C540.612 5.07 540.708 5.10333 540.775 5.17C540.848 5.23667 540.885 5.34 540.885 5.48V9.65C540.885 9.93 540.755 10.07 540.495 10.07C540.368 10.07 540.268 10.0333 540.195 9.96C540.128 9.88667 540.095 9.78333 540.095 9.65V8.74L540.225 8.88C540.092 9.27333 539.872 9.57333 539.565 9.78C539.265 9.98667 538.915 10.09 538.515 10.09ZM544.25 11.89C543.897 11.89 543.55 11.8467 543.21 11.76C542.877 11.68 542.574 11.55 542.3 11.37C542.22 11.3233 542.167 11.2667 542.14 11.2C542.12 11.1333 542.117 11.0667 542.13 11C542.144 10.94 542.174 10.8833 542.22 10.83C542.267 10.7833 542.32 10.7533 542.38 10.74C542.447 10.7267 542.514 10.7367 542.58 10.77C542.874 10.95 543.154 11.0733 543.42 11.14C543.687 11.2067 543.95 11.24 544.21 11.24C544.684 11.24 545.04 11.1133 545.28 10.86C545.527 10.6067 545.65 10.24 545.65 9.76V8.63H545.75C545.65 9.01667 545.437 9.32333 545.11 9.55C544.79 9.77667 544.414 9.89 543.98 9.89C543.534 9.89 543.147 9.79 542.82 9.59C542.494 9.38333 542.24 9.09667 542.06 8.73C541.887 8.36333 541.8 7.94 541.8 7.46C541.8 7.1 541.85 6.77333 541.95 6.48C542.05 6.18 542.194 5.92667 542.38 5.72C542.574 5.50667 542.804 5.34333 543.07 5.23C543.344 5.11 543.647 5.05 543.98 5.05C544.42 5.05 544.8 5.16333 545.12 5.39C545.44 5.61 545.647 5.91 545.74 6.29L545.64 6.41V5.48C545.64 5.34667 545.674 5.24667 545.74 5.18C545.814 5.10667 545.914 5.07 546.04 5.07C546.174 5.07 546.274 5.10667 546.34 5.18C546.407 5.24667 546.44 5.34667 546.44 5.48V9.65C546.44 10.39 546.254 10.9467 545.88 11.32C545.514 11.7 544.97 11.89 544.25 11.89ZM544.13 9.23C544.444 9.23 544.714 9.16 544.94 9.02C545.167 8.87333 545.34 8.66667 545.46 8.4C545.587 8.13333 545.65 7.82 545.65 7.46C545.65 6.92 545.514 6.49333 545.24 6.18C544.967 5.86 544.597 5.7 544.13 5.7C543.824 5.7 543.557 5.77333 543.33 5.92C543.104 6.06 542.927 6.26333 542.8 6.53C542.68 6.79 542.62 7.1 542.62 7.46C542.62 8 542.757 8.43 543.03 8.75C543.304 9.07 543.67 9.23 544.13 9.23Z" fill="#9CA3AF"/>
<path d="M599.339 10.09C599.026 10.09 598.719 10.0633 598.419 10.01C598.119 9.95667 597.839 9.88 597.579 9.78C597.326 9.68 597.096 9.55333 596.889 9.4C596.809 9.34 596.753 9.27333 596.719 9.2C596.693 9.12 596.686 9.04333 596.699 8.97C596.719 8.89 596.753 8.82333 596.799 8.77C596.853 8.71667 596.916 8.68667 596.989 8.68C597.063 8.67333 597.143 8.69667 597.229 8.75C597.529 8.96333 597.849 9.12 598.189 9.22C598.529 9.31333 598.913 9.36 599.339 9.36C599.939 9.36 600.383 9.25 600.669 9.03C600.963 8.80333 601.109 8.50667 601.109 8.14C601.109 7.84 601.003 7.60667 600.789 7.44C600.583 7.26667 600.233 7.13 599.739 7.03L598.699 6.82C598.073 6.68667 597.603 6.47 597.289 6.17C596.983 5.86333 596.829 5.45667 596.829 4.95C596.829 4.63667 596.893 4.35333 597.019 4.1C597.146 3.84 597.323 3.62 597.549 3.44C597.776 3.25333 598.046 3.11 598.359 3.01C598.673 2.91 599.019 2.86 599.399 2.86C599.819 2.86 600.209 2.92 600.569 3.04C600.936 3.15333 601.266 3.32667 601.559 3.56C601.633 3.62 601.683 3.69 601.709 3.77C601.736 3.84333 601.739 3.91667 601.719 3.99C601.699 4.05667 601.663 4.11333 601.609 4.16C601.563 4.20667 601.499 4.23333 601.419 4.24C601.346 4.24667 601.263 4.22 601.169 4.16C600.903 3.96 600.626 3.81667 600.339 3.73C600.053 3.63667 599.736 3.59 599.389 3.59C599.036 3.59 598.729 3.64333 598.469 3.75C598.216 3.85667 598.016 4.01333 597.869 4.22C597.729 4.42 597.659 4.65333 597.659 4.92C597.659 5.24 597.756 5.49333 597.949 5.68C598.149 5.86667 598.473 6.00333 598.919 6.09L599.959 6.31C600.633 6.45 601.129 6.66333 601.449 6.95C601.776 7.23 601.939 7.61333 601.939 8.1C601.939 8.39333 601.879 8.66333 601.759 8.91C601.639 9.15667 601.466 9.37 601.239 9.55C601.013 9.72333 600.739 9.85667 600.419 9.95C600.099 10.0433 599.739 10.09 599.339 10.09ZM604.992 10.09C604.478 10.09 604.035 9.99 603.662 9.79C603.295 9.58333 603.008 9.29333 602.802 8.92C602.602 8.54667 602.502 8.1 602.502 7.58C602.502 7.07333 602.602 6.63333 602.802 6.26C603.002 5.88 603.275 5.58333 603.622 5.37C603.975 5.15667 604.382 5.05 604.842 5.05C605.168 5.05 605.462 5.10667 605.722 5.22C605.982 5.32667 606.202 5.48333 606.382 5.69C606.568 5.89667 606.708 6.14667 606.802 6.44C606.902 6.73333 606.952 7.06333 606.952 7.43C606.952 7.53667 606.922 7.61667 606.862 7.67C606.802 7.71667 606.715 7.74 606.602 7.74H603.122V7.21H606.412L606.252 7.34C606.252 6.98 606.198 6.67667 606.092 6.43C605.985 6.17667 605.828 5.98333 605.622 5.85C605.422 5.71667 605.168 5.65 604.862 5.65C604.522 5.65 604.232 5.73 603.992 5.89C603.758 6.04333 603.582 6.26 603.462 6.54C603.342 6.81333 603.282 7.13333 603.282 7.5V7.56C603.282 8.17333 603.428 8.64 603.722 8.96C604.022 9.28 604.445 9.44 604.992 9.44C605.218 9.44 605.442 9.41 605.662 9.35C605.888 9.29 606.108 9.19 606.322 9.05C606.415 8.99 606.498 8.96333 606.572 8.97C606.652 8.97 606.715 8.99333 606.762 9.04C606.808 9.08 606.838 9.13333 606.852 9.2C606.872 9.26 606.865 9.32667 606.832 9.4C606.805 9.47333 606.748 9.53667 606.662 9.59C606.442 9.75 606.182 9.87333 605.882 9.96C605.582 10.0467 605.285 10.09 604.992 10.09ZM608.224 11.87C608.091 11.87 607.991 11.8333 607.924 11.76C607.857 11.6933 607.824 11.5933 607.824 11.46V5.48C607.824 5.34667 607.857 5.24667 607.924 5.18C607.991 5.10667 608.087 5.07 608.214 5.07C608.347 5.07 608.447 5.10667 608.514 5.18C608.587 5.24667 608.624 5.34667 608.624 5.48V6.43L608.514 6.29C608.621 5.91 608.831 5.61 609.144 5.39C609.464 5.16333 609.844 5.05 610.284 5.05C610.717 5.05 611.094 5.15333 611.414 5.36C611.741 5.56 611.991 5.85 612.164 6.23C612.344 6.60333 612.434 7.05 612.434 7.57C612.434 8.08333 612.344 8.53 612.164 8.91C611.991 9.28333 611.744 9.57333 611.424 9.78C611.104 9.98667 610.724 10.09 610.284 10.09C609.844 10.09 609.467 9.98 609.154 9.76C608.841 9.53333 608.627 9.23333 608.514 8.86H608.634V11.46C608.634 11.5933 608.597 11.6933 608.524 11.76C608.451 11.8333 608.351 11.87 608.224 11.87ZM610.114 9.44C610.421 9.44 610.684 9.36667 610.904 9.22C611.131 9.07333 611.304 8.86 611.424 8.58C611.551 8.3 611.614 7.96333 611.614 7.57C611.614 6.96333 611.477 6.5 611.204 6.18C610.937 5.86 610.574 5.7 610.114 5.7C609.814 5.7 609.551 5.77333 609.324 5.92C609.097 6.06 608.921 6.27 608.794 6.55C608.674 6.82333 608.614 7.16333 608.614 7.57C608.614 8.17 608.751 8.63333 609.024 8.96C609.297 9.28 609.661 9.44 610.114 9.44Z" fill="#9CA3AF"/>
<path d="M667.193 10.09C666.539 10.09 665.969 9.94333 665.483 9.65C665.003 9.35 664.629 8.93 664.363 8.39C664.103 7.85 663.973 7.21 663.973 6.47C663.973 5.91 664.046 5.41 664.193 4.97C664.346 4.52333 664.563 4.14667 664.843 3.84C665.123 3.52667 665.459 3.28667 665.853 3.12C666.253 2.94667 666.699 2.86 667.193 2.86C667.859 2.86 668.433 3.00667 668.913 3.3C669.399 3.59333 669.773 4.01 670.033 4.55C670.299 5.08333 670.433 5.72 670.433 6.46C670.433 7.02 670.356 7.52333 670.203 7.97C670.049 8.41667 669.833 8.79667 669.553 9.11C669.273 9.42333 668.933 9.66667 668.533 9.84C668.139 10.0067 667.693 10.09 667.193 10.09ZM667.193 9.36C667.699 9.36 668.126 9.24667 668.473 9.02C668.826 8.79333 669.096 8.46333 669.283 8.03C669.469 7.59667 669.563 7.07667 669.563 6.47C669.563 5.55667 669.356 4.85 668.943 4.35C668.536 3.84333 667.953 3.59 667.193 3.59C666.699 3.59 666.276 3.70333 665.923 3.93C665.576 4.15667 665.309 4.48667 665.123 4.92C664.936 5.34667 664.843 5.86333 664.843 6.47C664.843 7.37667 665.049 8.08667 665.463 8.6C665.876 9.10667 666.453 9.36 667.193 9.36ZM673.549 10.09C673.062 10.09 672.642 9.98333 672.289 9.77C671.936 9.55667 671.662 9.26 671.469 8.88C671.282 8.49333 671.189 8.04667 671.189 7.54C671.189 7.15333 671.242 6.80667 671.349 6.5C671.456 6.19333 671.612 5.93333 671.819 5.72C672.026 5.5 672.272 5.33333 672.559 5.22C672.852 5.10667 673.182 5.05 673.549 5.05C673.789 5.05 674.039 5.08667 674.299 5.16C674.559 5.23333 674.796 5.36 675.009 5.54C675.076 5.58667 675.119 5.64333 675.139 5.71C675.159 5.77667 675.159 5.84333 675.139 5.91C675.119 5.97 675.086 6.02333 675.039 6.07C674.992 6.11 674.932 6.13333 674.859 6.14C674.792 6.14667 674.722 6.12333 674.649 6.07C674.476 5.93667 674.299 5.84333 674.119 5.79C673.939 5.73667 673.766 5.71 673.599 5.71C673.339 5.71 673.112 5.75333 672.919 5.84C672.726 5.92 672.562 6.03667 672.429 6.19C672.296 6.34333 672.192 6.53333 672.119 6.76C672.052 6.98667 672.019 7.25 672.019 7.55C672.019 8.13 672.156 8.59 672.429 8.93C672.702 9.26333 673.092 9.43 673.599 9.43C673.766 9.43 673.936 9.40333 674.109 9.35C674.289 9.29667 674.469 9.20333 674.649 9.07C674.722 9.01667 674.792 8.99333 674.859 9C674.926 9.00667 674.982 9.03333 675.029 9.08C675.076 9.12 675.106 9.17333 675.119 9.24C675.139 9.30667 675.139 9.37333 675.119 9.44C675.099 9.5 675.056 9.55333 674.989 9.6C674.776 9.77333 674.542 9.9 674.289 9.98C674.036 10.0533 673.789 10.09 673.549 10.09ZM677.768 10.09C677.388 10.09 677.068 10.0233 676.808 9.89C676.554 9.75 676.364 9.55 676.238 9.29C676.111 9.02333 676.048 8.7 676.048 8.32V5.77H675.378C675.264 5.77 675.178 5.74333 675.118 5.69C675.058 5.63 675.028 5.55 675.028 5.45C675.028 5.35 675.058 5.27333 675.118 5.22C675.178 5.16667 675.264 5.14 675.378 5.14H676.048V3.99C676.048 3.85667 676.084 3.75667 676.158 3.69C676.231 3.61667 676.331 3.58 676.458 3.58C676.584 3.58 676.681 3.61667 676.748 3.69C676.821 3.75667 676.858 3.85667 676.858 3.99V5.14H678.118C678.231 5.14 678.318 5.16667 678.378 5.22C678.438 5.27333 678.468 5.35 678.468 5.45C678.468 5.55 678.438 5.63 678.378 5.69C678.318 5.74333 678.231 5.77 678.118 5.77H676.858V8.24C676.858 8.62 676.938 8.91 677.098 9.11C677.258 9.30333 677.518 9.4 677.878 9.4C678.004 9.4 678.111 9.38667 678.198 9.36C678.291 9.33333 678.368 9.32 678.428 9.32C678.488 9.31333 678.538 9.33333 678.578 9.38C678.618 9.42667 678.638 9.50667 678.638 9.62C678.638 9.7 678.621 9.77333 678.588 9.84C678.561 9.90667 678.511 9.95333 678.438 9.98C678.358 10.0067 678.251 10.03 678.118 10.05C677.991 10.0767 677.874 10.09 677.768 10.09Z" fill="#9CA3AF"/>
<path d="M729.917 10.07C729.79 10.07 729.693 10.0367 729.627 9.97C729.56 9.89667 729.527 9.79333 729.527 9.66V3.3C729.527 3.16667 729.56 3.06333 729.627 2.99C729.693 2.91667 729.78 2.88 729.887 2.88C729.993 2.88 730.07 2.9 730.117 2.94C730.17 2.97333 730.23 3.03667 730.297 3.13L734.657 8.94H734.417V3.28C734.417 3.15333 734.45 3.05667 734.517 2.99C734.583 2.91667 734.68 2.88 734.807 2.88C734.927 2.88 735.017 2.91667 735.077 2.99C735.143 3.05667 735.177 3.15333 735.177 3.28V9.67C735.177 9.79667 735.147 9.89667 735.087 9.97C735.033 10.0367 734.953 10.07 734.847 10.07C734.747 10.07 734.667 10.05 734.607 10.01C734.547 9.97 734.483 9.90667 734.417 9.82L730.067 4.01H730.297V9.66C730.297 9.79333 730.263 9.89667 730.197 9.97C730.13 10.0367 730.037 10.07 729.917 10.07ZM738.539 10.09C738.066 10.09 737.656 9.98667 737.309 9.78C736.962 9.57333 736.692 9.28333 736.499 8.91C736.312 8.53 736.219 8.08333 736.219 7.57C736.219 7.18333 736.272 6.83667 736.379 6.53C736.486 6.21667 736.642 5.95 736.849 5.73C737.056 5.51 737.299 5.34333 737.579 5.23C737.866 5.11 738.186 5.05 738.539 5.05C739.012 5.05 739.422 5.15333 739.769 5.36C740.116 5.56667 740.382 5.86 740.569 6.24C740.762 6.61333 740.859 7.05667 740.859 7.57C740.859 7.95667 740.806 8.30333 740.699 8.61C740.592 8.91667 740.436 9.18333 740.229 9.41C740.022 9.63 739.776 9.8 739.489 9.92C739.209 10.0333 738.892 10.09 738.539 10.09ZM738.539 9.44C738.839 9.44 739.102 9.36667 739.329 9.22C739.556 9.07333 739.729 8.86 739.849 8.58C739.976 8.3 740.039 7.96333 740.039 7.57C740.039 6.96333 739.902 6.5 739.629 6.18C739.362 5.86 738.999 5.7 738.539 5.7C738.232 5.7 737.966 5.77333 737.739 5.92C737.519 6.06 737.346 6.27 737.219 6.55C737.099 6.82333 737.039 7.16333 737.039 7.57C737.039 8.17 737.176 8.63333 737.449 8.96C737.722 9.28 738.086 9.44 738.539 9.44ZM743.517 10.07C743.404 10.07 743.304 10.04 743.217 9.98C743.13 9.91333 743.057 9.81333 742.997 9.68L741.267 5.64C741.22 5.54 741.204 5.44667 741.217 5.36C741.23 5.27333 741.27 5.20333 741.337 5.15C741.404 5.09667 741.497 5.07 741.617 5.07C741.724 5.07 741.807 5.09333 741.867 5.14C741.927 5.18667 741.98 5.27 742.027 5.39L743.667 9.4H743.397L745.067 5.39C745.114 5.27 745.167 5.18667 745.227 5.14C745.287 5.09333 745.374 5.07 745.487 5.07C745.594 5.07 745.674 5.09667 745.727 5.15C745.787 5.20333 745.82 5.27333 745.827 5.36C745.84 5.44 745.827 5.53 745.787 5.63L744.037 9.68C743.99 9.81333 743.92 9.91333 743.827 9.98C743.74 10.04 743.637 10.07 743.517 10.07Z" fill="#9CA3AF"/>
<path d="M796.633 10C796.486 10 796.373 9.96333 796.293 9.89C796.219 9.81 796.183 9.69667 796.183 9.55V3.4C796.183 3.25333 796.219 3.14333 796.293 3.07C796.373 2.99 796.486 2.95 796.633 2.95H798.563C799.703 2.95 800.583 3.25 801.203 3.85C801.823 4.45 802.133 5.32333 802.133 6.47C802.133 7.04333 802.053 7.55 801.893 7.99C801.739 8.42333 801.509 8.79 801.203 9.09C800.896 9.39 800.523 9.61667 800.083 9.77C799.643 9.92333 799.136 10 798.563 10H796.633ZM797.003 9.3H798.503C798.969 9.3 799.373 9.24 799.713 9.12C800.059 9 800.346 8.82333 800.573 8.59C800.806 8.35667 800.979 8.06333 801.093 7.71C801.206 7.35 801.263 6.93667 801.263 6.47C801.263 5.53 801.033 4.82667 800.573 4.36C800.113 3.88667 799.423 3.65 798.503 3.65H797.003V9.3ZM805.384 10.09C804.871 10.09 804.428 9.99 804.054 9.79C803.688 9.58333 803.401 9.29333 803.194 8.92C802.994 8.54667 802.894 8.1 802.894 7.58C802.894 7.07333 802.994 6.63333 803.194 6.26C803.394 5.88 803.668 5.58333 804.014 5.37C804.368 5.15667 804.774 5.05 805.234 5.05C805.561 5.05 805.854 5.10667 806.114 5.22C806.374 5.32667 806.594 5.48333 806.774 5.69C806.961 5.89667 807.101 6.14667 807.194 6.44C807.294 6.73333 807.344 7.06333 807.344 7.43C807.344 7.53667 807.314 7.61667 807.254 7.67C807.194 7.71667 807.108 7.74 806.994 7.74H803.514V7.21H806.804L806.644 7.34C806.644 6.98 806.591 6.67667 806.484 6.43C806.378 6.17667 806.221 5.98333 806.014 5.85C805.814 5.71667 805.561 5.65 805.254 5.65C804.914 5.65 804.624 5.73 804.384 5.89C804.151 6.04333 803.974 6.26 803.854 6.54C803.734 6.81333 803.674 7.13333 803.674 7.5V7.56C803.674 8.17333 803.821 8.64 804.114 8.96C804.414 9.28 804.838 9.44 805.384 9.44C805.611 9.44 805.834 9.41 806.054 9.35C806.281 9.29 806.501 9.19 806.714 9.05C806.808 8.99 806.891 8.96333 806.964 8.97C807.044 8.97 807.108 8.99333 807.154 9.04C807.201 9.08 807.231 9.13333 807.244 9.2C807.264 9.26 807.258 9.32667 807.224 9.4C807.198 9.47333 807.141 9.53667 807.054 9.59C806.834 9.75 806.574 9.87333 806.274 9.96C805.974 10.0467 805.678 10.09 805.384 10.09ZM809.857 10.09C809.557 10.09 809.253 10.0533 808.947 9.98C808.647 9.90667 808.367 9.78 808.107 9.6C808.04 9.55333 807.993 9.5 807.967 9.44C807.94 9.37333 807.93 9.31 807.937 9.25C807.95 9.18333 807.977 9.12667 808.017 9.08C808.063 9.03333 808.117 9.00667 808.177 9C808.243 8.98667 808.317 9 808.397 9.04C808.657 9.2 808.907 9.31333 809.147 9.38C809.393 9.44 809.637 9.47 809.877 9.47C810.257 9.47 810.543 9.4 810.737 9.26C810.93 9.12 811.027 8.93 811.027 8.69C811.027 8.50333 810.963 8.35667 810.837 8.25C810.71 8.13667 810.51 8.05 810.237 7.99L809.327 7.79C808.907 7.70333 808.593 7.55333 808.387 7.34C808.187 7.12667 808.087 6.85 808.087 6.51C808.087 6.21 808.163 5.95333 808.317 5.74C808.477 5.52 808.7 5.35 808.987 5.23C809.273 5.11 809.607 5.05 809.987 5.05C810.28 5.05 810.557 5.09 810.817 5.17C811.083 5.24333 811.323 5.36333 811.537 5.53C811.603 5.57667 811.647 5.63333 811.667 5.7C811.693 5.76 811.697 5.82333 811.677 5.89C811.663 5.95 811.633 6.00333 811.587 6.05C811.54 6.09 811.483 6.11333 811.417 6.12C811.35 6.12667 811.28 6.10667 811.207 6.06C811.007 5.92667 810.803 5.83 810.597 5.77C810.39 5.70333 810.187 5.67 809.987 5.67C809.613 5.67 809.33 5.74333 809.137 5.89C808.943 6.03667 808.847 6.23 808.847 6.47C808.847 6.65667 808.907 6.81 809.027 6.93C809.147 7.05 809.333 7.13667 809.587 7.19L810.497 7.38C810.93 7.47333 811.253 7.62333 811.467 7.83C811.687 8.03 811.797 8.30333 811.797 8.65C811.797 9.09 811.62 9.44 811.267 9.7C810.913 9.96 810.443 10.09 809.857 10.09Z" fill="#9CA3AF"/>
</svg>
