<svg width="24" height="24" viewBox="0 0 24 24" fill="none" xmlns="http://www.w3.org/2000/svg">
<rect x="0.5" y="0.5" width="23" height="23" rx="7.5" fill="white"/>
<rect x="0.5" y="0.5" width="23" height="23" rx="7.5" stroke="#E2E8F0"/>
<path d="M8 5.33333C8.16329 5.33336 8.32089 5.3933 8.44291 5.50181C8.56494 5.61032 8.64289 5.75983 8.662 5.922L8.66667 6V6.712L17.3807 7.33533C17.5519 7.34746 17.7119 7.42522 17.8273 7.55239C17.9427 7.67956 18.0045 7.84635 18 8.018L17.9933 8.094L17.3267 12.7607C17.3059 12.9068 17.2373 13.0419 17.1314 13.1448C17.0256 13.2478 16.8887 13.3126 16.742 13.3293L16.6667 13.3333H8.66667V14.6667H15.3333C15.7239 14.6667 16.1059 14.7811 16.4322 14.9957C16.7585 15.2103 17.0149 15.5157 17.1696 15.8743C17.3243 16.2329 17.3707 16.629 17.3029 17.0136C17.2351 17.3983 17.0562 17.7547 16.7883 18.0388C16.5203 18.323 16.1751 18.5224 15.795 18.6126C15.415 18.7028 15.0169 18.6798 14.6499 18.5463C14.2828 18.4129 13.9629 18.1749 13.7295 17.8617C13.4961 17.5485 13.3596 17.1739 13.3367 16.784L13.3333 16.6667L13.3367 16.5493C13.3487 16.3569 13.3856 16.1738 13.4473 16H9.886C9.98115 16.2699 10.0173 16.5571 9.99193 16.8421C9.96659 17.1272 9.88036 17.4035 9.73909 17.6523C9.59781 17.9012 9.40478 18.1169 9.17301 18.2847C8.94125 18.4526 8.67616 18.5688 8.39565 18.6254C8.11513 18.6821 7.82573 18.6778 7.54699 18.6131C7.26824 18.5483 7.00665 18.4244 6.77988 18.2499C6.5531 18.0753 6.36643 17.8541 6.23246 17.6012C6.0985 17.3484 6.02036 17.0697 6.00333 16.784L6 16.6667L6.00333 16.5493C6.02623 16.1562 6.16465 15.7787 6.40125 15.4639C6.63785 15.1492 6.96209 14.9112 7.33333 14.78V6.66667H6.66667C6.50338 6.66665 6.34578 6.6067 6.22375 6.49819C6.10173 6.38968 6.02377 6.24017 6.00467 6.078L6 6C6.00002 5.83671 6.05997 5.67911 6.16848 5.55709C6.27698 5.43506 6.4265 5.35711 6.58867 5.338L6.66667 5.33333H8ZM8 16C7.82319 16 7.65362 16.0702 7.5286 16.1953C7.40357 16.3203 7.33333 16.4899 7.33333 16.6667C7.33333 16.8435 7.40357 17.013 7.5286 17.1381C7.65362 17.2631 7.82319 17.3333 8 17.3333C8.17681 17.3333 8.34638 17.2631 8.4714 17.1381C8.59643 17.013 8.66667 16.8435 8.66667 16.6667C8.66667 16.4899 8.59643 16.3203 8.4714 16.1953C8.34638 16.0702 8.17681 16 8 16ZM15.3333 16C15.1565 16 14.987 16.0702 14.8619 16.1953C14.7369 16.3203 14.6667 16.4899 14.6667 16.6667C14.6667 16.8435 14.7369 17.013 14.8619 17.1381C14.987 17.2631 15.1565 17.3333 15.3333 17.3333C15.5101 17.3333 15.6797 17.2631 15.8047 17.1381C15.9298 17.013 16 16.8435 16 16.6667C16 16.4899 15.9298 16.3203 15.8047 16.1953C15.6797 16.0702 15.5101 16 15.3333 16Z" fill="#2563EB"/>
</svg>
