<svg width="142" height="137" viewBox="0 0 142 137" fill="none" xmlns="http://www.w3.org/2000/svg">
<rect width="142" height="137" rx="5" fill="white"/>
<path d="M65.0977 68.4812L89.5102 62.6592V50H76.851L65.0977 68.4812Z" fill="#FF3300"/>
<path d="M53 68.2596C53 69.774 53.1846 71.2441 53.5333 72.6525L65.0986 68.4818L53.4376 64.2734C53.1538 65.5554 53 66.8887 53 68.2562V68.2596Z" fill="#FF3300"/>
<path d="M57.3008 56.489L65.0953 68.4816L68.6883 50.1816C64.1381 50.8209 60.128 53.1388 57.3008 56.489V56.489Z" fill="#FF3300"/>
<path d="M65.0977 68.4805L89.5102 74.299V86.9582H76.851L65.0977 68.4805Z" fill="#FF3300"/>
<path d="M57.3003 80.4711L65.0948 68.4785L68.6844 86.7751C64.1342 86.1358 60.1241 83.818 57.2969 80.4677L57.3003 80.4711Z" fill="#FF3300"/>
</svg>
