<svg width="24" height="24" viewBox="0 0 24 24" fill="none" xmlns="http://www.w3.org/2000/svg">
<rect x="0.5" y="0.5" width="23" height="23" rx="7.5" fill="white"/>
<rect x="0.5" y="0.5" width="23" height="23" rx="7.5" stroke="#E2E8F0"/>
<path d="M7.99992 12C8.52166 12 9.03193 12.1531 9.46755 12.4402C9.90316 12.7274 10.245 13.136 10.4506 13.6155C10.6563 14.095 10.7168 14.6243 10.6246 15.1378C10.5325 15.6513 10.2917 16.1265 9.9321 16.5046C9.57252 16.8826 9.10994 17.1469 8.60166 17.2646C8.09337 17.3823 7.56172 17.3484 7.07255 17.1669C6.58338 16.9855 6.15818 16.6645 5.84961 16.2438C5.54104 15.8231 5.36267 15.3211 5.33659 14.8L5.33325 14.6667L5.33659 14.5334C5.37079 13.8501 5.66632 13.206 6.16204 12.7345C6.65777 12.263 7.31576 12 7.99992 12ZM14.6666 14.6667C15.0571 14.6667 15.4392 14.7811 15.7655 14.9957C16.0918 15.2103 16.3481 15.5158 16.5028 15.8744C16.6576 16.233 16.7039 16.629 16.6361 17.0137C16.5684 17.3983 16.3895 17.7547 16.1215 18.0389C15.8536 18.323 15.5083 18.5225 15.1283 18.6127C14.7483 18.7028 14.3502 18.6798 13.9831 18.5464C13.6161 18.4129 13.2961 18.1749 13.0628 17.8617C12.8294 17.5486 12.6928 17.1739 12.6699 16.784L12.6666 16.6667L12.6699 16.5494C12.6998 16.0401 12.9232 15.5615 13.2944 15.2116C13.6656 14.8616 14.1564 14.6667 14.6666 14.6667ZM13.6666 5.33337C14.3855 5.33343 15.0885 5.54483 15.6883 5.94126C16.288 6.3377 16.7579 6.9017 17.0397 7.5631C17.3214 8.22451 17.4025 8.95415 17.2728 9.66127C17.1432 10.3684 16.8085 11.0218 16.3105 11.5402C15.8124 12.0587 15.173 12.4193 14.4716 12.5772C13.7703 12.7351 13.038 12.6833 12.3658 12.4283C11.6936 12.1733 11.1112 11.7264 10.6911 11.143C10.2709 10.5597 10.0315 9.86571 10.0026 9.14737L9.99992 9.00004L10.0026 8.85271C10.0406 7.90647 10.4433 7.01165 11.1263 6.35564C11.8093 5.69962 12.7196 5.3333 13.6666 5.33337Z" fill="#2563EB"/>
</svg>
