<svg width="24" height="24" viewBox="0 0 24 24" fill="none" xmlns="http://www.w3.org/2000/svg">
<rect x="0.5" y="0.5" width="23" height="23" rx="7.5" fill="white"/>
<rect x="0.5" y="0.5" width="23" height="23" rx="7.5" stroke="#E2E8F0"/>
<path d="M11.3333 6.66663C11.9865 6.66659 12.6252 6.85842 13.1702 7.21829C13.7152 7.57817 14.1425 8.09022 14.399 8.69087C14.6555 9.29151 14.7299 9.95427 14.613 10.5968C14.496 11.2394 14.1929 11.8334 13.7412 12.3052C13.2895 12.7769 12.7092 13.1056 12.0724 13.2504C11.4355 13.3951 10.7701 13.3496 10.1589 13.1195C9.54767 12.8893 9.01752 12.4847 8.63431 11.9558C8.25109 11.4269 8.03168 10.7971 8.00333 10.1446L8 9.99996L8.00333 9.85529C8.04061 8.99713 8.40774 8.18648 9.02815 7.5924C9.64856 6.99832 10.4744 6.66668 11.3333 6.66663Z" fill="#2563EB"/>
<path d="M13.422 5.00128C13.51 4.848 13.6554 4.73598 13.826 4.68985C13.9967 4.64372 14.1787 4.66725 14.332 4.75528C15.0587 5.17297 15.69 5.73806 16.1854 6.41424C16.6807 7.09042 17.0291 7.86275 17.2083 8.68159C17.3874 9.50044 17.3932 10.3477 17.2255 11.169C17.0577 11.9902 16.72 12.7673 16.234 13.4502C15.7481 14.1332 15.1246 14.707 14.4037 15.1347C13.6829 15.5624 12.8805 15.8345 12.0482 15.9337C11.2158 16.0329 10.372 15.9569 9.57077 15.7105C8.76958 15.4642 8.02878 15.0529 7.39596 14.5033C7.32986 14.4458 7.27572 14.376 7.23663 14.2976C7.19754 14.2192 7.17427 14.134 7.16814 14.0466C7.16201 13.9593 7.17315 13.8716 7.20091 13.7885C7.22868 13.7055 7.27253 13.6287 7.32996 13.5626C7.38739 13.4965 7.45728 13.4424 7.53563 13.4033C7.61399 13.3642 7.69927 13.3409 7.78662 13.3348C7.87397 13.3287 7.96167 13.3398 8.04472 13.3676C8.12776 13.3953 8.20453 13.4392 8.27062 13.4966C8.76305 13.9243 9.3395 14.2443 9.96294 14.436C10.5864 14.6277 11.243 14.6868 11.8907 14.6097C12.5383 14.5325 13.1627 14.3207 13.7236 13.9879C14.2846 13.6551 14.7697 13.2086 15.1479 12.6772C15.526 12.1458 15.7888 11.5411 15.9194 10.9021C16.05 10.263 16.0454 9.60374 15.906 8.96656C15.7667 8.32938 15.4956 7.7284 15.1101 7.20222C14.7247 6.67605 14.2334 6.23632 13.668 5.91128C13.5147 5.82321 13.4027 5.67786 13.3565 5.50721C13.3104 5.33656 13.3339 5.15458 13.422 5.00128Z" fill="#2563EB"/>
<path d="M11.3332 14.6666C11.4965 14.6666 11.6541 14.7266 11.7761 14.8351C11.8981 14.9436 11.9761 15.0931 11.9952 15.2553L11.9998 15.3333V18C11.9996 18.1699 11.9346 18.3333 11.8179 18.4569C11.7013 18.5804 11.5419 18.6548 11.3722 18.6647C11.2026 18.6747 11.0356 18.6195 10.9053 18.5104C10.775 18.4014 10.6912 18.2467 10.6712 18.078L10.6665 18V15.3333C10.6665 15.1565 10.7367 14.9869 10.8618 14.8619C10.9868 14.7369 11.1564 14.6666 11.3332 14.6666Z" fill="#2563EB"/>
<path d="M13.9997 17.3333C14.1697 17.3334 14.3331 17.3985 14.4567 17.5152C14.5802 17.6318 14.6546 17.7912 14.6645 17.9608C14.6745 18.1305 14.6193 18.2975 14.5102 18.4278C14.4012 18.5581 14.2465 18.6418 14.0777 18.6619L13.9997 18.6666H8.66642C8.4965 18.6664 8.33306 18.6013 8.2095 18.4847C8.08595 18.368 8.01159 18.2086 8.00163 18.039C7.99168 17.8694 8.04687 17.7023 8.15593 17.572C8.26499 17.4417 8.41969 17.358 8.58842 17.3379L8.66642 17.3333H13.9997Z" fill="#2563EB"/>
</svg>
