 <svg width="18" height="18" viewBox="0 0 18 18" fill="none" xmlns="http://www.w3.org/2000/svg">
<path d="M17.2416 9.19499C17.2416 8.58623 17.187 8.00089 17.0855 7.43896H9V10.7637H13.6203C13.4174 11.8329 12.8086 12.7383 11.8955 13.347V15.5089H14.6817C16.3051 14.0104 17.2416 11.8095 17.2416 9.19499Z" fill="#4285F4"/>
<path d="M9 17.5852C11.318 17.5852 13.2613 16.8204 14.6817 15.5092L11.8955 13.3473C11.1306 13.8624 10.1551 14.1746 9 14.1746C6.7679 14.1746 4.8714 12.6683 4.1924 10.6392H1.33594V12.8557C2.74856 15.6575 5.64405 17.5852 9 17.5852Z" fill="#34A853"/>
<path d="M4.19146 10.6311C4.01976 10.116 3.9183 9.56972 3.9183 8.99998C3.9183 8.43025 4.01976 7.88393 4.19146 7.36883V5.15234H1.335C0.749658 6.30742 0.414062 7.61078 0.414062 8.99998C0.414062 10.3892 0.749658 11.6926 1.335 12.8476L3.55929 11.115L4.19146 10.6311Z" fill="#FBBC05"/>
<path d="M9 3.83343C10.2643 3.83343 11.3882 4.27048 12.2857 5.11337L14.7441 2.65494C13.2535 1.26573 11.318 0.415039 9 0.415039C5.64405 0.415039 2.74856 2.34276 1.33594 5.1524L4.1924 7.36889C4.8714 5.33971 6.7679 3.83343 9 3.83343Z" fill="#EA4335"/>
</svg>
