<svg width="328" height="164" viewBox="0 0 328 164" fill="none" xmlns="http://www.w3.org/2000/svg">
<mask id="mask0_202_6238" style="mask-type:alpha" maskUnits="userSpaceOnUse" x="0" y="0" width="328" height="164">
<rect width="328" height="164" fill="#D9D9D9"/>
</mask>
<g mask="url(#mask0_202_6238)">
<mask id="path-2-inside-1_202_6238" fill="white">
<path d="M328 164C328 139.909 322.692 116.114 312.455 94.3062C302.217 72.4987 287.3 53.2145 268.766 37.8248C250.231 22.4351 228.533 11.3178 205.215 5.26341C181.897 -0.790976 157.532 -1.63376 133.851 2.79497L138.374 26.9757C158.502 23.2113 179.213 23.9277 199.033 29.0739C218.853 34.2201 237.296 43.6698 253.051 56.7511C268.805 69.8323 281.484 86.2239 290.186 104.76C298.889 123.297 303.4 143.523 303.4 164H328Z"/>
</mask>
<path d="M328 164C328 139.909 322.692 116.114 312.455 94.3062C302.217 72.4987 287.3 53.2145 268.766 37.8248C250.231 22.4351 228.533 11.3178 205.215 5.26341C181.897 -0.790976 157.532 -1.63376 133.851 2.79497L138.374 26.9757C158.502 23.2113 179.213 23.9277 199.033 29.0739C218.853 34.2201 237.296 43.6698 253.051 56.7511C268.805 69.8323 281.484 86.2239 290.186 104.76C298.889 123.297 303.4 143.523 303.4 164H328Z" stroke="#E2E8F0" stroke-width="60" mask="url(#path-2-inside-1_202_6238)"/>
<mask id="path-3-inside-2_202_6238" fill="white">
<path d="M164 0C142.463 -2.56824e-07 121.137 4.24199 101.24 12.4838C81.3425 20.7255 63.2633 32.8057 48.0345 48.0345C32.8057 63.2633 20.7255 81.3425 12.4837 101.24C4.24198 121.137 -3.25196e-06 142.463 0 164L24.6 164C24.6 145.694 28.2057 127.567 35.2112 110.654C42.2167 93.7411 52.4848 78.3738 65.4293 65.4293C78.3738 52.4848 93.7411 42.2167 110.654 35.2112C127.567 28.2057 145.694 24.6 164 24.6V0Z"/>
</mask>
<path d="M164 0C142.463 -2.56824e-07 121.137 4.24199 101.24 12.4838C81.3425 20.7255 63.2633 32.8057 48.0345 48.0345C32.8057 63.2633 20.7255 81.3425 12.4837 101.24C4.24198 121.137 -3.25196e-06 142.463 0 164L24.6 164C24.6 145.694 28.2057 127.567 35.2112 110.654C42.2167 93.7411 52.4848 78.3738 65.4293 65.4293C78.3738 52.4848 93.7411 42.2167 110.654 35.2112C127.567 28.2057 145.694 24.6 164 24.6V0Z" stroke="#FBBF24" stroke-width="60" mask="url(#path-3-inside-2_202_6238)"/>
<mask id="path-4-inside-3_202_6238" fill="white">
<path d="M309.695 88.7077C295.873 61.9612 274.955 39.5357 249.234 23.8886C223.512 8.24151 193.98 -0.0232361 163.873 4.90504e-05L163.892 24.6C189.483 24.5802 214.585 31.6053 236.449 44.9053C258.312 58.2053 276.092 77.267 287.841 100.002L309.695 88.7077Z"/>
</mask>
<path d="M309.695 88.7077C295.873 61.9612 274.955 39.5357 249.234 23.8886C223.512 8.24151 193.98 -0.0232361 163.873 4.90504e-05L163.892 24.6C189.483 24.5802 214.585 31.6053 236.449 44.9053C258.312 58.2053 276.092 77.267 287.841 100.002L309.695 88.7077Z" stroke="#F43F5E" stroke-width="60" mask="url(#path-4-inside-3_202_6238)"/>
<mask id="path-5-inside-4_202_6238" fill="white">
<path d="M328 164C328 137.571 321.613 111.534 309.382 88.105L287.575 99.4893C297.971 119.404 303.4 141.535 303.4 164H328Z"/>
</mask>
<path d="M328 164C328 137.571 321.613 111.534 309.382 88.105L287.575 99.4893C297.971 119.404 303.4 141.535 303.4 164H328Z" stroke="#7C3AED" stroke-width="60" mask="url(#path-5-inside-4_202_6238)"/>
<path d="M108.363 106.192C108.027 106.192 107.739 106.136 107.499 106.024C107.275 105.928 107.083 105.792 106.923 105.616C106.779 105.44 106.643 105.256 106.515 105.064L103.563 100.624C103.355 100.288 103.131 100.016 102.891 99.808C102.667 99.6 102.411 99.456 102.123 99.376C101.851 99.28 101.523 99.232 101.139 99.232H98.7866C98.3866 99.232 98.0746 99.128 97.8506 98.92C97.6426 98.696 97.5386 98.392 97.5386 98.008C97.5386 97.624 97.6426 97.328 97.8506 97.12C98.0746 96.912 98.3866 96.808 98.7866 96.808H102.435C103.571 96.808 104.427 96.6 105.003 96.184C105.579 95.752 105.923 95.096 106.035 94.216L106.443 94.936H98.6906C98.3226 94.936 98.0346 94.848 97.8266 94.672C97.6346 94.48 97.5386 94.216 97.5386 93.88C97.5386 93.544 97.6346 93.288 97.8266 93.112C98.0346 92.92 98.3226 92.824 98.6906 92.824H106.443L105.987 93.496C105.859 92.728 105.515 92.152 104.955 91.768C104.395 91.384 103.595 91.192 102.555 91.192H98.6906C98.3226 91.192 98.0346 91.104 97.8266 90.928C97.6346 90.736 97.5386 90.472 97.5386 90.136C97.5386 89.8 97.6346 89.544 97.8266 89.368C98.0346 89.176 98.3226 89.08 98.6906 89.08H110.187C110.555 89.08 110.835 89.176 111.027 89.368C111.235 89.544 111.339 89.8 111.339 90.136C111.339 90.472 111.235 90.736 111.027 90.928C110.835 91.104 110.555 91.192 110.187 91.192H106.851L107.139 90.52C107.683 90.808 108.107 91.192 108.411 91.672C108.715 92.136 108.899 92.68 108.963 93.304L108.411 92.824H110.187C110.555 92.824 110.835 92.92 111.027 93.112C111.235 93.288 111.339 93.544 111.339 93.88C111.339 94.216 111.235 94.48 111.027 94.672C110.835 94.848 110.555 94.936 110.187 94.936H108.483L109.011 94.072C109.027 95.096 108.803 95.984 108.339 96.736C107.875 97.488 107.211 98.072 106.347 98.488C105.499 98.888 104.475 99.088 103.275 99.088V98.848H103.947C104.667 98.848 105.283 98.992 105.795 99.28C106.323 99.552 106.819 100.04 107.283 100.744L109.515 104.056C109.755 104.392 109.859 104.728 109.827 105.064C109.795 105.384 109.651 105.656 109.395 105.88C109.155 106.088 108.811 106.192 108.363 106.192ZM121.325 106C120.813 106 120.437 105.888 120.197 105.664C119.973 105.424 119.861 105.08 119.861 104.632C119.861 104.36 119.933 104.096 120.077 103.84C120.221 103.584 120.429 103.312 120.701 103.024L125.525 97.888C126.261 97.12 126.789 96.424 127.109 95.8C127.429 95.16 127.589 94.52 127.589 93.88C127.589 93.08 127.333 92.472 126.821 92.056C126.325 91.64 125.597 91.432 124.637 91.432C124.093 91.432 123.549 91.512 123.005 91.672C122.461 91.816 121.909 92.072 121.349 92.44C121.061 92.632 120.789 92.712 120.533 92.68C120.293 92.648 120.077 92.544 119.885 92.368C119.709 92.192 119.589 91.976 119.525 91.72C119.461 91.464 119.469 91.208 119.549 90.952C119.645 90.68 119.837 90.448 120.125 90.256C120.813 89.792 121.581 89.44 122.429 89.2C123.293 88.96 124.157 88.84 125.021 88.84C126.237 88.84 127.261 89.024 128.093 89.392C128.925 89.76 129.557 90.296 129.989 91C130.421 91.704 130.637 92.56 130.637 93.568C130.637 94.24 130.525 94.896 130.301 95.536C130.093 96.176 129.765 96.824 129.317 97.48C128.885 98.136 128.317 98.832 127.613 99.568L123.101 104.272V103.456H130.157C130.589 103.456 130.917 103.56 131.141 103.768C131.365 103.976 131.477 104.288 131.477 104.704C131.477 105.12 131.365 105.44 131.141 105.664C130.917 105.888 130.589 106 130.157 106H121.325ZM135.907 108.568C135.699 108.824 135.475 108.968 135.235 109C135.011 109.048 134.811 109.008 134.635 108.88C134.459 108.752 134.363 108.568 134.347 108.328C134.331 108.104 134.435 107.856 134.659 107.584C134.979 107.184 135.195 106.784 135.307 106.384C135.419 105.984 135.475 105.624 135.475 105.304L135.595 106.12C135.035 106.12 134.579 105.96 134.227 105.64C133.891 105.304 133.723 104.864 133.723 104.32C133.723 103.808 133.883 103.392 134.203 103.072C134.523 102.736 134.955 102.568 135.499 102.568C136.059 102.568 136.499 102.76 136.819 103.144C137.139 103.512 137.299 104.048 137.299 104.752C137.299 105.136 137.259 105.536 137.179 105.952C137.115 106.352 136.979 106.768 136.771 107.2C136.579 107.648 136.291 108.104 135.907 108.568ZM142.221 106C141.805 106 141.477 105.888 141.237 105.664C141.013 105.424 140.901 105.104 140.901 104.704C140.901 104.288 141.013 103.976 141.237 103.768C141.477 103.56 141.805 103.456 142.221 103.456H144.909V91.672H146.397L142.869 93.808C142.565 93.984 142.277 94.056 142.005 94.024C141.749 93.976 141.525 93.864 141.333 93.688C141.157 93.496 141.037 93.272 140.973 93.016C140.909 92.76 140.925 92.504 141.021 92.248C141.133 91.976 141.341 91.752 141.645 91.576L144.957 89.584C145.277 89.392 145.597 89.232 145.917 89.104C146.237 88.96 146.533 88.888 146.805 88.888C147.141 88.888 147.421 88.984 147.645 89.176C147.869 89.352 147.981 89.648 147.981 90.064V103.456H150.429C150.845 103.456 151.165 103.56 151.389 103.768C151.629 103.976 151.749 104.288 151.749 104.704C151.749 105.12 151.629 105.44 151.389 105.664C151.165 105.888 150.845 106 150.429 106H142.221ZM160.211 106.24C159.363 106.24 158.499 106.128 157.619 105.904C156.739 105.68 155.931 105.336 155.195 104.872C154.891 104.68 154.683 104.456 154.571 104.2C154.475 103.928 154.451 103.664 154.499 103.408C154.563 103.136 154.683 102.912 154.859 102.736C155.051 102.544 155.275 102.432 155.531 102.4C155.803 102.368 156.099 102.44 156.419 102.616C157.011 102.952 157.611 103.208 158.219 103.384C158.827 103.56 159.475 103.648 160.163 103.648C160.835 103.648 161.411 103.528 161.891 103.288C162.371 103.048 162.739 102.712 162.995 102.28C163.251 101.848 163.379 101.344 163.379 100.768C163.379 99.872 163.107 99.152 162.563 98.608C162.019 98.048 161.275 97.768 160.331 97.768C159.819 97.768 159.323 97.856 158.843 98.032C158.363 98.192 157.891 98.48 157.427 98.896C157.283 99.024 157.099 99.152 156.875 99.28C156.651 99.392 156.411 99.448 156.155 99.448C155.755 99.448 155.451 99.344 155.243 99.136C155.035 98.928 154.931 98.64 154.931 98.272V90.424C154.931 89.992 155.043 89.664 155.267 89.44C155.507 89.2 155.843 89.08 156.275 89.08H164.171C164.603 89.08 164.931 89.192 165.155 89.416C165.395 89.624 165.515 89.936 165.515 90.352C165.515 90.752 165.395 91.064 165.155 91.288C164.931 91.512 164.603 91.624 164.171 91.624H157.931V97H157.139C157.555 96.44 158.107 96.008 158.795 95.704C159.483 95.4 160.235 95.248 161.051 95.248C162.123 95.248 163.051 95.48 163.835 95.944C164.635 96.392 165.251 97.024 165.683 97.84C166.131 98.64 166.355 99.576 166.355 100.648C166.355 101.752 166.107 102.728 165.611 103.576C165.115 104.408 164.403 105.064 163.475 105.544C162.563 106.008 161.475 106.24 160.211 106.24ZM173.138 106.24C172.45 106.24 171.738 106.136 171.002 105.928C170.266 105.704 169.578 105.376 168.938 104.944C168.682 104.784 168.514 104.576 168.434 104.32C168.354 104.064 168.338 103.816 168.386 103.576C168.45 103.32 168.562 103.104 168.722 102.928C168.898 102.736 169.114 102.624 169.37 102.592C169.626 102.544 169.906 102.608 170.21 102.784C170.754 103.104 171.266 103.328 171.746 103.456C172.226 103.584 172.706 103.648 173.186 103.648C174.114 103.648 174.898 103.432 175.538 103C176.178 102.568 176.658 101.92 176.978 101.056C177.314 100.176 177.482 99.096 177.482 97.816V96.016H177.77C177.658 96.816 177.394 97.512 176.978 98.104C176.562 98.696 176.034 99.152 175.394 99.472C174.754 99.776 174.042 99.928 173.258 99.928C172.298 99.928 171.434 99.696 170.666 99.232C169.914 98.768 169.322 98.128 168.89 97.312C168.458 96.48 168.242 95.544 168.242 94.504C168.242 93.4 168.474 92.424 168.938 91.576C169.418 90.728 170.082 90.064 170.93 89.584C171.778 89.088 172.746 88.84 173.834 88.84C175.242 88.84 176.434 89.168 177.41 89.824C178.386 90.48 179.13 91.44 179.642 92.704C180.154 93.952 180.41 95.464 180.41 97.24C180.41 98.68 180.242 99.96 179.906 101.08C179.586 102.184 179.114 103.12 178.49 103.888C177.866 104.656 177.098 105.24 176.186 105.64C175.29 106.04 174.274 106.24 173.138 106.24ZM174.026 97.48C174.602 97.48 175.106 97.352 175.538 97.096C175.986 96.824 176.33 96.456 176.57 95.992C176.81 95.512 176.93 94.968 176.93 94.36C176.93 93.736 176.81 93.192 176.57 92.728C176.33 92.264 175.986 91.904 175.538 91.648C175.106 91.392 174.602 91.264 174.026 91.264C173.45 91.264 172.946 91.392 172.514 91.648C172.082 91.904 171.738 92.264 171.482 92.728C171.242 93.192 171.122 93.736 171.122 94.36C171.122 94.968 171.242 95.512 171.482 95.992C171.738 96.456 172.082 96.824 172.514 97.096C172.946 97.352 173.45 97.48 174.026 97.48ZM185.032 108.568C184.824 108.824 184.6 108.968 184.36 109C184.136 109.048 183.936 109.008 183.76 108.88C183.584 108.752 183.488 108.568 183.472 108.328C183.456 108.104 183.56 107.856 183.784 107.584C184.104 107.184 184.32 106.784 184.432 106.384C184.544 105.984 184.6 105.624 184.6 105.304L184.72 106.12C184.16 106.12 183.704 105.96 183.352 105.64C183.016 105.304 182.848 104.864 182.848 104.32C182.848 103.808 183.008 103.392 183.328 103.072C183.648 102.736 184.08 102.568 184.624 102.568C185.184 102.568 185.624 102.76 185.944 103.144C186.264 103.512 186.424 104.048 186.424 104.752C186.424 105.136 186.384 105.536 186.304 105.952C186.24 106.352 186.104 106.768 185.896 107.2C185.704 107.648 185.416 108.104 185.032 108.568ZM194.466 106.24C193.602 106.24 192.706 106.128 191.778 105.904C190.85 105.68 190.042 105.344 189.354 104.896C189.034 104.688 188.818 104.448 188.706 104.176C188.594 103.904 188.562 103.648 188.61 103.408C188.674 103.152 188.794 102.936 188.97 102.76C189.162 102.584 189.394 102.48 189.666 102.448C189.954 102.416 190.266 102.488 190.602 102.664C191.258 103.016 191.89 103.272 192.498 103.432C193.106 103.576 193.73 103.648 194.37 103.648C195.074 103.648 195.666 103.552 196.146 103.36C196.626 103.168 196.986 102.88 197.226 102.496C197.482 102.112 197.61 101.648 197.61 101.104C197.61 100.304 197.338 99.712 196.794 99.328C196.266 98.928 195.49 98.728 194.466 98.728H192.93C192.482 98.728 192.138 98.616 191.898 98.392C191.674 98.168 191.562 97.856 191.562 97.456C191.562 97.056 191.674 96.744 191.898 96.52C192.138 96.296 192.482 96.184 192.93 96.184H194.178C194.786 96.184 195.306 96.088 195.738 95.896C196.17 95.688 196.506 95.4 196.746 95.032C196.986 94.664 197.106 94.216 197.106 93.688C197.106 92.952 196.858 92.392 196.362 92.008C195.882 91.624 195.178 91.432 194.25 91.432C193.658 91.432 193.098 91.504 192.57 91.648C192.058 91.776 191.49 92.024 190.866 92.392C190.578 92.568 190.298 92.64 190.026 92.608C189.77 92.576 189.554 92.472 189.378 92.296C189.202 92.12 189.082 91.912 189.018 91.672C188.954 91.416 188.97 91.16 189.066 90.904C189.162 90.632 189.362 90.4 189.666 90.208C190.354 89.76 191.114 89.424 191.946 89.2C192.778 88.96 193.634 88.84 194.514 88.84C195.682 88.84 196.682 89.024 197.514 89.392C198.346 89.744 198.978 90.256 199.41 90.928C199.858 91.584 200.082 92.384 200.082 93.328C200.082 94 199.954 94.616 199.698 95.176C199.442 95.72 199.082 96.184 198.618 96.568C198.154 96.952 197.594 97.224 196.938 97.384V97.096C198.09 97.288 198.986 97.768 199.626 98.536C200.266 99.288 200.586 100.232 200.586 101.368C200.586 102.36 200.338 103.224 199.842 103.96C199.346 104.696 198.642 105.264 197.73 105.664C196.818 106.048 195.73 106.24 194.466 106.24ZM205.184 106C204.672 106 204.296 105.888 204.056 105.664C203.832 105.424 203.72 105.08 203.72 104.632C203.72 104.36 203.792 104.096 203.936 103.84C204.08 103.584 204.288 103.312 204.56 103.024L209.384 97.888C210.12 97.12 210.648 96.424 210.968 95.8C211.288 95.16 211.448 94.52 211.448 93.88C211.448 93.08 211.192 92.472 210.68 92.056C210.184 91.64 209.456 91.432 208.496 91.432C207.952 91.432 207.408 91.512 206.864 91.672C206.32 91.816 205.768 92.072 205.208 92.44C204.92 92.632 204.648 92.712 204.392 92.68C204.152 92.648 203.936 92.544 203.744 92.368C203.568 92.192 203.448 91.976 203.384 91.72C203.32 91.464 203.328 91.208 203.408 90.952C203.504 90.68 203.696 90.448 203.984 90.256C204.672 89.792 205.44 89.44 206.288 89.2C207.152 88.96 208.016 88.84 208.88 88.84C210.096 88.84 211.12 89.024 211.952 89.392C212.784 89.76 213.416 90.296 213.848 91C214.28 91.704 214.496 92.56 214.496 93.568C214.496 94.24 214.384 94.896 214.16 95.536C213.952 96.176 213.624 96.824 213.176 97.48C212.744 98.136 212.176 98.832 211.472 99.568L206.96 104.272V103.456H214.016C214.448 103.456 214.776 103.56 215 103.768C215.224 103.976 215.336 104.288 215.336 104.704C215.336 105.12 215.224 105.44 215 105.664C214.776 105.888 214.448 106 214.016 106H205.184ZM219.575 106C219.063 106 218.687 105.888 218.447 105.664C218.223 105.424 218.111 105.08 218.111 104.632C218.111 104.36 218.183 104.096 218.327 103.84C218.471 103.584 218.679 103.312 218.951 103.024L223.775 97.888C224.511 97.12 225.039 96.424 225.359 95.8C225.679 95.16 225.839 94.52 225.839 93.88C225.839 93.08 225.583 92.472 225.071 92.056C224.575 91.64 223.847 91.432 222.887 91.432C222.343 91.432 221.799 91.512 221.255 91.672C220.711 91.816 220.159 92.072 219.599 92.44C219.311 92.632 219.039 92.712 218.783 92.68C218.543 92.648 218.327 92.544 218.135 92.368C217.959 92.192 217.839 91.976 217.775 91.72C217.711 91.464 217.719 91.208 217.799 90.952C217.895 90.68 218.087 90.448 218.375 90.256C219.063 89.792 219.831 89.44 220.679 89.2C221.543 88.96 222.407 88.84 223.271 88.84C224.487 88.84 225.511 89.024 226.343 89.392C227.175 89.76 227.807 90.296 228.239 91C228.671 91.704 228.887 92.56 228.887 93.568C228.887 94.24 228.775 94.896 228.551 95.536C228.343 96.176 228.015 96.824 227.567 97.48C227.135 98.136 226.567 98.832 225.863 99.568L221.351 104.272V103.456H228.407C228.839 103.456 229.167 103.56 229.391 103.768C229.615 103.976 229.727 104.288 229.727 104.704C229.727 105.12 229.615 105.44 229.391 105.664C229.167 105.888 228.839 106 228.407 106H219.575Z" fill="#111827"/>
<rect x="96.7563" y="119" width="54.4875" height="18" rx="9" fill="#FEF2F2"/>
<path fill-rule="evenodd" clip-rule="evenodd" d="M114.492 131.249H112.494C112.084 131.249 111.744 130.909 111.744 130.499C111.744 130.089 112.084 129.749 112.494 129.749H112.684L110.414 127.479L109.324 129.119C109.204 129.309 108.994 129.429 108.774 129.449C108.544 129.469 108.324 129.389 108.174 129.229L104.974 126.029C104.684 125.739 104.684 125.259 104.974 124.969C105.264 124.679 105.744 124.679 106.034 124.969L108.584 127.519L109.674 125.879C109.794 125.699 109.994 125.579 110.224 125.549C110.454 125.529 110.674 125.609 110.824 125.769L113.744 128.689V128.499C113.744 128.089 114.084 127.749 114.494 127.749C114.904 127.749 115.244 128.089 115.244 128.499V130.499C115.244 130.61 115.219 130.717 115.174 130.813C115.138 130.891 115.088 130.965 115.024 131.029C114.874 131.179 114.684 131.249 114.494 131.249" fill="#DC2626"/>
<path d="M120.752 131C120.605 131 120.495 130.967 120.422 130.9C120.355 130.827 120.322 130.73 120.322 130.61C120.322 130.537 120.338 130.467 120.372 130.4C120.412 130.327 120.465 130.253 120.532 130.18L122.772 127.78C123.112 127.413 123.355 127.077 123.502 126.77C123.655 126.457 123.732 126.14 123.732 125.82C123.732 125.42 123.608 125.117 123.362 124.91C123.122 124.697 122.768 124.59 122.302 124.59C122.002 124.59 121.718 124.637 121.452 124.73C121.185 124.823 120.928 124.967 120.682 125.16C120.595 125.227 120.515 125.257 120.442 125.25C120.375 125.243 120.315 125.217 120.262 125.17C120.208 125.123 120.172 125.063 120.152 124.99C120.132 124.917 120.132 124.843 120.152 124.77C120.178 124.697 120.232 124.63 120.312 124.57C120.572 124.357 120.885 124.187 121.252 124.06C121.618 123.927 121.992 123.86 122.372 123.86C122.845 123.86 123.245 123.933 123.572 124.08C123.898 124.227 124.145 124.443 124.312 124.73C124.478 125.01 124.562 125.353 124.562 125.76C124.562 126.04 124.515 126.317 124.422 126.59C124.335 126.857 124.198 127.13 124.012 127.41C123.832 127.69 123.595 127.98 123.302 128.28L121.172 130.53V130.3H124.542C124.668 130.3 124.762 130.33 124.822 130.39C124.888 130.443 124.922 130.527 124.922 130.64C124.922 130.76 124.888 130.85 124.822 130.91C124.762 130.97 124.668 131 124.542 131H120.752ZM126.698 131.95C126.631 132.037 126.561 132.087 126.488 132.1C126.414 132.113 126.351 132.1 126.298 132.06C126.244 132.02 126.214 131.963 126.208 131.89C126.208 131.817 126.241 131.737 126.308 131.65C126.414 131.51 126.488 131.367 126.528 131.22C126.568 131.08 126.588 130.95 126.588 130.83L126.628 131.04C126.454 131.04 126.314 130.99 126.208 130.89C126.108 130.783 126.058 130.65 126.058 130.49C126.058 130.33 126.104 130.2 126.198 130.1C126.298 129.993 126.428 129.94 126.588 129.94C126.761 129.94 126.898 130 126.998 130.12C127.098 130.233 127.148 130.4 127.148 130.62C127.148 130.76 127.134 130.903 127.108 131.05C127.081 131.203 127.034 131.357 126.968 131.51C126.901 131.663 126.811 131.81 126.698 131.95ZM129.283 131C129.163 131 129.07 130.97 129.003 130.91C128.936 130.843 128.903 130.753 128.903 130.64C128.903 130.527 128.936 130.443 129.003 130.39C129.07 130.33 129.163 130.3 129.283 130.3H130.583V124.63H131.013L129.563 125.59C129.476 125.637 129.393 125.657 129.313 125.65C129.24 125.643 129.176 125.617 129.123 125.57C129.076 125.517 129.043 125.457 129.023 125.39C129.003 125.317 129.006 125.243 129.033 125.17C129.06 125.09 129.116 125.023 129.203 124.97L130.583 124.06C130.67 124.007 130.753 123.963 130.833 123.93C130.913 123.897 130.993 123.88 131.073 123.88C131.166 123.88 131.243 123.91 131.303 123.97C131.37 124.023 131.403 124.11 131.403 124.23V130.3H132.603C132.723 130.3 132.816 130.33 132.883 130.39C132.95 130.443 132.983 130.527 132.983 130.64C132.983 130.76 132.95 130.85 132.883 130.91C132.816 130.97 132.723 131 132.603 131H129.283ZM136.729 131.01C136.683 131.097 136.626 131.153 136.559 131.18C136.493 131.213 136.426 131.22 136.359 131.2C136.293 131.187 136.236 131.153 136.189 131.1C136.143 131.053 136.113 130.993 136.099 130.92C136.093 130.847 136.113 130.767 136.159 130.68L140.019 123.96C140.066 123.873 140.123 123.817 140.189 123.79C140.256 123.757 140.323 123.75 140.389 123.77C140.456 123.783 140.513 123.817 140.559 123.87C140.606 123.923 140.633 123.987 140.639 124.06C140.653 124.133 140.636 124.21 140.589 124.29L136.729 131.01ZM135.989 128.18C135.456 128.18 135.039 127.99 134.739 127.61C134.439 127.23 134.289 126.7 134.289 126.02C134.289 125.567 134.356 125.18 134.489 124.86C134.629 124.54 134.826 124.297 135.079 124.13C135.333 123.957 135.636 123.87 135.989 123.87C136.516 123.87 136.929 124.06 137.229 124.44C137.536 124.813 137.689 125.34 137.689 126.02C137.689 126.473 137.619 126.86 137.479 127.18C137.346 127.5 137.153 127.747 136.899 127.92C136.646 128.093 136.343 128.18 135.989 128.18ZM135.989 127.59C136.196 127.59 136.373 127.53 136.519 127.41C136.673 127.29 136.789 127.113 136.869 126.88C136.949 126.647 136.989 126.36 136.989 126.02C136.989 125.5 136.899 125.11 136.719 124.85C136.539 124.59 136.296 124.46 135.989 124.46C135.783 124.46 135.603 124.52 135.449 124.64C135.303 124.753 135.189 124.927 135.109 125.16C135.029 125.387 134.989 125.673 134.989 126.02C134.989 126.54 135.076 126.933 135.249 127.2C135.429 127.46 135.676 127.59 135.989 127.59ZM140.769 131.09C140.243 131.09 139.826 130.9 139.519 130.52C139.219 130.14 139.069 129.61 139.069 128.93C139.069 128.477 139.136 128.09 139.269 127.77C139.409 127.45 139.606 127.207 139.859 127.04C140.119 126.867 140.423 126.78 140.769 126.78C141.303 126.78 141.719 126.97 142.019 127.35C142.319 127.723 142.469 128.25 142.469 128.93C142.469 129.383 142.403 129.773 142.269 130.1C142.136 130.42 141.943 130.667 141.689 130.84C141.436 131.007 141.129 131.09 140.769 131.09ZM140.769 130.5C140.983 130.5 141.163 130.443 141.309 130.33C141.456 130.21 141.569 130.033 141.649 129.8C141.729 129.567 141.769 129.277 141.769 128.93C141.769 128.41 141.679 128.02 141.499 127.76C141.326 127.5 141.083 127.37 140.769 127.37C140.563 127.37 140.383 127.43 140.229 127.55C140.083 127.663 139.969 127.837 139.889 128.07C139.816 128.297 139.779 128.583 139.779 128.93C139.779 129.457 139.866 129.85 140.039 130.11C140.219 130.37 140.463 130.5 140.769 130.5Z" fill="#DC2626"/>
<path d="M156.866 131.07C156.739 131.07 156.639 131.033 156.566 130.96C156.499 130.887 156.466 130.783 156.466 130.65V126.77H155.826C155.719 126.77 155.633 126.743 155.566 126.69C155.506 126.63 155.476 126.55 155.476 126.45C155.476 126.35 155.506 126.273 155.566 126.22C155.633 126.167 155.719 126.14 155.826 126.14H156.686L156.466 126.35V125.97C156.466 125.337 156.619 124.853 156.926 124.52C157.239 124.187 157.696 123.993 158.296 123.94L158.586 123.91C158.679 123.903 158.753 123.92 158.806 123.96C158.866 124 158.903 124.05 158.916 124.11C158.936 124.17 158.939 124.233 158.926 124.3C158.913 124.36 158.883 124.413 158.836 124.46C158.789 124.507 158.733 124.533 158.666 124.54L158.436 124.56C158.029 124.593 157.733 124.717 157.546 124.93C157.366 125.143 157.276 125.457 157.276 125.87V126.29L157.156 126.14H158.356C158.469 126.14 158.556 126.167 158.616 126.22C158.676 126.273 158.706 126.35 158.706 126.45C158.706 126.55 158.676 126.63 158.616 126.69C158.556 126.743 158.469 126.77 158.356 126.77H157.276V130.65C157.276 130.93 157.139 131.07 156.866 131.07ZM159.946 131.07C159.813 131.07 159.709 131.033 159.636 130.96C159.569 130.887 159.536 130.783 159.536 130.65V126.48C159.536 126.347 159.569 126.247 159.636 126.18C159.703 126.107 159.799 126.07 159.926 126.07C160.053 126.07 160.149 126.107 160.216 126.18C160.289 126.247 160.326 126.347 160.326 126.48V127.29H160.226C160.333 126.897 160.536 126.593 160.836 126.38C161.136 126.167 161.506 126.053 161.946 126.04C162.046 126.033 162.126 126.057 162.186 126.11C162.246 126.157 162.279 126.24 162.286 126.36C162.293 126.473 162.266 126.563 162.206 126.63C162.146 126.697 162.053 126.737 161.926 126.75L161.766 126.77C161.313 126.81 160.963 126.957 160.716 127.21C160.476 127.457 160.356 127.797 160.356 128.23V130.65C160.356 130.783 160.319 130.887 160.246 130.96C160.179 131.033 160.079 131.07 159.946 131.07ZM165.082 131.09C164.608 131.09 164.198 130.987 163.852 130.78C163.505 130.573 163.235 130.283 163.042 129.91C162.855 129.53 162.762 129.083 162.762 128.57C162.762 128.183 162.815 127.837 162.922 127.53C163.028 127.217 163.185 126.95 163.392 126.73C163.598 126.51 163.842 126.343 164.122 126.23C164.408 126.11 164.728 126.05 165.082 126.05C165.555 126.05 165.965 126.153 166.312 126.36C166.658 126.567 166.925 126.86 167.112 127.24C167.305 127.613 167.402 128.057 167.402 128.57C167.402 128.957 167.348 129.303 167.242 129.61C167.135 129.917 166.978 130.183 166.772 130.41C166.565 130.63 166.318 130.8 166.032 130.92C165.752 131.033 165.435 131.09 165.082 131.09ZM165.082 130.44C165.382 130.44 165.645 130.367 165.872 130.22C166.098 130.073 166.272 129.86 166.392 129.58C166.518 129.3 166.582 128.963 166.582 128.57C166.582 127.963 166.445 127.5 166.172 127.18C165.905 126.86 165.542 126.7 165.082 126.7C164.775 126.7 164.508 126.773 164.282 126.92C164.062 127.06 163.888 127.27 163.762 127.55C163.642 127.823 163.582 128.163 163.582 128.57C163.582 129.17 163.718 129.633 163.992 129.96C164.265 130.28 164.628 130.44 165.082 130.44ZM169.038 131.07C168.905 131.07 168.805 131.033 168.738 130.96C168.671 130.887 168.638 130.783 168.638 130.65V126.48C168.638 126.347 168.671 126.247 168.738 126.18C168.805 126.107 168.901 126.07 169.028 126.07C169.155 126.07 169.251 126.107 169.318 126.18C169.391 126.247 169.428 126.347 169.428 126.48V127.36L169.318 127.22C169.445 126.847 169.648 126.56 169.928 126.36C170.215 126.153 170.555 126.05 170.948 126.05C171.361 126.05 171.695 126.15 171.948 126.35C172.208 126.543 172.381 126.847 172.468 127.26H172.318C172.438 126.887 172.651 126.593 172.958 126.38C173.271 126.16 173.635 126.05 174.048 126.05C174.415 126.05 174.715 126.12 174.948 126.26C175.188 126.4 175.368 126.613 175.488 126.9C175.608 127.18 175.668 127.537 175.668 127.97V130.65C175.668 130.783 175.631 130.887 175.558 130.96C175.491 131.033 175.391 131.07 175.258 131.07C175.131 131.07 175.031 131.033 174.958 130.96C174.891 130.887 174.858 130.783 174.858 130.65V128.01C174.858 127.563 174.781 127.237 174.628 127.03C174.475 126.817 174.215 126.71 173.848 126.71C173.448 126.71 173.131 126.85 172.898 127.13C172.671 127.403 172.558 127.777 172.558 128.25V130.65C172.558 130.783 172.521 130.887 172.448 130.96C172.381 131.033 172.281 131.07 172.148 131.07C172.021 131.07 171.921 131.033 171.848 130.96C171.781 130.887 171.748 130.783 171.748 130.65V128.01C171.748 127.563 171.668 127.237 171.508 127.03C171.355 126.817 171.098 126.71 170.738 126.71C170.338 126.71 170.021 126.85 169.788 127.13C169.561 127.403 169.448 127.777 169.448 128.25V130.65C169.448 130.93 169.311 131.07 169.038 131.07ZM181.241 131.09C180.761 131.09 180.394 130.943 180.141 130.65C179.887 130.357 179.761 129.937 179.761 129.39V124.29C179.761 124.157 179.794 124.057 179.861 123.99C179.927 123.917 180.027 123.88 180.161 123.88C180.287 123.88 180.387 123.917 180.461 123.99C180.534 124.057 180.571 124.157 180.571 124.29V129.33C180.571 129.69 180.641 129.96 180.781 130.14C180.927 130.313 181.141 130.4 181.421 130.4C181.481 130.4 181.534 130.397 181.581 130.39C181.627 130.383 181.674 130.38 181.721 130.38C181.794 130.373 181.844 130.39 181.871 130.43C181.904 130.47 181.921 130.55 181.921 130.67C181.921 130.79 181.894 130.88 181.841 130.94C181.787 131 181.701 131.04 181.581 131.06C181.527 131.067 181.471 131.073 181.411 131.08C181.351 131.087 181.294 131.09 181.241 131.09ZM184.25 131.09C183.916 131.09 183.616 131.027 183.35 130.9C183.09 130.767 182.883 130.587 182.73 130.36C182.576 130.133 182.5 129.88 182.5 129.6C182.5 129.24 182.59 128.957 182.77 128.75C182.956 128.543 183.26 128.397 183.68 128.31C184.106 128.223 184.686 128.18 185.42 128.18H185.87V128.71H185.43C184.89 128.71 184.463 128.737 184.15 128.79C183.843 128.837 183.626 128.92 183.5 129.04C183.38 129.16 183.32 129.33 183.32 129.55C183.32 129.823 183.413 130.047 183.6 130.22C183.793 130.393 184.053 130.48 184.38 130.48C184.646 130.48 184.88 130.417 185.08 130.29C185.286 130.163 185.446 129.99 185.56 129.77C185.68 129.55 185.74 129.297 185.74 129.01V127.87C185.74 127.457 185.656 127.16 185.49 126.98C185.323 126.793 185.05 126.7 184.67 126.7C184.436 126.7 184.203 126.73 183.97 126.79C183.736 126.85 183.49 126.947 183.23 127.08C183.136 127.127 183.056 127.143 182.99 127.13C182.923 127.11 182.87 127.073 182.83 127.02C182.79 126.967 182.766 126.907 182.76 126.84C182.753 126.767 182.766 126.697 182.8 126.63C182.84 126.563 182.9 126.51 182.98 126.47C183.273 126.323 183.563 126.217 183.85 126.15C184.136 126.083 184.41 126.05 184.67 126.05C185.09 126.05 185.436 126.12 185.71 126.26C185.983 126.393 186.186 126.6 186.32 126.88C186.453 127.153 186.52 127.507 186.52 127.94V130.65C186.52 130.783 186.486 130.887 186.42 130.96C186.36 131.033 186.27 131.07 186.15 131.07C186.023 131.07 185.926 131.033 185.86 130.96C185.793 130.887 185.76 130.783 185.76 130.65V129.87H185.85C185.796 130.123 185.693 130.34 185.54 130.52C185.393 130.7 185.21 130.84 184.99 130.94C184.77 131.04 184.523 131.09 184.25 131.09ZM189.662 131.09C189.362 131.09 189.059 131.053 188.752 130.98C188.452 130.907 188.172 130.78 187.912 130.6C187.846 130.553 187.799 130.5 187.772 130.44C187.746 130.373 187.736 130.31 187.742 130.25C187.756 130.183 187.782 130.127 187.822 130.08C187.869 130.033 187.922 130.007 187.982 130C188.049 129.987 188.122 130 188.202 130.04C188.462 130.2 188.712 130.313 188.952 130.38C189.199 130.44 189.442 130.47 189.682 130.47C190.062 130.47 190.349 130.4 190.542 130.26C190.736 130.12 190.832 129.93 190.832 129.69C190.832 129.503 190.769 129.357 190.642 129.25C190.516 129.137 190.316 129.05 190.042 128.99L189.132 128.79C188.712 128.703 188.399 128.553 188.192 128.34C187.992 128.127 187.892 127.85 187.892 127.51C187.892 127.21 187.969 126.953 188.122 126.74C188.282 126.52 188.506 126.35 188.792 126.23C189.079 126.11 189.412 126.05 189.792 126.05C190.086 126.05 190.362 126.09 190.622 126.17C190.889 126.243 191.129 126.363 191.342 126.53C191.409 126.577 191.452 126.633 191.472 126.7C191.499 126.76 191.502 126.823 191.482 126.89C191.469 126.95 191.439 127.003 191.392 127.05C191.346 127.09 191.289 127.113 191.222 127.12C191.156 127.127 191.086 127.107 191.012 127.06C190.812 126.927 190.609 126.83 190.402 126.77C190.196 126.703 189.992 126.67 189.792 126.67C189.419 126.67 189.136 126.743 188.942 126.89C188.749 127.037 188.652 127.23 188.652 127.47C188.652 127.657 188.712 127.81 188.832 127.93C188.952 128.05 189.139 128.137 189.392 128.19L190.302 128.38C190.736 128.473 191.059 128.623 191.272 128.83C191.492 129.03 191.602 129.303 191.602 129.65C191.602 130.09 191.426 130.44 191.072 130.7C190.719 130.96 190.249 131.09 189.662 131.09ZM194.738 131.09C194.358 131.09 194.038 131.023 193.778 130.89C193.525 130.75 193.335 130.55 193.208 130.29C193.081 130.023 193.018 129.7 193.018 129.32V126.77H192.348C192.235 126.77 192.148 126.743 192.088 126.69C192.028 126.63 191.998 126.55 191.998 126.45C191.998 126.35 192.028 126.273 192.088 126.22C192.148 126.167 192.235 126.14 192.348 126.14H193.018V124.99C193.018 124.857 193.055 124.757 193.128 124.69C193.201 124.617 193.301 124.58 193.428 124.58C193.555 124.58 193.651 124.617 193.718 124.69C193.791 124.757 193.828 124.857 193.828 124.99V126.14H195.088C195.201 126.14 195.288 126.167 195.348 126.22C195.408 126.273 195.438 126.35 195.438 126.45C195.438 126.55 195.408 126.63 195.348 126.69C195.288 126.743 195.201 126.77 195.088 126.77H193.828V129.24C193.828 129.62 193.908 129.91 194.068 130.11C194.228 130.303 194.488 130.4 194.848 130.4C194.975 130.4 195.081 130.387 195.168 130.36C195.261 130.333 195.338 130.32 195.398 130.32C195.458 130.313 195.508 130.333 195.548 130.38C195.588 130.427 195.608 130.507 195.608 130.62C195.608 130.7 195.591 130.773 195.558 130.84C195.531 130.907 195.481 130.953 195.408 130.98C195.328 131.007 195.221 131.03 195.088 131.05C194.961 131.077 194.845 131.09 194.738 131.09ZM202.772 132.87C202.639 132.87 202.536 132.833 202.462 132.76C202.396 132.693 202.362 132.593 202.362 132.46V129.86H202.472C202.366 130.233 202.156 130.533 201.842 130.76C201.529 130.98 201.152 131.09 200.712 131.09C200.279 131.09 199.899 130.987 199.572 130.78C199.252 130.573 199.002 130.283 198.822 129.91C198.649 129.53 198.562 129.083 198.562 128.57C198.562 128.05 198.649 127.603 198.822 127.23C199.002 126.85 199.252 126.56 199.572 126.36C199.899 126.153 200.279 126.05 200.712 126.05C201.152 126.05 201.529 126.163 201.842 126.39C202.162 126.61 202.376 126.91 202.482 127.29L202.372 127.43V126.48C202.372 126.347 202.406 126.247 202.472 126.18C202.546 126.107 202.646 126.07 202.772 126.07C202.906 126.07 203.006 126.107 203.072 126.18C203.139 126.247 203.172 126.347 203.172 126.48V132.46C203.172 132.593 203.136 132.693 203.062 132.76C202.996 132.833 202.899 132.87 202.772 132.87ZM200.882 130.44C201.182 130.44 201.446 130.367 201.672 130.22C201.899 130.073 202.072 129.86 202.192 129.58C202.319 129.3 202.382 128.963 202.382 128.57C202.382 127.963 202.246 127.5 201.972 127.18C201.706 126.86 201.342 126.7 200.882 126.7C200.576 126.7 200.309 126.773 200.082 126.92C199.862 127.06 199.689 127.27 199.562 127.55C199.442 127.823 199.382 128.163 199.382 128.57C199.382 129.17 199.519 129.633 199.792 129.96C200.066 130.28 200.429 130.44 200.882 130.44ZM206.412 131.09C206.019 131.09 205.692 131.02 205.432 130.88C205.179 130.733 204.986 130.517 204.852 130.23C204.726 129.943 204.662 129.587 204.662 129.16V126.48C204.662 126.34 204.696 126.237 204.762 126.17C204.836 126.103 204.936 126.07 205.062 126.07C205.196 126.07 205.296 126.103 205.362 126.17C205.436 126.237 205.472 126.34 205.472 126.48V129.15C205.472 129.577 205.559 129.897 205.732 130.11C205.912 130.317 206.192 130.42 206.572 130.42C206.986 130.42 207.322 130.28 207.582 130C207.842 129.72 207.972 129.353 207.972 128.9V126.48C207.972 126.34 208.006 126.237 208.072 126.17C208.146 126.103 208.249 126.07 208.382 126.07C208.509 126.07 208.606 126.103 208.672 126.17C208.746 126.237 208.782 126.34 208.782 126.48V130.65C208.782 130.93 208.652 131.07 208.392 131.07C208.266 131.07 208.166 131.033 208.092 130.96C208.026 130.887 207.992 130.783 207.992 130.65V129.74L208.122 129.88C207.989 130.273 207.769 130.573 207.462 130.78C207.162 130.987 206.812 131.09 206.412 131.09ZM211.828 131.09C211.495 131.09 211.195 131.027 210.928 130.9C210.668 130.767 210.461 130.587 210.308 130.36C210.155 130.133 210.078 129.88 210.078 129.6C210.078 129.24 210.168 128.957 210.348 128.75C210.535 128.543 210.838 128.397 211.258 128.31C211.685 128.223 212.265 128.18 212.998 128.18H213.448V128.71H213.008C212.468 128.71 212.041 128.737 211.728 128.79C211.421 128.837 211.205 128.92 211.078 129.04C210.958 129.16 210.898 129.33 210.898 129.55C210.898 129.823 210.991 130.047 211.178 130.22C211.371 130.393 211.631 130.48 211.958 130.48C212.225 130.48 212.458 130.417 212.658 130.29C212.865 130.163 213.025 129.99 213.138 129.77C213.258 129.55 213.318 129.297 213.318 129.01V127.87C213.318 127.457 213.235 127.16 213.068 126.98C212.901 126.793 212.628 126.7 212.248 126.7C212.015 126.7 211.781 126.73 211.548 126.79C211.315 126.85 211.068 126.947 210.808 127.08C210.715 127.127 210.635 127.143 210.568 127.13C210.501 127.11 210.448 127.073 210.408 127.02C210.368 126.967 210.345 126.907 210.338 126.84C210.331 126.767 210.345 126.697 210.378 126.63C210.418 126.563 210.478 126.51 210.558 126.47C210.851 126.323 211.141 126.217 211.428 126.15C211.715 126.083 211.988 126.05 212.248 126.05C212.668 126.05 213.015 126.12 213.288 126.26C213.561 126.393 213.765 126.6 213.898 126.88C214.031 127.153 214.098 127.507 214.098 127.94V130.65C214.098 130.783 214.065 130.887 213.998 130.96C213.938 131.033 213.848 131.07 213.728 131.07C213.601 131.07 213.505 131.033 213.438 130.96C213.371 130.887 213.338 130.783 213.338 130.65V129.87H213.428C213.375 130.123 213.271 130.34 213.118 130.52C212.971 130.7 212.788 130.84 212.568 130.94C212.348 131.04 212.101 131.09 211.828 131.09ZM216.011 131.07C215.877 131.07 215.774 131.033 215.701 130.96C215.634 130.887 215.601 130.783 215.601 130.65V126.48C215.601 126.347 215.634 126.247 215.701 126.18C215.767 126.107 215.864 126.07 215.991 126.07C216.117 126.07 216.214 126.107 216.281 126.18C216.354 126.247 216.391 126.347 216.391 126.48V127.29H216.291C216.397 126.897 216.601 126.593 216.901 126.38C217.201 126.167 217.571 126.053 218.011 126.04C218.111 126.033 218.191 126.057 218.251 126.11C218.311 126.157 218.344 126.24 218.351 126.36C218.357 126.473 218.331 126.563 218.271 126.63C218.211 126.697 218.117 126.737 217.991 126.75L217.831 126.77C217.377 126.81 217.027 126.957 216.781 127.21C216.541 127.457 216.421 127.797 216.421 128.23V130.65C216.421 130.783 216.384 130.887 216.311 130.96C216.244 131.033 216.144 131.07 216.011 131.07ZM221.398 131.09C221.018 131.09 220.698 131.023 220.438 130.89C220.185 130.75 219.995 130.55 219.868 130.29C219.742 130.023 219.678 129.7 219.678 129.32V126.77H219.008C218.895 126.77 218.808 126.743 218.748 126.69C218.688 126.63 218.658 126.55 218.658 126.45C218.658 126.35 218.688 126.273 218.748 126.22C218.808 126.167 218.895 126.14 219.008 126.14H219.678V124.99C219.678 124.857 219.715 124.757 219.788 124.69C219.862 124.617 219.962 124.58 220.088 124.58C220.215 124.58 220.312 124.617 220.378 124.69C220.452 124.757 220.488 124.857 220.488 124.99V126.14H221.748C221.862 126.14 221.948 126.167 222.008 126.22C222.068 126.273 222.098 126.35 222.098 126.45C222.098 126.55 222.068 126.63 222.008 126.69C221.948 126.743 221.862 126.77 221.748 126.77H220.488V129.24C220.488 129.62 220.568 129.91 220.728 130.11C220.888 130.303 221.148 130.4 221.508 130.4C221.635 130.4 221.742 130.387 221.828 130.36C221.922 130.333 221.998 130.32 222.058 130.32C222.118 130.313 222.168 130.333 222.208 130.38C222.248 130.427 222.268 130.507 222.268 130.62C222.268 130.7 222.252 130.773 222.218 130.84C222.192 130.907 222.142 130.953 222.068 130.98C221.988 131.007 221.882 131.03 221.748 131.05C221.622 131.077 221.505 131.09 221.398 131.09ZM225.085 131.09C224.572 131.09 224.129 130.99 223.755 130.79C223.389 130.583 223.102 130.293 222.895 129.92C222.695 129.547 222.595 129.1 222.595 128.58C222.595 128.073 222.695 127.633 222.895 127.26C223.095 126.88 223.369 126.583 223.715 126.37C224.069 126.157 224.475 126.05 224.935 126.05C225.262 126.05 225.555 126.107 225.815 126.22C226.075 126.327 226.295 126.483 226.475 126.69C226.662 126.897 226.802 127.147 226.895 127.44C226.995 127.733 227.045 128.063 227.045 128.43C227.045 128.537 227.015 128.617 226.955 128.67C226.895 128.717 226.809 128.74 226.695 128.74H223.215V128.21H226.505L226.345 128.34C226.345 127.98 226.292 127.677 226.185 127.43C226.079 127.177 225.922 126.983 225.715 126.85C225.515 126.717 225.262 126.65 224.955 126.65C224.615 126.65 224.325 126.73 224.085 126.89C223.852 127.043 223.675 127.26 223.555 127.54C223.435 127.813 223.375 128.133 223.375 128.5V128.56C223.375 129.173 223.522 129.64 223.815 129.96C224.115 130.28 224.539 130.44 225.085 130.44C225.312 130.44 225.535 130.41 225.755 130.35C225.982 130.29 226.202 130.19 226.415 130.05C226.509 129.99 226.592 129.963 226.665 129.97C226.745 129.97 226.809 129.993 226.855 130.04C226.902 130.08 226.932 130.133 226.945 130.2C226.965 130.26 226.959 130.327 226.925 130.4C226.899 130.473 226.842 130.537 226.755 130.59C226.535 130.75 226.275 130.873 225.975 130.96C225.675 131.047 225.379 131.09 225.085 131.09ZM228.628 131.07C228.494 131.07 228.391 131.033 228.318 130.96C228.251 130.887 228.218 130.783 228.218 130.65V126.48C228.218 126.347 228.251 126.247 228.318 126.18C228.384 126.107 228.481 126.07 228.608 126.07C228.734 126.07 228.831 126.107 228.898 126.18C228.971 126.247 229.008 126.347 229.008 126.48V127.29H228.908C229.014 126.897 229.218 126.593 229.518 126.38C229.818 126.167 230.188 126.053 230.628 126.04C230.728 126.033 230.808 126.057 230.868 126.11C230.928 126.157 230.961 126.24 230.968 126.36C230.974 126.473 230.948 126.563 230.888 126.63C230.828 126.697 230.734 126.737 230.608 126.75L230.448 126.77C229.994 126.81 229.644 126.957 229.398 127.21C229.158 127.457 229.038 127.797 229.038 128.23V130.65C229.038 130.783 229.001 130.887 228.928 130.96C228.861 131.033 228.761 131.07 228.628 131.07Z" fill="#9CA3AF"/>
</g>
</svg>
