<svg width="26" height="26" viewBox="0 0 26 26" fill="none" xmlns="http://www.w3.org/2000/svg">
<rect width="26" height="26" rx="3.12076" fill="#3C7167"/>
<path d="M15.9019 10.8957L18.5214 10.8359C18.628 10.8359 18.6813 10.9356 18.6813 11.1349C18.6813 11.3209 18.628 11.4139 18.5214 11.4139H18.0215C17.7282 11.4139 17.5816 11.6597 17.5816 12.1513C17.5816 12.3638 17.6749 13.4135 17.8615 15.3001C18.0615 17.1867 18.1881 18.4157 18.2414 18.987C18.3081 19.5583 18.2851 19.5619 18.3523 19.5955L19.4812 19.844C19.6012 19.844 19.6612 19.9503 19.6612 20.1628C19.6612 20.3621 19.6078 20.4618 19.5012 20.4618L17.5416 20.4418L15.5219 20.5016C15.4286 20.5016 15.382 20.402 15.382 20.2027C15.382 20.0034 15.422 19.9037 15.502 19.9037L16.4057 19.7297C16.7656 19.7297 16.6673 19.3641 16.6406 19.0585C16.374 15.3384 16.2085 13.6194 16.1818 13.1278H16.1018C14.8621 15.7319 13.8356 18.0902 13.0224 20.2027C12.9691 20.3223 12.8358 20.3821 12.6225 20.3821C12.4225 20.3821 12.2959 20.3156 12.2426 20.1828C11.8826 19.2527 10.9095 16.8479 9.32313 12.9684H9.26314C9.06318 15.7186 8.9632 17.3462 8.9632 17.851C8.9632 18.3559 8.9632 18.6283 8.9632 18.6681C8.9632 19.452 8.88292 19.629 9.12287 19.629L9.94301 19.844C10.0763 19.844 10.143 19.9503 10.143 20.1628C10.143 20.3621 10.0763 20.4618 9.94301 20.4618L8.34332 20.4418L6.42369 20.5016C6.3437 20.5016 6.30371 20.402 6.30371 20.2027C6.30371 20.0034 6.35037 19.9037 6.44368 19.9037C6.94138 19.7633 7.14275 19.7633 7.57904 19.629C7.65903 19.5493 7.63679 19.6247 7.66345 19.5052C7.75677 18.9604 7.89674 17.778 8.08337 15.9578C8.28333 14.1376 8.38331 13.0215 8.38331 12.6096C8.39664 12.1845 8.36998 11.8855 8.30333 11.7128C8.25001 11.5401 8.14336 11.4537 7.98339 11.4537H7.4235C7.34351 11.4537 7.30352 11.3541 7.30352 11.1548C7.30352 10.9422 7.34351 10.8359 7.4235 10.8359L9.34313 10.8957H10.2829C10.4029 11.2412 11.2828 13.646 12.9224 18.1101H13.0024C13.9356 16.1172 14.9021 13.7124 15.9019 10.8957Z" fill="#F7EEE7"/>
<path d="M12.8699 5.44501C12.9002 5.29735 13.1129 5.30264 13.1358 5.45162L13.5869 8.3835C13.5959 8.44194 13.6418 8.48775 13.7003 8.49657L16.0865 8.85658C16.2342 8.87887 16.2419 9.08901 16.0962 9.12199L13.6908 9.66635C13.6371 9.67849 13.5962 9.72195 13.5873 9.77623L13.1357 12.5242C13.1115 12.6712 12.9022 12.6767 12.8703 12.5312L12.2651 9.76907C12.254 9.71852 12.2151 9.67874 12.1647 9.66662L9.90198 9.12151C9.75845 9.08693 9.76643 8.88013 9.9122 8.85672L12.1548 8.49655C12.2103 8.48764 12.2545 8.44532 12.2658 8.39028L12.8699 5.44501Z" fill="#F7EEE7"/>
<path d="M10.3961 5.53402C10.4256 5.3853 10.64 5.39045 10.6623 5.54043L10.7555 6.16686C10.7642 6.22534 10.8099 6.27138 10.8683 6.2805L11.308 6.34914C11.4547 6.37203 11.4625 6.58038 11.318 6.61422L10.8585 6.7218C10.805 6.73432 10.7645 6.77795 10.7558 6.83218L10.6622 7.42203C10.6386 7.57004 10.4276 7.57544 10.3965 7.42883L10.2687 6.82518C10.2579 6.7746 10.2193 6.73457 10.1691 6.72206L9.73439 6.61371C9.59209 6.57824 9.60025 6.37332 9.74492 6.34929L10.1589 6.28049C10.2144 6.27127 10.2584 6.22865 10.2693 6.17347L10.3961 5.53402Z" fill="#F7EEE7"/>
<path d="M15.2184 5.53402C15.2479 5.3853 15.4623 5.39045 15.4846 5.54043L15.5777 6.16686C15.5864 6.22534 15.6321 6.27138 15.6906 6.2805L16.1303 6.34914C16.277 6.37203 16.2848 6.58038 16.1403 6.61422L15.6808 6.7218C15.6273 6.73432 15.5867 6.77795 15.5781 6.83218L15.4844 7.42203C15.4609 7.57004 15.2498 7.57544 15.2188 7.42883L15.0909 6.82518C15.0802 6.7746 15.0416 6.73457 14.9914 6.72206L14.5567 6.61371C14.4144 6.57824 14.4225 6.37332 14.5672 6.34929L14.9812 6.28049C15.0367 6.27127 15.0807 6.22865 15.0916 6.17347L15.2184 5.53402Z" fill="#F7EEE7"/>
</svg>
