<svg width="54" height="55" viewBox="0 0 54 55" fill="none" xmlns="http://www.w3.org/2000/svg">
<rect y="0.5" width="54" height="54" rx="27" fill="#3C7167"/>
<path d="M33.0274 23.13L38.4679 23.0059C38.6894 23.0059 38.8002 23.2128 38.8002 23.6267C38.8002 24.0131 38.6894 24.2062 38.4679 24.2062H37.4297C36.8205 24.2062 36.516 24.7167 36.516 25.7377C36.516 26.1792 36.7098 28.3592 37.0974 32.2776C37.5127 36.196 37.7757 38.7484 37.8865 39.935C38.0249 41.1216 37.9773 41.129 38.1167 41.1987L40.4614 41.7148C40.7106 41.7148 40.8352 41.9356 40.8352 42.3771C40.8352 42.791 40.7244 42.998 40.5029 42.998L36.4329 42.9566L32.2383 43.0808C32.0445 43.0808 31.9476 42.8738 31.9476 42.4599C31.9476 42.046 32.0307 41.839 32.1968 41.839L34.0738 41.4775C34.8214 41.4775 34.6171 40.7181 34.5618 40.0835C34.008 32.357 33.6642 28.7869 33.6088 27.7659H33.4427C30.8678 33.1744 28.7359 38.0724 27.047 42.4599C26.9363 42.7082 26.6594 42.8324 26.2164 42.8324C25.8011 42.8324 25.5381 42.6944 25.4273 42.4185C24.6798 40.4869 22.6586 35.4923 19.3639 27.4348H19.2393C18.824 33.1468 18.6163 36.5271 18.6163 37.5757C18.6163 38.6243 18.6163 39.1899 18.6163 39.2727C18.6163 40.9008 18.4496 41.2684 18.9479 41.2684L20.6513 41.7148C20.9282 41.7148 21.0666 41.9356 21.0666 42.3771C21.0666 42.791 20.9282 42.998 20.6513 42.998L17.3289 42.9566L13.342 43.0808C13.1758 43.0808 13.0928 42.8738 13.0928 42.4599C13.0928 42.046 13.1897 41.839 13.3835 41.839C14.4172 41.5473 14.8354 41.5473 15.7415 41.2684C15.9077 41.1029 15.8615 41.2595 15.9168 41.0112C16.1107 39.8798 16.4014 37.4239 16.789 33.6435C17.2043 29.8631 17.4119 27.5451 17.4119 26.6897C17.4396 25.8067 17.3843 25.1858 17.2458 24.8271C17.1351 24.4684 16.9136 24.289 16.5813 24.289H15.4185C15.2524 24.289 15.1693 24.082 15.1693 23.6681C15.1693 23.2266 15.2524 23.0059 15.4185 23.0059L19.4054 23.13H21.3573C21.6065 23.8475 23.4339 28.8421 26.8394 38.1138H27.0055C28.9436 33.9746 30.9509 28.98 33.0274 23.13Z" fill="#F7EEE7"/>
<path d="M26.729 11.8057C26.7919 11.499 27.2337 11.51 27.2813 11.8194L28.2181 17.9087C28.2368 18.0301 28.3322 18.1252 28.4536 18.1435L33.4096 18.8912C33.7165 18.9375 33.7324 19.374 33.4297 19.4425L28.4339 20.5731C28.3224 20.5983 28.2374 20.6885 28.2189 20.8013L27.2809 26.5087C27.2308 26.8139 26.7961 26.8254 26.7299 26.5232L25.4728 20.7864C25.4498 20.6814 25.3689 20.5988 25.2644 20.5736L20.5648 19.4415C20.2667 19.3697 20.2833 18.9402 20.5861 18.8915L25.2438 18.1435C25.359 18.125 25.4507 18.0371 25.4742 17.9228L26.729 11.8057Z" fill="#F7EEE7"/>
<path d="M21.591 11.9901C21.6522 11.6812 22.0976 11.692 22.1439 12.0034L22.3373 13.3045C22.3554 13.426 22.4503 13.5216 22.5717 13.5405L23.485 13.6831C23.7896 13.7306 23.8059 14.1633 23.5057 14.2336L22.5513 14.4571C22.4403 14.4831 22.356 14.5737 22.3381 14.6863L22.1435 15.9114C22.0947 16.2188 21.6563 16.23 21.5918 15.9255L21.3263 14.6718C21.304 14.5667 21.2238 14.4836 21.1196 14.4576L20.2166 14.2326C19.9211 14.1589 19.938 13.7333 20.2385 13.6834L21.0984 13.5405C21.2136 13.5213 21.3049 13.4328 21.3277 13.3182L21.591 11.9901Z" fill="#F7EEE7"/>
<path d="M31.6061 11.9901C31.6674 11.6812 32.1127 11.692 32.159 12.0034L32.3525 13.3045C32.3705 13.426 32.4655 13.5216 32.5868 13.5405L33.5001 13.6831C33.8047 13.7306 33.821 14.1633 33.5208 14.2336L32.5665 14.4571C32.4554 14.4831 32.3712 14.5737 32.3533 14.6863L32.1587 15.9114C32.1098 16.2188 31.6714 16.23 31.6069 15.9255L31.3414 14.6718C31.3192 14.5667 31.2389 14.4836 31.1347 14.4576L30.2318 14.2326C29.9362 14.1589 29.9532 13.7333 30.2536 13.6834L31.1135 13.5405C31.2287 13.5213 31.3201 13.4328 31.3428 13.3182L31.6061 11.9901Z" fill="#F7EEE7"/>
</svg>
