<svg width="887" height="326" viewBox="0 0 887 326" fill="none" xmlns="http://www.w3.org/2000/svg">
<rect width="886.743" height="325.941" fill="#1E3C34"/>
<path d="M695.324 110.99V109.949H769.855V124.002H768.814V123.585C768.814 116.611 755.073 110.99 731.132 110.99H713.853V155.75C716.975 152.731 721.139 150.962 725.927 150.962C736.233 150.962 741.958 157.416 751.118 157.416C755.073 157.416 758.821 155.126 758.821 151.482H759.862C759.862 157.624 754.761 162.933 746.538 162.933C733.838 162.933 728.53 153.981 721.139 153.772C718.12 153.668 715.518 155.23 713.853 157.416V213.001H727.176C737.065 213.001 768.814 211.856 768.814 196.867H769.855V214.042H695.324V213.001C704.276 213.001 704.901 205.611 704.901 185.104V138.887C704.901 118.381 704.276 110.99 695.324 110.99Z" fill="#E7DDCA"/>
<path d="M632.083 151.567V150.936H660.058V151.567C651.148 151.567 650.526 156.047 650.526 168.479V196.498C650.526 208.93 651.148 213.411 660.058 213.411V214.042H632.083V213.411C640.994 213.411 641.615 208.93 641.615 196.498V168.479C641.615 156.047 640.994 151.567 632.083 151.567Z" fill="#E7DDCA"/>
<path d="M511.896 214.042V213.001C520.848 213.001 521.473 205.611 521.473 185.104V138.887C521.473 118.381 520.848 110.99 511.896 110.99V109.949H524.388C535.838 109.949 543.229 107.867 555.303 107.867C577.475 107.867 589.862 120.15 589.862 137.117C589.862 151.378 578.204 164.286 560.092 164.286C550.307 164.286 543.645 157.624 539.273 157.624C538.024 157.624 536.254 157.936 536.254 160.33C536.254 167.096 558.218 168.553 566.649 181.669C574.873 194.473 584.553 213.001 596.42 213.001V214.042H580.494C575.706 214.042 572.791 207.484 556.344 182.814C546.247 167.617 535.213 167.2 535.213 160.122C535.213 157.624 536.983 156.583 538.857 156.583C544.998 156.583 549.786 162.516 559.467 162.516C572.479 162.516 580.91 149.713 580.91 137.221C580.91 119.942 568.731 109.324 549.37 109.324C541.667 109.324 536.671 110.365 530.321 112.655V185.104C530.321 205.611 530.946 213.001 539.898 213.001V214.042H511.896Z" fill="#E7DDCA"/>
<path d="M391.974 214.042V213.001C400.926 213.001 401.55 205.611 401.55 185.104V138.887C401.55 118.381 400.926 110.99 391.974 110.99V109.949H404.465C415.915 109.949 423.306 107.867 435.381 107.867C457.553 107.867 469.94 120.15 469.94 137.117C469.94 151.378 458.281 164.286 440.169 164.286C430.384 164.286 423.722 157.624 419.35 157.624C418.101 157.624 416.332 157.936 416.332 160.33C416.332 167.096 438.295 168.553 446.727 181.669C454.95 194.473 464.631 213.001 476.497 213.001V214.042H460.571C455.783 214.042 452.868 207.484 436.422 182.814C426.325 167.617 415.291 167.2 415.291 160.122C415.291 157.624 417.06 156.583 418.934 156.583C425.075 156.583 429.864 162.516 439.544 162.516C452.556 162.516 460.988 149.713 460.988 137.221C460.988 119.942 448.809 109.324 429.447 109.324C421.744 109.324 416.748 110.365 410.398 112.655V185.104C410.398 205.611 411.023 213.001 419.975 213.001V214.042H391.974Z" fill="#E7DDCA"/>
<path d="M307.118 215.993C274.901 215.993 249.541 193.147 249.541 161.994C249.541 130.842 274.901 107.996 307.118 107.996C339.335 107.996 364.694 130.842 364.694 161.994C364.694 193.147 339.335 215.993 307.118 215.993ZM307.118 109.242C280.335 109.242 261.186 131.672 261.186 161.994C261.186 192.316 282.146 214.747 307.118 214.747C332.089 214.747 353.05 192.316 353.05 161.994C353.05 131.672 333.9 109.242 307.118 109.242Z" fill="#E7DDCA"/>
<path d="M116.042 109.949H132.801L172.773 193.848L204.001 109.949H222.321V110.99C213.369 110.99 212.744 118.381 212.744 138.887V185.104C212.744 205.611 213.369 213.001 222.321 213.001V214.042H194.216V213.001C203.168 213.001 203.792 205.611 203.792 185.104V113.384C192.55 143.467 182.037 172.093 169.233 206.443H168.297C151.954 171.468 142.586 151.274 126.764 117.34L126.659 161.996V175.216C126.659 205.507 135.195 213.001 144.147 213.001V214.042H116.042V213.001C124.994 213.001 125.618 205.611 125.618 185.104V138.887C125.618 118.381 124.994 110.99 116.042 110.99V109.949Z" fill="#E7DDCA"/>
<path d="M646.071 100.189L648.346 118.074L663.948 120.683L648.346 123.291L646.071 141.176L643.795 123.291L628.194 120.683L643.795 118.074L646.071 100.189Z" fill="#E7DDCA"/>
<path d="M632.99 101.061L633.6 106.007L637.786 106.729L633.6 107.45L632.99 112.397L632.379 107.45L628.194 106.729L632.379 106.007L632.99 101.061Z" fill="#E7DDCA"/>
<path d="M658.28 128.096L658.89 133.043L663.076 133.764L658.89 134.486L658.28 139.432L657.669 134.486L653.483 133.764L657.669 133.043L658.28 128.096Z" fill="#E7DDCA"/>
<path d="M308.05 152.887L309.546 160.055L316.183 161.67L309.546 163.284L308.05 170.452L306.555 163.284L299.918 161.67L306.555 160.055L308.05 152.887Z" fill="white"/>
</svg>
