<svg width="654" height="116" viewBox="0 0 654 116" fill="none" xmlns="http://www.w3.org/2000/svg">
<path d="M579.282 10.8007V9.75977H653.813V23.8123H652.772V23.396C652.772 16.4217 639.031 10.8007 615.09 10.8007H597.811V55.5607C600.933 52.542 605.097 50.7724 609.885 50.7724C620.191 50.7724 625.916 57.2262 635.076 57.2262C639.031 57.2262 642.779 54.9361 642.779 51.2929H643.82C643.82 57.4344 638.719 62.7431 630.496 62.7431C617.796 62.7431 612.488 53.7911 605.097 53.5829C602.078 53.4789 599.476 55.0402 597.811 57.2262V112.812H611.135C621.023 112.812 652.772 111.667 652.772 96.6775H653.813V113.853H579.282V112.812C588.234 112.812 588.859 105.421 588.859 84.915V38.6976C588.859 18.1913 588.234 10.8007 579.282 10.8007Z" fill="#366155"/>
<path d="M516.041 51.3772V50.7461H544.016V51.3772C535.106 51.3772 534.484 55.8577 534.484 68.2897V96.3089C534.484 108.741 535.106 113.221 544.016 113.221V113.853H516.041V113.221C524.952 113.221 525.574 108.741 525.574 96.3089V68.2897C525.574 55.8577 524.952 51.3772 516.041 51.3772Z" fill="#366155"/>
<path d="M395.855 113.853V112.812C404.807 112.812 405.431 105.421 405.431 84.9148V38.6975C405.431 18.1911 404.807 10.8005 395.855 10.8005V9.75961H408.346C419.796 9.75961 427.187 7.67773 439.261 7.67773C461.433 7.67773 473.82 19.9607 473.82 36.9279C473.82 51.1886 462.162 64.0962 444.05 64.0962C434.265 64.0962 427.603 57.4342 423.231 57.4342C421.982 57.4342 420.212 57.7465 420.212 60.1406C420.212 66.9067 442.176 68.364 450.608 81.4797C458.831 94.2832 468.512 112.812 480.378 112.812V113.853H464.452C459.664 113.853 456.749 107.295 440.302 82.6247C430.205 67.4272 419.171 67.0108 419.171 59.9325C419.171 57.4342 420.941 56.3933 422.815 56.3933C428.956 56.3933 433.744 62.3266 443.425 62.3266C456.437 62.3266 464.868 49.5232 464.868 37.032C464.868 19.7525 452.689 9.13504 433.328 9.13504C425.625 9.13504 420.629 10.176 414.279 12.466V84.9148C414.279 105.421 414.904 112.812 423.856 112.812V113.853H395.855Z" fill="#366155"/>
<path d="M275.932 113.853V112.812C284.884 112.812 285.509 105.421 285.509 84.9148V38.6975C285.509 18.1911 284.884 10.8005 275.932 10.8005V9.75961H288.423C299.873 9.75961 307.264 7.67773 319.339 7.67773C341.511 7.67773 353.898 19.9607 353.898 36.9279C353.898 51.1886 342.239 64.0962 324.127 64.0962C314.342 64.0962 307.68 57.4342 303.308 57.4342C302.059 57.4342 300.29 57.7465 300.29 60.1406C300.29 66.9067 322.253 68.364 330.685 81.4797C338.908 94.2832 348.589 112.812 360.456 112.812V113.853H344.529C339.741 113.853 336.826 107.295 320.38 82.6247C310.283 67.4272 299.249 67.0108 299.249 59.9325C299.249 57.4342 301.018 56.3933 302.892 56.3933C309.034 56.3933 313.822 62.3266 323.502 62.3266C336.514 62.3266 344.946 49.5232 344.946 37.032C344.946 19.7525 332.767 9.13504 313.405 9.13504C305.703 9.13504 300.706 10.176 294.356 12.466V84.9148C294.356 105.421 294.981 112.812 303.933 112.812V113.853H275.932Z" fill="#366155"/>
<path d="M191.076 115.803C158.859 115.803 133.499 92.9578 133.499 61.8049C133.499 30.6521 158.859 7.80664 191.076 7.80664C223.293 7.80664 248.652 30.6521 248.652 61.8049C248.652 92.9578 223.293 115.803 191.076 115.803ZM191.076 9.05276C164.293 9.05276 145.144 31.4828 145.144 61.8049C145.144 92.127 166.104 114.557 191.076 114.557C216.047 114.557 237.008 92.127 237.008 61.8049C237.008 31.4828 217.859 9.05276 191.076 9.05276Z" fill="#366155"/>
<path d="M0 9.75977H16.759L56.7307 93.6588L87.9586 9.75977H106.279V10.8007C97.327 10.8007 96.7025 18.1913 96.7025 38.6976V84.915C96.7025 105.421 97.327 112.812 106.279 112.812V113.853H78.1739V112.812C87.1259 112.812 87.7505 105.421 87.7505 84.915V13.1948C76.5084 43.2777 65.995 71.9033 53.1916 106.254H52.2547C35.9121 71.2788 26.5437 51.0847 10.7216 17.1504L10.6175 61.8063V75.0261C10.6175 105.317 19.1531 112.812 28.1051 112.812V113.853H0V112.812C8.952 112.812 9.57656 105.421 9.57656 84.915V38.6976C9.57656 18.1913 8.952 10.8007 0 10.8007V9.75977Z" fill="#366155"/>
<path d="M530.029 0L532.304 17.8849L547.906 20.4933L532.304 23.1017L530.029 40.9866L527.753 23.1017L512.152 20.4933L527.753 17.8849L530.029 0Z" fill="#366155"/>
<path d="M516.948 0.871094L517.558 5.81799L521.744 6.53946L517.558 7.26092L516.948 12.2078L516.338 7.26092L512.152 6.53946L516.338 5.81799L516.948 0.871094Z" fill="#366155"/>
<path d="M542.238 27.9062L542.848 32.8532L547.034 33.5746L542.848 34.2961L542.238 39.243L541.627 34.2961L537.441 33.5746L541.627 32.8532L542.238 27.9062Z" fill="#366155"/>
<path d="M192.009 52.6973L193.504 59.8654L200.141 61.4801L193.504 63.0948L192.009 70.263L190.513 63.0948L183.876 61.4801L190.513 59.8654L192.009 52.6973Z" fill="#366155"/>
</svg>
