<svg width="228" height="228" viewBox="0 0 228 228" fill="none" xmlns="http://www.w3.org/2000/svg">
<path d="M228 114C228 176.96 176.96 228 114 228C51.0395 228 0 176.96 0 114C0 51.0395 51.0395 0 114 0C176.96 0 228 51.0395 228 114ZM28.5 114C28.5 161.22 66.7797 199.5 114 199.5C161.22 199.5 199.5 161.22 199.5 114C199.5 66.7797 161.22 28.5 114 28.5C66.7797 28.5 28.5 66.7797 28.5 114Z" fill="#E2E8F0"/>
<path d="M224.417 142.357C228.896 124.917 229.18 106.664 225.246 89.0939C221.312 71.5234 213.273 55.1344 201.785 41.2694C190.298 27.4043 175.69 16.4573 159.157 9.32508C142.624 2.19283 124.637 -0.92191 106.669 0.235954L108.502 28.677C121.978 27.8086 135.468 30.1446 147.868 35.4938C160.267 40.843 171.223 49.0532 179.839 59.452C188.454 69.8508 194.484 82.1425 197.435 95.3204C200.385 108.498 200.172 122.188 196.813 135.267L224.417 142.357Z" fill="#7C3AED"/>
<path d="M106.707 0.233504C89.3581 1.34564 72.4931 6.41094 57.4022 15.042C42.3113 23.673 29.3943 35.6412 19.6392 50.031C9.88403 64.4208 3.54919 80.8511 1.11917 98.0652C-1.31085 115.279 0.228324 132.821 5.61898 149.349C11.0096 165.877 20.1089 180.953 32.221 193.424C44.333 205.895 59.1368 215.431 75.5001 221.302C91.8635 227.173 109.353 229.224 126.631 227.298C143.908 225.372 160.517 219.52 175.185 210.189L159.889 186.142C148.888 193.14 136.431 197.529 123.473 198.974C110.515 200.418 97.3976 198.88 85.1251 194.477C72.8526 190.073 61.7497 182.921 52.6657 173.568C43.5817 164.215 36.7572 152.908 32.7142 140.512C28.6712 128.116 27.5169 114.959 29.3394 102.049C31.1619 89.1383 35.913 76.8156 43.2294 66.0232C50.5457 55.2309 60.2335 46.2548 71.5517 39.7815C82.8698 33.3082 95.5186 29.5092 108.53 28.6751L106.707 0.233504Z" fill="#FBBF24"/>
<path d="M175.211 210.173C199.709 194.58 217.333 170.227 224.487 142.083L196.865 135.062C191.5 156.17 178.282 174.435 159.909 186.129L175.211 210.173Z" fill="#F43F5E"/>
<path d="M74.28 114.16C74 114.16 73.76 114.113 73.56 114.02C73.3733 113.94 73.2133 113.827 73.08 113.68C72.96 113.533 72.8467 113.38 72.74 113.22L70.28 109.52C70.1067 109.24 69.92 109.013 69.72 108.84C69.5333 108.667 69.32 108.547 69.08 108.48C68.8533 108.4 68.58 108.36 68.26 108.36H66.3C65.9667 108.36 65.7067 108.273 65.52 108.1C65.3467 107.913 65.26 107.66 65.26 107.34C65.26 107.02 65.3467 106.773 65.52 106.6C65.7067 106.427 65.9667 106.34 66.3 106.34H69.34C70.2867 106.34 71 106.167 71.48 105.82C71.96 105.46 72.2467 104.913 72.34 104.18L72.68 104.78H66.22C65.9133 104.78 65.6733 104.707 65.5 104.56C65.34 104.4 65.26 104.18 65.26 103.9C65.26 103.62 65.34 103.407 65.5 103.26C65.6733 103.1 65.9133 103.02 66.22 103.02H72.68L72.3 103.58C72.1933 102.94 71.9067 102.46 71.44 102.14C70.9733 101.82 70.3067 101.66 69.44 101.66H66.22C65.9133 101.66 65.6733 101.587 65.5 101.44C65.34 101.28 65.26 101.06 65.26 100.78C65.26 100.5 65.34 100.287 65.5 100.14C65.6733 99.98 65.9133 99.9 66.22 99.9H75.8C76.1067 99.9 76.34 99.98 76.5 100.14C76.6733 100.287 76.76 100.5 76.76 100.78C76.76 101.06 76.6733 101.28 76.5 101.44C76.34 101.587 76.1067 101.66 75.8 101.66H73.02L73.26 101.1C73.7133 101.34 74.0667 101.66 74.32 102.06C74.5733 102.447 74.7267 102.9 74.78 103.42L74.32 103.02H75.8C76.1067 103.02 76.34 103.1 76.5 103.26C76.6733 103.407 76.76 103.62 76.76 103.9C76.76 104.18 76.6733 104.4 76.5 104.56C76.34 104.707 76.1067 104.78 75.8 104.78H74.38L74.82 104.06C74.8333 104.913 74.6467 105.653 74.26 106.28C73.8733 106.907 73.32 107.393 72.6 107.74C71.8933 108.073 71.04 108.24 70.04 108.24V108.04H70.6C71.2 108.04 71.7133 108.16 72.14 108.4C72.58 108.627 72.9933 109.033 73.38 109.62L75.24 112.38C75.44 112.66 75.5267 112.94 75.5 113.22C75.4733 113.487 75.3533 113.713 75.14 113.9C74.94 114.073 74.6533 114.16 74.28 114.16ZM80.1122 114C79.7655 114 79.4922 113.907 79.2922 113.72C79.1055 113.52 79.0122 113.253 79.0122 112.92C79.0122 112.573 79.1055 112.313 79.2922 112.14C79.4922 111.967 79.7655 111.88 80.1122 111.88H82.3522V102.06H83.5922L80.6522 103.84C80.3989 103.987 80.1589 104.047 79.9322 104.02C79.7189 103.98 79.5322 103.887 79.3722 103.74C79.2255 103.58 79.1255 103.393 79.0722 103.18C79.0189 102.967 79.0322 102.753 79.1122 102.54C79.2055 102.313 79.3789 102.127 79.6322 101.98L82.3922 100.32C82.6589 100.16 82.9255 100.027 83.1922 99.92C83.4589 99.8 83.7055 99.74 83.9322 99.74C84.2122 99.74 84.4455 99.82 84.6322 99.98C84.8189 100.127 84.9122 100.373 84.9122 100.72V111.88H86.9522C87.2989 111.88 87.5655 111.967 87.7522 112.14C87.9522 112.313 88.0522 112.573 88.0522 112.92C88.0522 113.267 87.9522 113.533 87.7522 113.72C87.5655 113.907 87.2989 114 86.9522 114H80.1122ZM92.1044 114C91.7577 114 91.4844 113.907 91.2844 113.72C91.0977 113.52 91.0044 113.253 91.0044 112.92C91.0044 112.573 91.0977 112.313 91.2844 112.14C91.4844 111.967 91.7577 111.88 92.1044 111.88H94.3444V102.06H95.5844L92.6444 103.84C92.391 103.987 92.151 104.047 91.9244 104.02C91.711 103.98 91.5244 103.887 91.3644 103.74C91.2177 103.58 91.1177 103.393 91.0644 103.18C91.011 102.967 91.0244 102.753 91.1044 102.54C91.1977 102.313 91.371 102.127 91.6244 101.98L94.3844 100.32C94.651 100.16 94.9177 100.027 95.1844 99.92C95.451 99.8 95.6977 99.74 95.9244 99.74C96.2044 99.74 96.4377 99.82 96.6244 99.98C96.811 100.127 96.9044 100.373 96.9044 100.72V111.88H98.9444C99.291 111.88 99.5577 111.967 99.7444 112.14C99.9444 112.313 100.044 112.573 100.044 112.92C100.044 113.267 99.9444 113.533 99.7444 113.72C99.5577 113.907 99.291 114 98.9444 114H92.1044ZM106.977 114.2C105.883 114.2 104.943 114.047 104.157 113.74C103.383 113.42 102.783 112.96 102.357 112.36C101.943 111.76 101.737 111.04 101.737 110.2C101.737 109.533 101.87 108.947 102.137 108.44C102.417 107.92 102.797 107.5 103.277 107.18C103.757 106.86 104.303 106.66 104.917 106.58V107C104.063 106.813 103.377 106.407 102.857 105.78C102.35 105.14 102.097 104.38 102.097 103.5C102.097 102.7 102.297 102.02 102.697 101.46C103.097 100.887 103.663 100.453 104.397 100.16C105.13 99.8533 105.99 99.7 106.977 99.7C107.977 99.7 108.843 99.8533 109.577 100.16C110.31 100.453 110.877 100.887 111.277 101.46C111.677 102.02 111.877 102.7 111.877 103.5C111.877 104.087 111.757 104.627 111.517 105.12C111.29 105.613 110.963 106.02 110.537 106.34C110.123 106.66 109.637 106.873 109.077 106.98V106.58C110.01 106.713 110.763 107.107 111.337 107.76C111.923 108.4 112.217 109.213 112.217 110.2C112.217 111.04 112.003 111.76 111.577 112.36C111.163 112.96 110.563 113.42 109.777 113.74C109.003 114.047 108.07 114.2 106.977 114.2ZM106.977 112.2C107.923 112.2 108.637 112.02 109.117 111.66C109.597 111.287 109.837 110.74 109.837 110.02C109.837 109.3 109.597 108.76 109.117 108.4C108.637 108.04 107.923 107.86 106.977 107.86C106.043 107.86 105.33 108.04 104.837 108.4C104.357 108.76 104.117 109.3 104.117 110.02C104.117 110.74 104.357 111.287 104.837 111.66C105.33 112.02 106.043 112.2 106.977 112.2ZM106.977 105.86C107.51 105.86 107.963 105.78 108.337 105.62C108.71 105.447 108.997 105.2 109.197 104.88C109.397 104.56 109.497 104.187 109.497 103.76C109.497 103.12 109.27 102.62 108.817 102.26C108.377 101.887 107.763 101.7 106.977 101.7C106.19 101.7 105.577 101.887 105.137 102.26C104.697 102.62 104.477 103.12 104.477 103.76C104.477 104.413 104.697 104.927 105.137 105.3C105.577 105.673 106.19 105.86 106.977 105.86ZM115.789 116.14C115.615 116.353 115.429 116.473 115.229 116.5C115.042 116.54 114.875 116.507 114.729 116.4C114.582 116.293 114.502 116.14 114.489 115.94C114.475 115.753 114.562 115.547 114.749 115.32C115.015 114.987 115.195 114.653 115.289 114.32C115.382 113.987 115.429 113.687 115.429 113.42L115.529 114.1C115.062 114.1 114.682 113.967 114.389 113.7C114.109 113.42 113.969 113.053 113.969 112.6C113.969 112.173 114.102 111.827 114.369 111.56C114.635 111.28 114.995 111.14 115.449 111.14C115.915 111.14 116.282 111.3 116.549 111.62C116.815 111.927 116.949 112.373 116.949 112.96C116.949 113.28 116.915 113.613 116.849 113.96C116.795 114.293 116.682 114.64 116.509 115C116.349 115.373 116.109 115.753 115.789 116.14ZM122.83 114.2C122.256 114.2 121.663 114.113 121.05 113.94C120.436 113.753 119.863 113.48 119.33 113.12C119.116 112.987 118.976 112.813 118.91 112.6C118.843 112.387 118.83 112.18 118.87 111.98C118.923 111.767 119.016 111.587 119.15 111.44C119.296 111.28 119.476 111.187 119.69 111.16C119.903 111.12 120.136 111.173 120.39 111.32C120.843 111.587 121.27 111.773 121.67 111.88C122.07 111.987 122.47 112.04 122.87 112.04C123.643 112.04 124.296 111.86 124.83 111.5C125.363 111.14 125.763 110.6 126.03 109.88C126.31 109.147 126.45 108.247 126.45 107.18V105.68H126.69C126.596 106.347 126.376 106.927 126.03 107.42C125.683 107.913 125.243 108.293 124.71 108.56C124.176 108.813 123.583 108.94 122.93 108.94C122.13 108.94 121.41 108.747 120.77 108.36C120.143 107.973 119.65 107.44 119.29 106.76C118.93 106.067 118.75 105.287 118.75 104.42C118.75 103.5 118.943 102.687 119.33 101.98C119.73 101.273 120.283 100.72 120.99 100.32C121.696 99.9067 122.503 99.7 123.41 99.7C124.583 99.7 125.576 99.9733 126.39 100.52C127.203 101.067 127.823 101.867 128.25 102.92C128.676 103.96 128.89 105.22 128.89 106.7C128.89 107.9 128.75 108.967 128.47 109.9C128.203 110.82 127.81 111.6 127.29 112.24C126.77 112.88 126.13 113.367 125.37 113.7C124.623 114.033 123.776 114.2 122.83 114.2ZM123.57 106.9C124.05 106.9 124.47 106.793 124.83 106.58C125.203 106.353 125.49 106.047 125.69 105.66C125.89 105.26 125.99 104.807 125.99 104.3C125.99 103.78 125.89 103.327 125.69 102.94C125.49 102.553 125.203 102.253 124.83 102.04C124.47 101.827 124.05 101.72 123.57 101.72C123.09 101.72 122.67 101.827 122.31 102.04C121.95 102.253 121.663 102.553 121.45 102.94C121.25 103.327 121.15 103.78 121.15 104.3C121.15 104.807 121.25 105.26 121.45 105.66C121.663 106.047 121.95 106.353 122.31 106.58C122.67 106.793 123.09 106.9 123.57 106.9ZM134.822 114.2C134.249 114.2 133.655 114.113 133.042 113.94C132.429 113.753 131.855 113.48 131.322 113.12C131.109 112.987 130.969 112.813 130.902 112.6C130.835 112.387 130.822 112.18 130.862 111.98C130.915 111.767 131.009 111.587 131.142 111.44C131.289 111.28 131.469 111.187 131.682 111.16C131.895 111.12 132.129 111.173 132.382 111.32C132.835 111.587 133.262 111.773 133.662 111.88C134.062 111.987 134.462 112.04 134.862 112.04C135.635 112.04 136.289 111.86 136.822 111.5C137.355 111.14 137.755 110.6 138.022 109.88C138.302 109.147 138.442 108.247 138.442 107.18V105.68H138.682C138.589 106.347 138.369 106.927 138.022 107.42C137.675 107.913 137.235 108.293 136.702 108.56C136.169 108.813 135.575 108.94 134.922 108.94C134.122 108.94 133.402 108.747 132.762 108.36C132.135 107.973 131.642 107.44 131.282 106.76C130.922 106.067 130.742 105.287 130.742 104.42C130.742 103.5 130.935 102.687 131.322 101.98C131.722 101.273 132.275 100.72 132.982 100.32C133.689 99.9067 134.495 99.7 135.402 99.7C136.575 99.7 137.569 99.9733 138.382 100.52C139.195 101.067 139.815 101.867 140.242 102.92C140.669 103.96 140.882 105.22 140.882 106.7C140.882 107.9 140.742 108.967 140.462 109.9C140.195 110.82 139.802 111.6 139.282 112.24C138.762 112.88 138.122 113.367 137.362 113.7C136.615 114.033 135.769 114.2 134.822 114.2ZM135.562 106.9C136.042 106.9 136.462 106.793 136.822 106.58C137.195 106.353 137.482 106.047 137.682 105.66C137.882 105.26 137.982 104.807 137.982 104.3C137.982 103.78 137.882 103.327 137.682 102.94C137.482 102.553 137.195 102.253 136.822 102.04C136.462 101.827 136.042 101.72 135.562 101.72C135.082 101.72 134.662 101.827 134.302 102.04C133.942 102.253 133.655 102.553 133.442 102.94C133.242 103.327 133.142 103.78 133.142 104.3C133.142 104.807 133.242 105.26 133.442 105.66C133.655 106.047 133.942 106.353 134.302 106.58C134.662 106.793 135.082 106.9 135.562 106.9ZM146.814 114.2C146.241 114.2 145.647 114.113 145.034 113.94C144.421 113.753 143.847 113.48 143.314 113.12C143.101 112.987 142.961 112.813 142.894 112.6C142.827 112.387 142.814 112.18 142.854 111.98C142.907 111.767 143.001 111.587 143.134 111.44C143.281 111.28 143.461 111.187 143.674 111.16C143.887 111.12 144.121 111.173 144.374 111.32C144.827 111.587 145.254 111.773 145.654 111.88C146.054 111.987 146.454 112.04 146.854 112.04C147.627 112.04 148.281 111.86 148.814 111.5C149.347 111.14 149.747 110.6 150.014 109.88C150.294 109.147 150.434 108.247 150.434 107.18V105.68H150.674C150.581 106.347 150.361 106.927 150.014 107.42C149.667 107.913 149.227 108.293 148.694 108.56C148.161 108.813 147.567 108.94 146.914 108.94C146.114 108.94 145.394 108.747 144.754 108.36C144.127 107.973 143.634 107.44 143.274 106.76C142.914 106.067 142.734 105.287 142.734 104.42C142.734 103.5 142.927 102.687 143.314 101.98C143.714 101.273 144.267 100.72 144.974 100.32C145.681 99.9067 146.487 99.7 147.394 99.7C148.567 99.7 149.561 99.9733 150.374 100.52C151.187 101.067 151.807 101.867 152.234 102.92C152.661 103.96 152.874 105.22 152.874 106.7C152.874 107.9 152.734 108.967 152.454 109.9C152.187 110.82 151.794 111.6 151.274 112.24C150.754 112.88 150.114 113.367 149.354 113.7C148.607 114.033 147.761 114.2 146.814 114.2ZM147.554 106.9C148.034 106.9 148.454 106.793 148.814 106.58C149.187 106.353 149.474 106.047 149.674 105.66C149.874 105.26 149.974 104.807 149.974 104.3C149.974 103.78 149.874 103.327 149.674 102.94C149.474 102.553 149.187 102.253 148.814 102.04C148.454 101.827 148.034 101.72 147.554 101.72C147.074 101.72 146.654 101.827 146.294 102.04C145.934 102.253 145.647 102.553 145.434 102.94C145.234 103.327 145.134 103.78 145.134 104.3C145.134 104.807 145.234 105.26 145.434 105.66C145.647 106.047 145.934 106.353 146.294 106.58C146.654 106.793 147.074 106.9 147.554 106.9Z" fill="#111827"/>
<path d="M94.9479 131.09C94.5679 131.09 94.1879 131.033 93.8079 130.92C93.4345 130.807 93.0945 130.63 92.7879 130.39C92.7079 130.337 92.6545 130.273 92.6279 130.2C92.6012 130.127 92.5979 130.053 92.6179 129.98C92.6379 129.907 92.6745 129.847 92.7279 129.8C92.7812 129.747 92.8445 129.717 92.9179 129.71C92.9979 129.703 93.0812 129.73 93.1679 129.79C93.4412 129.983 93.7245 130.127 94.0179 130.22C94.3112 130.313 94.6179 130.36 94.9379 130.36C95.2645 130.36 95.5445 130.3 95.7779 130.18C96.0179 130.053 96.1979 129.88 96.3179 129.66C96.4445 129.433 96.5079 129.17 96.5079 128.87C96.5079 128.41 96.3745 128.033 96.1079 127.74C95.8412 127.447 95.4745 127.3 95.0079 127.3C94.7212 127.3 94.4579 127.353 94.2179 127.46C93.9779 127.567 93.7579 127.737 93.5579 127.97C93.5112 128.023 93.4545 128.07 93.3879 128.11C93.3279 128.143 93.2579 128.16 93.1779 128.16C93.0645 128.16 92.9745 128.13 92.9079 128.07C92.8479 128.003 92.8179 127.917 92.8179 127.81V124.33C92.8179 124.203 92.8512 124.11 92.9179 124.05C92.9845 123.983 93.0779 123.95 93.1979 123.95H96.5979C96.7245 123.95 96.8179 123.98 96.8779 124.04C96.9445 124.1 96.9779 124.187 96.9779 124.3C96.9779 124.413 96.9445 124.5 96.8779 124.56C96.8179 124.62 96.7245 124.65 96.5979 124.65H93.6279V127.46H93.4079C93.5812 127.18 93.8212 126.967 94.1279 126.82C94.4345 126.667 94.7779 126.59 95.1579 126.59C95.6045 126.59 95.9879 126.683 96.3079 126.87C96.6345 127.057 96.8845 127.32 97.0579 127.66C97.2379 127.993 97.3279 128.383 97.3279 128.83C97.3279 129.27 97.2312 129.66 97.0379 130C96.8445 130.34 96.5712 130.607 96.2179 130.8C95.8645 130.993 95.4412 131.09 94.9479 131.09ZM101.652 131.07C101.519 131.07 101.415 131.033 101.342 130.96C101.275 130.88 101.242 130.773 101.242 130.64V124.31C101.242 124.17 101.275 124.063 101.342 123.99C101.415 123.917 101.519 123.88 101.652 123.88C101.785 123.88 101.885 123.917 101.952 123.99C102.025 124.063 102.062 124.17 102.062 124.31V130.64C102.062 130.773 102.029 130.88 101.962 130.96C101.895 131.033 101.792 131.07 101.652 131.07ZM104.1 131.07C103.967 131.07 103.867 131.033 103.8 130.96C103.734 130.887 103.7 130.783 103.7 130.65V126.48C103.7 126.347 103.734 126.247 103.8 126.18C103.867 126.107 103.964 126.07 104.09 126.07C104.217 126.07 104.314 126.107 104.38 126.18C104.454 126.247 104.49 126.347 104.49 126.48V127.34L104.38 127.22C104.52 126.833 104.747 126.543 105.06 126.35C105.38 126.15 105.747 126.05 106.16 126.05C106.547 126.05 106.867 126.12 107.12 126.26C107.38 126.4 107.574 126.613 107.7 126.9C107.827 127.18 107.89 127.537 107.89 127.97V130.65C107.89 130.783 107.854 130.887 107.78 130.96C107.714 131.033 107.617 131.07 107.49 131.07C107.357 131.07 107.254 131.033 107.18 130.96C107.114 130.887 107.08 130.783 107.08 130.65V128.02C107.08 127.567 106.99 127.237 106.81 127.03C106.637 126.817 106.357 126.71 105.97 126.71C105.524 126.71 105.167 126.85 104.9 127.13C104.64 127.403 104.51 127.77 104.51 128.23V130.65C104.51 130.93 104.374 131.07 104.1 131.07ZM111.145 131.07C111.032 131.07 110.932 131.04 110.845 130.98C110.759 130.913 110.685 130.813 110.625 130.68L108.895 126.64C108.849 126.54 108.832 126.447 108.845 126.36C108.859 126.273 108.899 126.203 108.965 126.15C109.032 126.097 109.125 126.07 109.245 126.07C109.352 126.07 109.435 126.093 109.495 126.14C109.555 126.187 109.609 126.27 109.655 126.39L111.295 130.4H111.025L112.695 126.39C112.742 126.27 112.795 126.187 112.855 126.14C112.915 126.093 113.002 126.07 113.115 126.07C113.222 126.07 113.302 126.097 113.355 126.15C113.415 126.203 113.449 126.273 113.455 126.36C113.469 126.44 113.455 126.53 113.415 126.63L111.665 130.68C111.619 130.813 111.549 130.913 111.455 130.98C111.369 131.04 111.265 131.07 111.145 131.07ZM116.433 131.09C115.96 131.09 115.55 130.987 115.203 130.78C114.857 130.573 114.587 130.283 114.393 129.91C114.207 129.53 114.113 129.083 114.113 128.57C114.113 128.183 114.167 127.837 114.273 127.53C114.38 127.217 114.537 126.95 114.743 126.73C114.95 126.51 115.193 126.343 115.473 126.23C115.76 126.11 116.08 126.05 116.433 126.05C116.907 126.05 117.317 126.153 117.663 126.36C118.01 126.567 118.277 126.86 118.463 127.24C118.657 127.613 118.753 128.057 118.753 128.57C118.753 128.957 118.7 129.303 118.593 129.61C118.487 129.917 118.33 130.183 118.123 130.41C117.917 130.63 117.67 130.8 117.383 130.92C117.103 131.033 116.787 131.09 116.433 131.09ZM116.433 130.44C116.733 130.44 116.997 130.367 117.223 130.22C117.45 130.073 117.623 129.86 117.743 129.58C117.87 129.3 117.933 128.963 117.933 128.57C117.933 127.963 117.797 127.5 117.523 127.18C117.257 126.86 116.893 126.7 116.433 126.7C116.127 126.7 115.86 126.773 115.633 126.92C115.413 127.06 115.24 127.27 115.113 127.55C114.993 127.823 114.933 128.163 114.933 128.57C114.933 129.17 115.07 129.633 115.343 129.96C115.617 130.28 115.98 130.44 116.433 130.44ZM120.37 131.05C120.237 131.05 120.137 131.013 120.07 130.94C120.003 130.86 119.97 130.75 119.97 130.61V126.52C119.97 126.38 120.003 126.273 120.07 126.2C120.137 126.127 120.237 126.09 120.37 126.09C120.497 126.09 120.597 126.127 120.67 126.2C120.743 126.273 120.78 126.38 120.78 126.52V130.61C120.78 130.75 120.743 130.86 120.67 130.94C120.603 131.013 120.503 131.05 120.37 131.05ZM120.37 124.97C120.203 124.97 120.073 124.927 119.98 124.84C119.887 124.747 119.84 124.623 119.84 124.47C119.84 124.31 119.887 124.19 119.98 124.11C120.073 124.023 120.203 123.98 120.37 123.98C120.543 123.98 120.673 124.023 120.76 124.11C120.853 124.19 120.9 124.31 120.9 124.47C120.9 124.623 120.853 124.747 120.76 124.84C120.673 124.927 120.543 124.97 120.37 124.97ZM124.354 131.09C123.868 131.09 123.448 130.983 123.094 130.77C122.741 130.557 122.468 130.26 122.274 129.88C122.088 129.493 121.994 129.047 121.994 128.54C121.994 128.153 122.048 127.807 122.154 127.5C122.261 127.193 122.418 126.933 122.624 126.72C122.831 126.5 123.078 126.333 123.364 126.22C123.658 126.107 123.988 126.05 124.354 126.05C124.594 126.05 124.844 126.087 125.104 126.16C125.364 126.233 125.601 126.36 125.814 126.54C125.881 126.587 125.924 126.643 125.944 126.71C125.964 126.777 125.964 126.843 125.944 126.91C125.924 126.97 125.891 127.023 125.844 127.07C125.798 127.11 125.738 127.133 125.664 127.14C125.598 127.147 125.528 127.123 125.454 127.07C125.281 126.937 125.104 126.843 124.924 126.79C124.744 126.737 124.571 126.71 124.404 126.71C124.144 126.71 123.918 126.753 123.724 126.84C123.531 126.92 123.368 127.037 123.234 127.19C123.101 127.343 122.998 127.533 122.924 127.76C122.858 127.987 122.824 128.25 122.824 128.55C122.824 129.13 122.961 129.59 123.234 129.93C123.508 130.263 123.898 130.43 124.404 130.43C124.571 130.43 124.741 130.403 124.914 130.35C125.094 130.297 125.274 130.203 125.454 130.07C125.528 130.017 125.598 129.993 125.664 130C125.731 130.007 125.788 130.033 125.834 130.08C125.881 130.12 125.911 130.173 125.924 130.24C125.944 130.307 125.944 130.373 125.924 130.44C125.904 130.5 125.861 130.553 125.794 130.6C125.581 130.773 125.348 130.9 125.094 130.98C124.841 131.053 124.594 131.09 124.354 131.09ZM129.015 131.09C128.502 131.09 128.059 130.99 127.685 130.79C127.319 130.583 127.032 130.293 126.825 129.92C126.625 129.547 126.525 129.1 126.525 128.58C126.525 128.073 126.625 127.633 126.825 127.26C127.025 126.88 127.299 126.583 127.645 126.37C127.999 126.157 128.405 126.05 128.865 126.05C129.192 126.05 129.485 126.107 129.745 126.22C130.005 126.327 130.225 126.483 130.405 126.69C130.592 126.897 130.732 127.147 130.825 127.44C130.925 127.733 130.975 128.063 130.975 128.43C130.975 128.537 130.945 128.617 130.885 128.67C130.825 128.717 130.739 128.74 130.625 128.74H127.145V128.21H130.435L130.275 128.34C130.275 127.98 130.222 127.677 130.115 127.43C130.009 127.177 129.852 126.983 129.645 126.85C129.445 126.717 129.192 126.65 128.885 126.65C128.545 126.65 128.255 126.73 128.015 126.89C127.782 127.043 127.605 127.26 127.485 127.54C127.365 127.813 127.305 128.133 127.305 128.5V128.56C127.305 129.173 127.452 129.64 127.745 129.96C128.045 130.28 128.469 130.44 129.015 130.44C129.242 130.44 129.465 130.41 129.685 130.35C129.912 130.29 130.132 130.19 130.345 130.05C130.439 129.99 130.522 129.963 130.595 129.97C130.675 129.97 130.739 129.993 130.785 130.04C130.832 130.08 130.862 130.133 130.875 130.2C130.895 130.26 130.889 130.327 130.855 130.4C130.829 130.473 130.772 130.537 130.685 130.59C130.465 130.75 130.205 130.873 129.905 130.96C129.605 131.047 129.309 131.09 129.015 131.09ZM133.788 131.09C133.488 131.09 133.184 131.053 132.878 130.98C132.578 130.907 132.298 130.78 132.038 130.6C131.971 130.553 131.924 130.5 131.898 130.44C131.871 130.373 131.861 130.31 131.868 130.25C131.881 130.183 131.908 130.127 131.948 130.08C131.994 130.033 132.048 130.007 132.108 130C132.174 129.987 132.248 130 132.328 130.04C132.588 130.2 132.838 130.313 133.078 130.38C133.324 130.44 133.568 130.47 133.808 130.47C134.188 130.47 134.474 130.4 134.668 130.26C134.861 130.12 134.958 129.93 134.958 129.69C134.958 129.503 134.894 129.357 134.768 129.25C134.641 129.137 134.441 129.05 134.168 128.99L133.258 128.79C132.838 128.703 132.524 128.553 132.318 128.34C132.118 128.127 132.018 127.85 132.018 127.51C132.018 127.21 132.094 126.953 132.248 126.74C132.408 126.52 132.631 126.35 132.918 126.23C133.204 126.11 133.538 126.05 133.918 126.05C134.211 126.05 134.488 126.09 134.748 126.17C135.014 126.243 135.254 126.363 135.468 126.53C135.534 126.577 135.578 126.633 135.598 126.7C135.624 126.76 135.628 126.823 135.608 126.89C135.594 126.95 135.564 127.003 135.518 127.05C135.471 127.09 135.414 127.113 135.348 127.12C135.281 127.127 135.211 127.107 135.138 127.06C134.938 126.927 134.734 126.83 134.528 126.77C134.321 126.703 134.118 126.67 133.918 126.67C133.544 126.67 133.261 126.743 133.068 126.89C132.874 127.037 132.778 127.23 132.778 127.47C132.778 127.657 132.838 127.81 132.958 127.93C133.078 128.05 133.264 128.137 133.518 128.19L134.428 128.38C134.861 128.473 135.184 128.623 135.398 128.83C135.618 129.03 135.728 129.303 135.728 129.65C135.728 130.09 135.551 130.44 135.198 130.7C134.844 130.96 134.374 131.09 133.788 131.09Z" fill="#9CA3AF"/>
</svg>
