<svg width="24" height="24" viewBox="0 0 24 24" fill="none" xmlns="http://www.w3.org/2000/svg">
<rect x="0.5" y="0.5" width="23" height="23" rx="7.5" fill="white"/>
<rect x="0.5" y="0.5" width="23" height="23" rx="7.5" stroke="#E2E8F0"/>
<path d="M10.5886 5.47136C10.9057 5.43398 11.2252 5.51775 11.4832 5.70589C11.7412 5.89404 11.9186 6.17267 11.9799 6.48602L11.9966 6.59736L11.9999 6.66669V9.33336C11.9999 9.46807 11.959 9.59961 11.8827 9.71064C11.8064 9.82167 11.6983 9.90699 11.5726 9.95536L11.5012 9.97869C11.1538 10.069 10.8359 10.2483 10.5788 10.4989C10.3217 10.7494 10.1343 11.0627 10.0351 11.4077C9.93589 11.7527 9.92825 12.1176 10.0129 12.4665C10.0976 12.8153 10.2718 13.1361 10.5181 13.3972C10.7645 13.6583 11.0747 13.8507 11.418 13.9555C11.7614 14.0603 12.1261 14.0739 12.4763 13.9948C12.8265 13.9158 13.15 13.7469 13.4151 13.5048C13.6802 13.2626 13.8776 12.9556 13.9879 12.614L14.0212 12.4987C14.0551 12.3683 14.1278 12.2512 14.2295 12.1629C14.3313 12.0746 14.4574 12.0192 14.5912 12.004L14.6666 12H17.1999C17.5535 12 17.8927 12.1405 18.1427 12.3905C18.3928 12.6406 18.5332 12.9797 18.5332 13.3334C18.5332 13.3841 18.5274 13.4346 18.5159 13.484C18.2491 14.6351 17.6812 15.6946 16.8702 16.5541C16.0593 17.4135 15.0345 18.0419 13.9008 18.375C12.7671 18.7082 11.5653 18.734 10.4183 18.4498C9.27135 18.1657 8.22053 17.5818 7.37345 16.758C6.52636 15.9342 5.91346 14.9 5.59749 13.7614C5.28153 12.6228 5.27387 11.4207 5.57528 10.2782C5.8767 9.13565 6.47637 8.09376 7.31288 7.25921C8.14939 6.42466 9.19268 5.82743 10.3359 5.52869L10.5159 5.48402L10.5886 5.47136Z" fill="#2563EB"/>
<path d="M13.8499 5.68408C13.898 5.67289 13.9472 5.66708 13.9966 5.66675L14.0779 5.67141L14.1526 5.68475L14.2213 5.70475C15.1286 6.02415 15.9561 6.53613 16.6469 7.20553C17.3377 7.87493 17.8755 8.6859 18.2233 9.58275L18.2953 9.77875C18.3284 9.87293 18.34 9.97336 18.3291 10.0726C18.3183 10.1719 18.2853 10.2674 18.2326 10.3522C18.1798 10.437 18.1087 10.5089 18.0245 10.5625C17.9403 10.6162 17.8451 10.6502 17.7459 10.6621L17.6666 10.6667H14.6666C14.5703 10.6668 14.4751 10.6459 14.3877 10.6056C14.3002 10.5653 14.2225 10.5066 14.1599 10.4334C13.978 10.2204 13.7796 10.022 13.5666 9.84008C13.4404 9.73208 13.3591 9.58088 13.3386 9.41608L13.3333 9.33341V6.33675L13.3373 6.25808C13.3408 6.23008 13.3453 6.2043 13.3506 6.18075L13.3706 6.11208C13.3962 6.03968 13.4341 5.97225 13.4826 5.91275L13.5299 5.85941C13.5495 5.84119 13.5688 5.82453 13.5879 5.80941L13.6479 5.76741L13.7066 5.73408L13.7753 5.70541L13.8499 5.68408Z" fill="#2563EB"/>
</svg>
