<svg width="274" height="14" viewBox="0 0 274 14" fill="none" xmlns="http://www.w3.org/2000/svg">
<rect y="1.5" width="248" height="11" rx="5.5" fill="#EFF6FF"/>
<rect y="2" width="195" height="11" rx="5.5" fill="#2563EB"/>
<path d="M255 10.09C254.473 10.09 254.02 10.0133 253.64 9.86C253.267 9.70667 252.98 9.48333 252.78 9.19C252.587 8.89667 252.49 8.54333 252.49 8.13C252.49 7.80333 252.557 7.51333 252.69 7.26C252.823 7 253.01 6.79 253.25 6.63C253.49 6.47 253.767 6.37 254.08 6.33V6.48C253.647 6.38667 253.3 6.18333 253.04 5.87C252.787 5.55 252.66 5.17333 252.66 4.74C252.66 4.34 252.753 4.00333 252.94 3.73C253.133 3.45 253.407 3.23667 253.76 3.09C254.113 2.93667 254.527 2.86 255 2.86C255.48 2.86 255.893 2.93667 256.24 3.09C256.593 3.23667 256.867 3.45 257.06 3.73C257.253 4.00333 257.35 4.34 257.35 4.74C257.35 5.02667 257.29 5.29333 257.17 5.54C257.057 5.78 256.893 5.98 256.68 6.14C256.467 6.3 256.217 6.41 255.93 6.47V6.33C256.403 6.39667 256.783 6.59333 257.07 6.92C257.363 7.24 257.51 7.64333 257.51 8.13C257.51 8.54333 257.41 8.89667 257.21 9.19C257.017 9.48333 256.73 9.70667 256.35 9.86C255.977 10.0133 255.527 10.09 255 10.09ZM255 9.41C255.567 9.41 255.993 9.3 256.28 9.08C256.573 8.86 256.72 8.52667 256.72 8.08C256.72 7.64 256.573 7.31333 256.28 7.1C255.993 6.88 255.567 6.77 255 6.77C254.44 6.77 254.013 6.88 253.72 7.1C253.427 7.31333 253.28 7.64 253.28 8.08C253.28 8.52667 253.427 8.86 253.72 9.08C254.013 9.3 254.44 9.41 255 9.41ZM255 6.09C255.327 6.09 255.603 6.04 255.83 5.94C256.063 5.83333 256.243 5.68333 256.37 5.49C256.497 5.29667 256.56 5.07 256.56 4.81C256.56 4.41 256.42 4.1 256.14 3.88C255.867 3.65333 255.487 3.54 255 3.54C254.513 3.54 254.133 3.65333 253.86 3.88C253.587 4.1 253.45 4.41 253.45 4.81C253.45 5.21 253.587 5.52333 253.86 5.75C254.133 5.97667 254.513 6.09 255 6.09ZM261.236 10.09C260.683 10.09 260.209 9.95667 259.816 9.69C259.429 9.41667 259.136 9.02333 258.936 8.51C258.736 7.99667 258.636 7.37667 258.636 6.65C258.636 6.03667 258.699 5.49667 258.826 5.03C258.953 4.56333 259.139 4.17 259.386 3.85C259.633 3.52333 259.933 3.27667 260.286 3.11C260.639 2.94333 261.039 2.86 261.486 2.86C261.793 2.86 262.106 2.92 262.426 3.04C262.753 3.16 263.039 3.33 263.286 3.55C263.359 3.60333 263.403 3.67 263.416 3.75C263.436 3.82333 263.436 3.89667 263.416 3.97C263.396 4.03667 263.359 4.09333 263.306 4.14C263.259 4.18667 263.199 4.21333 263.126 4.22C263.053 4.22 262.976 4.19 262.896 4.13C262.669 3.93667 262.436 3.8 262.196 3.72C261.956 3.63333 261.713 3.59 261.466 3.59C261.033 3.59 260.663 3.69667 260.356 3.91C260.056 4.12333 259.826 4.44667 259.666 4.88C259.513 5.30667 259.436 5.84333 259.436 6.49V7.42H259.346C259.386 7.04 259.496 6.71333 259.676 6.44C259.863 6.16 260.099 5.94667 260.386 5.8C260.673 5.65333 260.996 5.58 261.356 5.58C261.769 5.58 262.136 5.67333 262.456 5.86C262.776 6.04667 263.026 6.31 263.206 6.65C263.386 6.98333 263.476 7.36667 263.476 7.8C263.476 8.24 263.383 8.63333 263.196 8.98C263.009 9.32667 262.746 9.6 262.406 9.8C262.066 9.99333 261.676 10.09 261.236 10.09ZM261.186 9.39C261.479 9.39 261.739 9.32667 261.966 9.2C262.193 9.06667 262.369 8.88333 262.496 8.65C262.623 8.41 262.686 8.13667 262.686 7.83C262.686 7.52333 262.623 7.25333 262.496 7.02C262.369 6.78667 262.193 6.60333 261.966 6.47C261.739 6.33667 261.479 6.27 261.186 6.27C260.893 6.27 260.633 6.33667 260.406 6.47C260.179 6.60333 260.003 6.78667 259.876 7.02C259.749 7.25333 259.686 7.52333 259.686 7.83C259.686 8.13667 259.749 8.41 259.876 8.65C260.003 8.88333 260.179 9.06667 260.406 9.2C260.633 9.32667 260.893 9.39 261.186 9.39ZM266.992 10.01C266.946 10.0967 266.889 10.1533 266.822 10.18C266.756 10.2133 266.689 10.22 266.622 10.2C266.556 10.1867 266.499 10.1533 266.452 10.1C266.406 10.0533 266.376 9.99333 266.362 9.92C266.356 9.84667 266.376 9.76667 266.422 9.68L270.282 2.96C270.329 2.87333 270.386 2.81667 270.452 2.79C270.519 2.75667 270.586 2.75 270.652 2.77C270.719 2.78333 270.776 2.81667 270.822 2.87C270.869 2.92333 270.896 2.98667 270.902 3.06C270.916 3.13333 270.899 3.21 270.852 3.29L266.992 10.01ZM266.252 7.18C265.719 7.18 265.302 6.99 265.002 6.61C264.702 6.23 264.552 5.7 264.552 5.02C264.552 4.56667 264.619 4.18 264.752 3.86C264.892 3.54 265.089 3.29667 265.342 3.13C265.596 2.95667 265.899 2.87 266.252 2.87C266.779 2.87 267.192 3.06 267.492 3.44C267.799 3.81333 267.952 4.34 267.952 5.02C267.952 5.47333 267.882 5.86 267.742 6.18C267.609 6.5 267.416 6.74667 267.162 6.92C266.909 7.09333 266.606 7.18 266.252 7.18ZM266.252 6.59C266.459 6.59 266.636 6.53 266.782 6.41C266.936 6.29 267.052 6.11333 267.132 5.88C267.212 5.64667 267.252 5.36 267.252 5.02C267.252 4.5 267.162 4.11 266.982 3.85C266.802 3.59 266.559 3.46 266.252 3.46C266.046 3.46 265.866 3.52 265.712 3.64C265.566 3.75333 265.452 3.92667 265.372 4.16C265.292 4.38667 265.252 4.67333 265.252 5.02C265.252 5.54 265.339 5.93333 265.512 6.2C265.692 6.46 265.939 6.59 266.252 6.59ZM271.032 10.09C270.506 10.09 270.089 9.9 269.782 9.52C269.482 9.14 269.332 8.61 269.332 7.93C269.332 7.47667 269.399 7.09 269.532 6.77C269.672 6.45 269.869 6.20667 270.122 6.04C270.382 5.86667 270.686 5.78 271.032 5.78C271.566 5.78 271.982 5.97 272.282 6.35C272.582 6.72333 272.732 7.25 272.732 7.93C272.732 8.38333 272.666 8.77333 272.532 9.1C272.399 9.42 272.206 9.66667 271.952 9.84C271.699 10.0067 271.392 10.09 271.032 10.09ZM271.032 9.5C271.246 9.5 271.426 9.44333 271.572 9.33C271.719 9.21 271.832 9.03333 271.912 8.8C271.992 8.56667 272.032 8.27667 272.032 7.93C272.032 7.41 271.942 7.02 271.762 6.76C271.589 6.5 271.346 6.37 271.032 6.37C270.826 6.37 270.646 6.43 270.492 6.55C270.346 6.66333 270.232 6.83667 270.152 7.07C270.079 7.29667 270.042 7.58333 270.042 7.93C270.042 8.45667 270.129 8.85 270.302 9.11C270.482 9.37 270.726 9.5 271.032 9.5Z" fill="#9CA3AF"/>
</svg>

