<svg width="24" height="24" viewBox="0 0 24 24" fill="none" xmlns="http://www.w3.org/2000/svg">
<rect x="0.5" y="0.5" width="23" height="23" rx="7.5" fill="white"/>
<rect x="0.5" y="0.5" width="23" height="23" rx="7.5" stroke="#E2E8F0"/>
<path d="M11.3335 12C11.3335 12.1769 11.4037 12.3464 11.5288 12.4714C11.6538 12.5965 11.8234 12.6667 12.0002 12.6667C12.177 12.6667 12.3465 12.5965 12.4716 12.4714C12.5966 12.3464 12.6668 12.1769 12.6668 12C12.6668 11.8232 12.5966 11.6537 12.4716 11.5286C12.3465 11.4036 12.177 11.3334 12.0002 11.3334C11.8234 11.3334 11.6538 11.4036 11.5288 11.5286C11.4037 11.6537 11.3335 11.8232 11.3335 12Z" stroke="#2563EB" stroke-width="1.33333" stroke-linecap="round" stroke-linejoin="round"/>
<path d="M8.6665 12C8.6665 12.884 9.01769 13.7319 9.64281 14.357C10.2679 14.9821 11.1158 15.3333 11.9998 15.3333C12.8839 15.3333 13.7317 14.9821 14.3569 14.357C14.982 13.7319 15.3332 12.884 15.3332 12C15.3332 11.1159 14.982 10.2681 14.3569 9.64294C13.7317 9.01782 12.8839 8.66663 11.9998 8.66663C11.1158 8.66663 10.2679 9.01782 9.64281 9.64294C9.01769 10.2681 8.6665 11.1159 8.6665 12Z" stroke="#2563EB" stroke-width="1.33333" stroke-linecap="round" stroke-linejoin="round"/>
<path d="M6 12C6 12.7879 6.15519 13.5681 6.45672 14.2961C6.75825 15.0241 7.20021 15.6855 7.75736 16.2426C8.31451 16.7998 8.97595 17.2417 9.7039 17.5433C10.4319 17.8448 11.2121 18 12 18C12.7879 18 13.5681 17.8448 14.2961 17.5433C15.0241 17.2417 15.6855 16.7998 16.2426 16.2426C16.7998 15.6855 17.2417 15.0241 17.5433 14.2961C17.8448 13.5681 18 12.7879 18 12C18 11.2121 17.8448 10.4319 17.5433 9.7039C17.2417 8.97595 16.7998 8.31451 16.2426 7.75736C15.6855 7.20021 15.0241 6.75825 14.2961 6.45672C13.5681 6.15519 12.7879 6 12 6C11.2121 6 10.4319 6.15519 9.7039 6.45672C8.97595 6.75825 8.31451 7.20021 7.75736 7.75736C7.20021 8.31451 6.75825 8.97595 6.45672 9.7039C6.15519 10.4319 6 11.2121 6 12Z" stroke="#2563EB" stroke-width="1.33333" stroke-linecap="round" stroke-linejoin="round"/>
</svg>
