<svg width="24" height="24" viewBox="0 0 24 24" fill="none" xmlns="http://www.w3.org/2000/svg">
<rect x="0.5" y="0.5" width="23" height="23" rx="7.5" fill="white"/>
<rect x="0.5" y="0.5" width="23" height="23" rx="7.5" stroke="#E2E8F0"/>
<path d="M13.3333 6.048C13.993 6.42881 14.5635 6.94652 15.0064 7.56627C15.4492 8.18603 15.7542 8.89346 15.9007 9.64095C16.0472 10.3884 16.032 11.1587 15.8559 11.8997C15.6798 12.6408 15.3471 13.3356 14.88 13.9373L18.4713 17.5287C18.5928 17.6544 18.66 17.8228 18.6584 17.9976C18.6569 18.1724 18.5868 18.3396 18.4632 18.4632C18.3396 18.5868 18.1724 18.6569 17.9976 18.6584C17.8228 18.66 17.6544 18.5928 17.5287 18.4713L13.9367 14.88C13.1483 15.4919 12.2041 15.8703 11.2113 15.9722C10.2186 16.0741 9.21719 15.8954 8.32095 15.4565C7.4247 15.0176 6.66958 14.336 6.14144 13.4893C5.61329 12.6426 5.33331 11.6646 5.33333 10.6667L5.33666 10.4767C5.36946 9.55716 5.63957 8.66179 6.12076 7.87755C6.60194 7.09332 7.27783 6.44691 8.08272 6.00115C8.88762 5.55539 9.79414 5.32544 10.7142 5.33365C11.6342 5.34186 12.5365 5.58795 13.3333 6.048ZM12 8H10.3333C9.8913 8 9.46738 8.17559 9.15482 8.48815C8.84226 8.80071 8.66666 9.22464 8.66666 9.66667C8.66666 10.1087 8.84226 10.5326 9.15482 10.8452C9.46738 11.1577 9.8913 11.3333 10.3333 11.3333H11C11.0884 11.3333 11.1732 11.3685 11.2357 11.431C11.2982 11.4935 11.3333 11.5783 11.3333 11.6667C11.3333 11.7551 11.2982 11.8399 11.2357 11.9024C11.1732 11.9649 11.0884 12 11 12H9.33333C9.15652 12 8.98695 12.0702 8.86192 12.1953C8.7369 12.3203 8.66666 12.4899 8.66666 12.6667C8.66666 12.8435 8.7369 13.013 8.86192 13.1381C8.98695 13.2631 9.15652 13.3333 9.33333 13.3333H11C11.442 13.3333 11.8659 13.1577 12.1785 12.8452C12.4911 12.5326 12.6667 12.1087 12.6667 11.6667C12.6667 11.2246 12.4911 10.8007 12.1785 10.4882C11.8659 10.1756 11.442 10 11 10H10.3333C10.2449 10 10.1601 9.96488 10.0976 9.90237C10.0351 9.83986 10 9.75507 10 9.66667C10 9.57826 10.0351 9.49347 10.0976 9.43096C10.1601 9.36845 10.2449 9.33333 10.3333 9.33333H12C12.1768 9.33333 12.3464 9.26309 12.4714 9.13807C12.5964 9.01305 12.6667 8.84348 12.6667 8.66667C12.6667 8.48985 12.5964 8.32029 12.4714 8.19526C12.3464 8.07024 12.1768 8 12 8Z" fill="#2563EB"/>
</svg>
