<svg width="11" height="8" viewBox="0 0 11 8" fill="none" xmlns="http://www.w3.org/2000/svg">
<path fill-rule="evenodd" clip-rule="evenodd" d="M9.73558 0.751251H7.7375C7.3275 0.751251 6.9875 1.09125 6.9875 1.50125C6.9875 1.91125 7.3275 2.25125 7.7375 2.25125H7.9275L5.6575 4.52125L4.5675 2.88125C4.4475 2.69125 4.2375 2.57125 4.0175 2.55125C3.7875 2.53125 3.5675 2.61125 3.4175 2.77125L0.2175 5.97125C-0.0725 6.26125 -0.0725 6.74125 0.2175 7.03125C0.5075 7.32125 0.9875 7.32125 1.2775 7.03125L3.8275 4.48125L4.9175 6.12125C5.0375 6.30125 5.2375 6.42125 5.4675 6.45125C5.6975 6.47125 5.9175 6.39125 6.0675 6.23125L8.9875 3.31125V3.50125C8.9875 3.91125 9.3275 4.25125 9.7375 4.25125C10.1475 4.25125 10.4875 3.91125 10.4875 3.50125V1.50125C10.4875 1.38947 10.4622 1.28289 10.4172 1.18699C10.3814 1.10854 10.3315 1.03527 10.2675 0.971249C10.1175 0.821249 9.9275 0.751249 9.7375 0.751249" fill="#DC2626"/>
</svg>
