<svg width="11" height="8" viewBox="0 0 11 8" fill="none" xmlns="http://www.w3.org/2000/svg">
<path fill-rule="evenodd" clip-rule="evenodd" d="M8.9975 3.5C8.9975 3.91 9.3375 4.25 9.7475 4.25C10.1575 4.25 10.4975 3.91 10.4975 3.5V1.5C10.4975 1.09 10.1575 0.75 9.7475 0.75H7.7475C7.3375 0.75 6.9975 1.09 6.9975 1.5C6.9975 1.91 7.3375 2.25 7.7475 2.25H7.9275L5.6575 4.52L4.5675 2.88C4.4375 2.69 4.2375 2.57 4.0175 2.55C3.7875 2.53 3.5775 2.61 3.4175 2.77L0.2175 5.97C-0.0725 6.26 -0.0725 6.74 0.2175 7.03C0.3675 7.18 0.5575 7.25 0.7475 7.25C0.9375 7.25 1.1275 7.18 1.2775 7.03L3.8275 4.48L4.9175 6.12C5.0475 6.31 5.2475 6.43 5.4675 6.45C5.6975 6.47 5.9075 6.39 6.0675 6.23L8.9975 3.3V3.5Z" fill="#16A34A"/>
</svg>
