<svg width="28" height="28" viewBox="0 0 28 28" fill="none" xmlns="http://www.w3.org/2000/svg">
<path d="M5.738 23.7028C6.08864 22.5357 6.80612 21.5128 7.78401 20.7858C8.76191 20.0588 9.94812 19.6663 11.1667 19.6667H16.8333C18.0534 19.6662 19.2411 20.0596 20.2197 20.7884C21.1983 21.5171 21.9156 22.5422 22.2648 23.7112M1.25 14C1.25 15.6744 1.57979 17.3323 2.22054 18.8792C2.86128 20.4261 3.80044 21.8317 4.98439 23.0156C6.16834 24.1996 7.57388 25.1387 9.12079 25.7795C10.6677 26.4202 12.3256 26.75 14 26.75C15.6744 26.75 17.3323 26.4202 18.8792 25.7795C20.4261 25.1387 21.8317 24.1996 23.0156 23.0156C24.1996 21.8317 25.1387 20.4261 25.7795 18.8792C26.4202 17.3323 26.75 15.6744 26.75 14C26.75 12.3256 26.4202 10.6677 25.7795 9.12079C25.1387 7.57388 24.1996 6.16834 23.0156 4.98439C21.8317 3.80044 20.4261 2.86128 18.8792 2.22054C17.3323 1.57979 15.6744 1.25 14 1.25C12.3256 1.25 10.6677 1.57979 9.12079 2.22054C7.57388 2.86128 6.16834 3.80044 4.98439 4.98439C3.80044 6.16834 2.86128 7.57388 2.22054 9.12079C1.57979 10.6677 1.25 12.3256 1.25 14ZM9.75 11.1667C9.75 12.2938 10.1978 13.3748 10.9948 14.1719C11.7918 14.9689 12.8728 15.4167 14 15.4167C15.1272 15.4167 16.2082 14.9689 17.0052 14.1719C17.8022 13.3748 18.25 12.2938 18.25 11.1667C18.25 10.0395 17.8022 8.95849 17.0052 8.16146C16.2082 7.36443 15.1272 6.91667 14 6.91667C12.8728 6.91667 11.7918 7.36443 10.9948 8.16146C10.1978 8.95849 9.75 10.0395 9.75 11.1667Z" stroke="#4A463A" stroke-width="2.125" stroke-linecap="round" stroke-linejoin="round"/>
</svg>
