<svg width="297" height="81" viewBox="0 0 297 81" fill="none" xmlns="http://www.w3.org/2000/svg">
<path d="M2.14694 14C1.9416 14 1.7876 13.9533 1.68494 13.86C1.5916 13.7573 1.54494 13.622 1.54494 13.454C1.54494 13.3513 1.56827 13.2533 1.61494 13.16C1.67094 13.0573 1.7456 12.9547 1.83894 12.852L4.97494 9.492C5.45094 8.97867 5.7916 8.50733 5.99694 8.078C6.2116 7.63933 6.31894 7.196 6.31894 6.748C6.31894 6.188 6.14627 5.76333 5.80094 5.474C5.46494 5.17533 4.97027 5.026 4.31694 5.026C3.89694 5.026 3.50027 5.09133 3.12694 5.222C2.7536 5.35267 2.39427 5.55333 2.04894 5.824C1.9276 5.91733 1.8156 5.95933 1.71294 5.95C1.6196 5.94067 1.5356 5.90333 1.46094 5.838C1.38627 5.77267 1.33494 5.68867 1.30694 5.586C1.27894 5.48333 1.27894 5.38067 1.30694 5.278C1.34427 5.17533 1.41894 5.082 1.53094 4.998C1.89494 4.69933 2.3336 4.46133 2.84694 4.284C3.36027 4.09733 3.88294 4.004 4.41494 4.004C5.0776 4.004 5.6376 4.10667 6.09494 4.312C6.55227 4.51733 6.8976 4.82067 7.13094 5.222C7.36427 5.614 7.48094 6.09467 7.48094 6.664C7.48094 7.056 7.4156 7.44333 7.28494 7.826C7.1636 8.19933 6.97227 8.582 6.71094 8.974C6.45894 9.366 6.1276 9.772 5.71694 10.192L2.73494 13.342V13.02H7.45294C7.63027 13.02 7.76094 13.062 7.84494 13.146C7.93827 13.2207 7.98494 13.3373 7.98494 13.496C7.98494 13.664 7.93827 13.79 7.84494 13.874C7.76094 13.958 7.63027 14 7.45294 14H2.14694ZM12.5155 14.126C11.3861 14.126 10.5275 13.692 9.93947 12.824C9.35147 11.956 9.05747 10.7007 9.05747 9.058C9.05747 7.95667 9.18813 7.03267 9.44947 6.286C9.7108 5.53 10.0981 4.96067 10.6115 4.578C11.1341 4.19533 11.7688 4.004 12.5155 4.004C13.6541 4.004 14.5128 4.43333 15.0915 5.292C15.6795 6.14133 15.9735 7.392 15.9735 9.044C15.9735 10.1453 15.8428 11.074 15.5815 11.83C15.3201 12.586 14.9328 13.16 14.4195 13.552C13.9061 13.9347 13.2715 14.126 12.5155 14.126ZM12.5155 13.132C13.2995 13.132 13.8781 12.8007 14.2515 12.138C14.6341 11.466 14.8255 10.4347 14.8255 9.044C14.8255 7.644 14.6341 6.622 14.2515 5.978C13.8781 5.32467 13.2995 4.998 12.5155 4.998C11.7408 4.998 11.1621 5.32467 10.7795 5.978C10.3968 6.63133 10.2055 7.65333 10.2055 9.044C10.2055 10.4347 10.3968 11.466 10.7795 12.138C11.1621 12.8007 11.7408 13.132 12.5155 13.132ZM18.096 14C17.8907 14 17.7367 13.9533 17.634 13.86C17.5407 13.7573 17.494 13.622 17.494 13.454C17.494 13.3513 17.5173 13.2533 17.564 13.16C17.62 13.0573 17.6947 12.9547 17.788 12.852L20.924 9.492C21.4 8.97867 21.7407 8.50733 21.946 8.078C22.1607 7.63933 22.268 7.196 22.268 6.748C22.268 6.188 22.0953 5.76333 21.75 5.474C21.414 5.17533 20.9193 5.026 20.266 5.026C19.846 5.026 19.4493 5.09133 19.076 5.222C18.7027 5.35267 18.3433 5.55333 17.998 5.824C17.8767 5.91733 17.7647 5.95933 17.662 5.95C17.5687 5.94067 17.4847 5.90333 17.41 5.838C17.3353 5.77267 17.284 5.68867 17.256 5.586C17.228 5.48333 17.228 5.38067 17.256 5.278C17.2933 5.17533 17.368 5.082 17.48 4.998C17.844 4.69933 18.2827 4.46133 18.796 4.284C19.3093 4.09733 19.832 4.004 20.364 4.004C21.0267 4.004 21.5867 4.10667 22.044 4.312C22.5013 4.51733 22.8467 4.82067 23.08 5.222C23.3133 5.614 23.43 6.09467 23.43 6.664C23.43 7.056 23.3647 7.44333 23.234 7.826C23.1127 8.19933 22.9213 8.582 22.66 8.974C22.408 9.366 22.0767 9.772 21.666 10.192L18.684 13.342V13.02H23.402C23.5793 13.02 23.71 13.062 23.794 13.146C23.8873 13.2207 23.934 13.3373 23.934 13.496C23.934 13.664 23.8873 13.79 23.794 13.874C23.71 13.958 23.5793 14 23.402 14H18.096ZM30.1165 14.098C29.9392 14.098 29.7992 14.0467 29.6965 13.944C29.5939 13.8413 29.5425 13.6967 29.5425 13.51V11.886H25.5245C25.3379 11.886 25.1885 11.844 25.0765 11.76C24.9739 11.6667 24.9225 11.536 24.9225 11.368C24.9225 11.2653 24.9459 11.1627 24.9925 11.06C25.0392 10.948 25.1232 10.808 25.2445 10.64L29.5145 4.424C29.5985 4.29333 29.6919 4.19533 29.7945 4.13C29.8972 4.06467 30.0185 4.032 30.1585 4.032C30.3079 4.032 30.4339 4.07867 30.5365 4.172C30.6485 4.26533 30.7045 4.41467 30.7045 4.62V10.906H31.7265C31.9039 10.906 32.0392 10.948 32.1325 11.032C32.2259 11.116 32.2725 11.2373 32.2725 11.396C32.2725 11.5547 32.2259 11.676 32.1325 11.76C32.0392 11.844 31.9039 11.886 31.7265 11.886H30.7045V13.51C30.7045 13.6967 30.6532 13.8413 30.5505 13.944C30.4479 14.0467 30.3032 14.098 30.1165 14.098ZM29.5425 10.906V5.474H29.8785L25.9585 11.214V10.906H29.5425Z" fill="#4B5563"/>
<path d="M240.58 14.098C240.431 14.098 240.3 14.0747 240.188 14.028C240.076 13.9813 239.983 13.916 239.908 13.832C239.843 13.748 239.782 13.6593 239.726 13.566L237.92 10.85C237.78 10.626 237.631 10.444 237.472 10.304C237.323 10.164 237.155 10.066 236.968 10.01C236.781 9.954 236.557 9.926 236.296 9.926H234.798C234.602 9.926 234.453 9.87467 234.35 9.772C234.247 9.66 234.196 9.51533 234.196 9.338C234.196 9.15133 234.247 9.01133 234.35 8.918C234.453 8.81533 234.602 8.764 234.798 8.764H237.094C237.841 8.764 238.401 8.61933 238.774 8.33C239.147 8.03133 239.348 7.58333 239.376 6.986L239.586 7.322H234.756C234.579 7.322 234.439 7.28 234.336 7.196C234.243 7.10267 234.196 6.972 234.196 6.804C234.196 6.64533 234.243 6.524 234.336 6.44C234.439 6.34667 234.579 6.3 234.756 6.3H239.586L239.348 6.622C239.273 6.13667 239.054 5.77267 238.69 5.53C238.335 5.278 237.831 5.152 237.178 5.152H234.756C234.579 5.152 234.439 5.11 234.336 5.026C234.243 4.93267 234.196 4.802 234.196 4.634C234.196 4.47533 234.243 4.354 234.336 4.27C234.439 4.17667 234.579 4.13 234.756 4.13H241.644C241.831 4.13 241.971 4.17667 242.064 4.27C242.167 4.354 242.218 4.47533 242.218 4.634C242.218 4.802 242.167 4.93267 242.064 5.026C241.971 5.11 241.831 5.152 241.644 5.152H239.39L239.586 4.83C239.931 5.00733 240.202 5.24067 240.398 5.53C240.594 5.81933 240.715 6.15533 240.762 6.538L240.482 6.3H241.644C241.831 6.3 241.971 6.34667 242.064 6.44C242.167 6.524 242.218 6.64533 242.218 6.804C242.218 6.972 242.167 7.10267 242.064 7.196C241.971 7.28 241.831 7.322 241.644 7.322H240.524L240.79 6.93C240.809 7.52733 240.683 8.04533 240.412 8.484C240.151 8.92267 239.768 9.26333 239.264 9.506C238.769 9.73933 238.167 9.856 237.458 9.856V9.716H237.766C238.149 9.716 238.485 9.8 238.774 9.968C239.063 10.136 239.348 10.43 239.628 10.85L241.112 13.076C241.224 13.244 241.271 13.4073 241.252 13.566C241.243 13.7153 241.177 13.8413 241.056 13.944C240.944 14.0467 240.785 14.098 240.58 14.098ZM246.175 14.126C245.428 14.126 244.784 14.0187 244.243 13.804C243.711 13.5893 243.3 13.2767 243.011 12.866C242.731 12.446 242.591 11.9467 242.591 11.368C242.591 10.9013 242.684 10.4907 242.871 10.136C243.057 9.772 243.319 9.478 243.655 9.254C243.991 9.03 244.378 8.89 244.817 8.834V9.086C244.21 8.95533 243.725 8.67067 243.361 8.232C243.006 7.784 242.829 7.252 242.829 6.636C242.829 6.08533 242.964 5.614 243.235 5.222C243.515 4.82067 243.907 4.51733 244.411 4.312C244.915 4.10667 245.503 4.004 246.175 4.004C246.856 4.004 247.449 4.10667 247.953 4.312C248.457 4.51733 248.844 4.82067 249.115 5.222C249.395 5.614 249.535 6.08533 249.535 6.636C249.535 7.04667 249.451 7.42467 249.283 7.77C249.124 8.106 248.895 8.39067 248.597 8.624C248.298 8.848 247.948 8.99733 247.547 9.072V8.834C248.209 8.92733 248.741 9.20267 249.143 9.66C249.553 10.108 249.759 10.6773 249.759 11.368C249.759 11.9467 249.614 12.446 249.325 12.866C249.045 13.2767 248.639 13.5893 248.107 13.804C247.575 14.0187 246.931 14.126 246.175 14.126ZM246.175 12.978C246.912 12.978 247.467 12.838 247.841 12.558C248.214 12.2687 248.401 11.8393 248.401 11.27C248.401 10.7007 248.214 10.276 247.841 9.996C247.467 9.716 246.912 9.576 246.175 9.576C245.447 9.576 244.891 9.716 244.509 9.996C244.135 10.276 243.949 10.7007 243.949 11.27C243.949 11.8393 244.135 12.2687 244.509 12.558C244.891 12.838 245.447 12.978 246.175 12.978ZM246.175 8.428C246.595 8.428 246.949 8.36267 247.239 8.232C247.537 8.092 247.766 7.90067 247.925 7.658C248.083 7.406 248.163 7.112 248.163 6.776C248.163 6.272 247.985 5.87533 247.631 5.586C247.285 5.29667 246.8 5.152 246.175 5.152C245.549 5.152 245.064 5.29667 244.719 5.586C244.373 5.87533 244.201 6.272 244.201 6.776C244.201 7.28933 244.373 7.69533 244.719 7.994C245.064 8.28333 245.549 8.428 246.175 8.428ZM251.783 15.414C251.68 15.5447 251.568 15.6193 251.447 15.638C251.335 15.6567 251.237 15.6333 251.153 15.568C251.069 15.5027 251.022 15.4093 251.013 15.288C251.004 15.176 251.055 15.05 251.167 14.91C251.335 14.7047 251.447 14.49 251.503 14.266C251.568 14.0513 251.601 13.86 251.601 13.692L251.657 14.056C251.377 14.056 251.148 13.9767 250.971 13.818C250.803 13.65 250.719 13.4307 250.719 13.16C250.719 12.8987 250.798 12.6887 250.957 12.53C251.116 12.362 251.33 12.278 251.601 12.278C251.881 12.278 252.1 12.376 252.259 12.572C252.427 12.7587 252.511 13.0293 252.511 13.384C252.511 13.5893 252.488 13.804 252.441 14.028C252.404 14.252 252.334 14.4807 252.231 14.714C252.128 14.9473 251.979 15.1807 251.783 15.414ZM257.051 14.126C255.903 14.126 255.026 13.692 254.419 12.824C253.822 11.9467 253.523 10.6913 253.523 9.058C253.523 7.94733 253.659 7.01867 253.929 6.272C254.2 5.52533 254.597 4.96067 255.119 4.578C255.642 4.19533 256.286 4.004 257.051 4.004C258.209 4.004 259.086 4.43333 259.683 5.292C260.281 6.14133 260.579 7.392 260.579 9.044C260.579 10.136 260.444 11.06 260.173 11.816C259.903 12.572 259.506 13.146 258.983 13.538C258.461 13.93 257.817 14.126 257.051 14.126ZM257.051 12.922C257.77 12.922 258.297 12.6093 258.633 11.984C258.979 11.3493 259.151 10.3693 259.151 9.044C259.151 7.70933 258.979 6.73867 258.633 6.132C258.297 5.516 257.77 5.208 257.051 5.208C256.342 5.208 255.815 5.516 255.469 6.132C255.124 6.73867 254.951 7.70933 254.951 9.044C254.951 10.3693 255.124 11.3493 255.469 11.984C255.815 12.6093 256.342 12.922 257.051 12.922ZM265.026 14.126C263.878 14.126 263.001 13.692 262.394 12.824C261.797 11.9467 261.498 10.6913 261.498 9.058C261.498 7.94733 261.633 7.01867 261.904 6.272C262.175 5.52533 262.571 4.96067 263.094 4.578C263.617 4.19533 264.261 4.004 265.026 4.004C266.183 4.004 267.061 4.43333 267.658 5.292C268.255 6.14133 268.554 7.392 268.554 9.044C268.554 10.136 268.419 11.06 268.148 11.816C267.877 12.572 267.481 13.146 266.958 13.538C266.435 13.93 265.791 14.126 265.026 14.126ZM265.026 12.922C265.745 12.922 266.272 12.6093 266.608 11.984C266.953 11.3493 267.126 10.3693 267.126 9.044C267.126 7.70933 266.953 6.73867 266.608 6.132C266.272 5.516 265.745 5.208 265.026 5.208C264.317 5.208 263.789 5.516 263.444 6.132C263.099 6.73867 262.926 7.70933 262.926 9.044C262.926 10.3693 263.099 11.3493 263.444 11.984C263.789 12.6093 264.317 12.922 265.026 12.922ZM270.634 15.414C270.532 15.5447 270.42 15.6193 270.298 15.638C270.186 15.6567 270.088 15.6333 270.004 15.568C269.92 15.5027 269.874 15.4093 269.864 15.288C269.855 15.176 269.906 15.05 270.018 14.91C270.186 14.7047 270.298 14.49 270.354 14.266C270.42 14.0513 270.452 13.86 270.452 13.692L270.508 14.056C270.228 14.056 270 13.9767 269.822 13.818C269.654 13.65 269.57 13.4307 269.57 13.16C269.57 12.8987 269.65 12.6887 269.808 12.53C269.967 12.362 270.182 12.278 270.452 12.278C270.732 12.278 270.952 12.376 271.11 12.572C271.278 12.7587 271.362 13.0293 271.362 13.384C271.362 13.5893 271.339 13.804 271.292 14.028C271.255 14.252 271.185 14.4807 271.082 14.714C270.98 14.9473 270.83 15.1807 270.634 15.414ZM275.903 14.126C274.755 14.126 273.877 13.692 273.271 12.824C272.673 11.9467 272.375 10.6913 272.375 9.058C272.375 7.94733 272.51 7.01867 272.781 6.272C273.051 5.52533 273.448 4.96067 273.971 4.578C274.493 4.19533 275.137 4.004 275.903 4.004C277.06 4.004 277.937 4.43333 278.535 5.292C279.132 6.14133 279.431 7.392 279.431 9.044C279.431 10.136 279.295 11.06 279.025 11.816C278.754 12.572 278.357 13.146 277.835 13.538C277.312 13.93 276.668 14.126 275.903 14.126ZM275.903 12.922C276.621 12.922 277.149 12.6093 277.485 11.984C277.83 11.3493 278.003 10.3693 278.003 9.044C278.003 7.70933 277.83 6.73867 277.485 6.132C277.149 5.516 276.621 5.208 275.903 5.208C275.193 5.208 274.666 5.516 274.321 6.132C273.975 6.73867 273.803 7.70933 273.803 9.044C273.803 10.3693 273.975 11.3493 274.321 11.984C274.666 12.6093 275.193 12.922 275.903 12.922ZM283.877 14.126C282.729 14.126 281.852 13.692 281.245 12.824C280.648 11.9467 280.349 10.6913 280.349 9.058C280.349 7.94733 280.485 7.01867 280.755 6.272C281.026 5.52533 281.423 4.96067 281.945 4.578C282.468 4.19533 283.112 4.004 283.877 4.004C285.035 4.004 285.912 4.43333 286.509 5.292C287.107 6.14133 287.405 7.392 287.405 9.044C287.405 10.136 287.27 11.06 286.999 11.816C286.729 12.572 286.332 13.146 285.809 13.538C285.287 13.93 284.643 14.126 283.877 14.126ZM283.877 12.922C284.596 12.922 285.123 12.6093 285.459 11.984C285.805 11.3493 285.977 10.3693 285.977 9.044C285.977 7.70933 285.805 6.73867 285.459 6.132C285.123 5.516 284.596 5.208 283.877 5.208C283.168 5.208 282.641 5.516 282.295 6.132C281.95 6.73867 281.777 7.70933 281.777 9.044C281.777 10.3693 281.95 11.3493 282.295 11.984C282.641 12.6093 283.168 12.922 283.877 12.922ZM291.852 14.126C290.704 14.126 289.826 13.692 289.22 12.824C288.622 11.9467 288.324 10.6913 288.324 9.058C288.324 7.94733 288.459 7.01867 288.73 6.272C289 5.52533 289.397 4.96067 289.92 4.578C290.442 4.19533 291.086 4.004 291.852 4.004C293.009 4.004 293.886 4.43333 294.484 5.292C295.081 6.14133 295.38 7.392 295.38 9.044C295.38 10.136 295.244 11.06 294.974 11.816C294.703 12.572 294.306 13.146 293.784 13.538C293.261 13.93 292.617 14.126 291.852 14.126ZM291.852 12.922C292.57 12.922 293.098 12.6093 293.434 11.984C293.779 11.3493 293.952 10.3693 293.952 9.044C293.952 7.70933 293.779 6.73867 293.434 6.132C293.098 5.516 292.57 5.208 291.852 5.208C291.142 5.208 290.615 5.516 290.27 6.132C289.924 6.73867 289.752 7.70933 289.752 9.044C289.752 10.3693 289.924 11.3493 290.27 11.984C290.615 12.6093 291.142 12.922 291.852 12.922Z" fill="#111827"/>
<path d="M2.14694 45C1.9416 45 1.7876 44.9533 1.68494 44.86C1.5916 44.7573 1.54494 44.622 1.54494 44.454C1.54494 44.3513 1.56827 44.2533 1.61494 44.16C1.67094 44.0573 1.7456 43.9547 1.83894 43.852L4.97494 40.492C5.45094 39.9787 5.7916 39.5073 5.99694 39.078C6.2116 38.6393 6.31894 38.196 6.31894 37.748C6.31894 37.188 6.14627 36.7633 5.80094 36.474C5.46494 36.1753 4.97027 36.026 4.31694 36.026C3.89694 36.026 3.50027 36.0913 3.12694 36.222C2.7536 36.3527 2.39427 36.5533 2.04894 36.824C1.9276 36.9173 1.8156 36.9593 1.71294 36.95C1.6196 36.9407 1.5356 36.9033 1.46094 36.838C1.38627 36.7727 1.33494 36.6887 1.30694 36.586C1.27894 36.4833 1.27894 36.3807 1.30694 36.278C1.34427 36.1753 1.41894 36.082 1.53094 35.998C1.89494 35.6993 2.3336 35.4613 2.84694 35.284C3.36027 35.0973 3.88294 35.004 4.41494 35.004C5.0776 35.004 5.6376 35.1067 6.09494 35.312C6.55227 35.5173 6.8976 35.8207 7.13094 36.222C7.36427 36.614 7.48094 37.0947 7.48094 37.664C7.48094 38.056 7.4156 38.4433 7.28494 38.826C7.1636 39.1993 6.97227 39.582 6.71094 39.974C6.45894 40.366 6.1276 40.772 5.71694 41.192L2.73494 44.342V44.02H7.45294C7.63027 44.02 7.76094 44.062 7.84494 44.146C7.93827 44.2207 7.98494 44.3373 7.98494 44.496C7.98494 44.664 7.93827 44.79 7.84494 44.874C7.76094 44.958 7.63027 45 7.45294 45H2.14694ZM12.5155 45.126C11.3861 45.126 10.5275 44.692 9.93947 43.824C9.35147 42.956 9.05747 41.7007 9.05747 40.058C9.05747 38.9567 9.18813 38.0327 9.44947 37.286C9.7108 36.53 10.0981 35.9607 10.6115 35.578C11.1341 35.1953 11.7688 35.004 12.5155 35.004C13.6541 35.004 14.5128 35.4333 15.0915 36.292C15.6795 37.1413 15.9735 38.392 15.9735 40.044C15.9735 41.1453 15.8428 42.074 15.5815 42.83C15.3201 43.586 14.9328 44.16 14.4195 44.552C13.9061 44.9347 13.2715 45.126 12.5155 45.126ZM12.5155 44.132C13.2995 44.132 13.8781 43.8007 14.2515 43.138C14.6341 42.466 14.8255 41.4347 14.8255 40.044C14.8255 38.644 14.6341 37.622 14.2515 36.978C13.8781 36.3247 13.2995 35.998 12.5155 35.998C11.7408 35.998 11.1621 36.3247 10.7795 36.978C10.3968 37.6313 10.2055 38.6533 10.2055 40.044C10.2055 41.4347 10.3968 42.466 10.7795 43.138C11.1621 43.8007 11.7408 44.132 12.5155 44.132ZM18.096 45C17.8907 45 17.7367 44.9533 17.634 44.86C17.5407 44.7573 17.494 44.622 17.494 44.454C17.494 44.3513 17.5173 44.2533 17.564 44.16C17.62 44.0573 17.6947 43.9547 17.788 43.852L20.924 40.492C21.4 39.9787 21.7407 39.5073 21.946 39.078C22.1607 38.6393 22.268 38.196 22.268 37.748C22.268 37.188 22.0953 36.7633 21.75 36.474C21.414 36.1753 20.9193 36.026 20.266 36.026C19.846 36.026 19.4493 36.0913 19.076 36.222C18.7027 36.3527 18.3433 36.5533 17.998 36.824C17.8767 36.9173 17.7647 36.9593 17.662 36.95C17.5687 36.9407 17.4847 36.9033 17.41 36.838C17.3353 36.7727 17.284 36.6887 17.256 36.586C17.228 36.4833 17.228 36.3807 17.256 36.278C17.2933 36.1753 17.368 36.082 17.48 35.998C17.844 35.6993 18.2827 35.4613 18.796 35.284C19.3093 35.0973 19.832 35.004 20.364 35.004C21.0267 35.004 21.5867 35.1067 22.044 35.312C22.5013 35.5173 22.8467 35.8207 23.08 36.222C23.3133 36.614 23.43 37.0947 23.43 37.664C23.43 38.056 23.3647 38.4433 23.234 38.826C23.1127 39.1993 22.9213 39.582 22.66 39.974C22.408 40.366 22.0767 40.772 21.666 41.192L18.684 44.342V44.02H23.402C23.5793 44.02 23.71 44.062 23.794 44.146C23.8873 44.2207 23.934 44.3373 23.934 44.496C23.934 44.664 23.8873 44.79 23.794 44.874C23.71 44.958 23.5793 45 23.402 45H18.096ZM28.6745 45.126C28.1425 45.126 27.6105 45.0467 27.0785 44.888C26.5559 44.7293 26.0799 44.482 25.6505 44.146C25.5385 44.0713 25.4639 43.9827 25.4265 43.88C25.3892 43.7773 25.3845 43.6747 25.4125 43.572C25.4405 43.4693 25.4919 43.3853 25.5665 43.32C25.6412 43.2453 25.7299 43.2033 25.8325 43.194C25.9445 43.1847 26.0612 43.222 26.1825 43.306C26.5652 43.5767 26.9619 43.7773 27.3725 43.908C27.7832 44.0387 28.2125 44.104 28.6605 44.104C29.1179 44.104 29.5099 44.02 29.8365 43.852C30.1725 43.6747 30.4245 43.432 30.5925 43.124C30.7699 42.8067 30.8585 42.438 30.8585 42.018C30.8585 41.374 30.6719 40.8467 30.2985 40.436C29.9252 40.0253 29.4119 39.82 28.7585 39.82C28.3572 39.82 27.9885 39.8947 27.6525 40.044C27.3165 40.1933 27.0085 40.4313 26.7285 40.758C26.6632 40.8327 26.5839 40.898 26.4905 40.954C26.4065 41.0007 26.3085 41.024 26.1965 41.024C26.0379 41.024 25.9119 40.982 25.8185 40.898C25.7345 40.8047 25.6925 40.6833 25.6925 40.534V35.662C25.6925 35.4847 25.7392 35.354 25.8325 35.27C25.9259 35.1767 26.0565 35.13 26.2245 35.13H30.9845C31.1619 35.13 31.2925 35.172 31.3765 35.256C31.4699 35.34 31.5165 35.4613 31.5165 35.62C31.5165 35.7787 31.4699 35.9 31.3765 35.984C31.2925 36.068 31.1619 36.11 30.9845 36.11H26.8265V40.044H26.5185C26.7612 39.652 27.0972 39.3533 27.5265 39.148C27.9559 38.9333 28.4365 38.826 28.9685 38.826C29.5939 38.826 30.1305 38.9567 30.5785 39.218C31.0359 39.4793 31.3859 39.848 31.6285 40.324C31.8805 40.7907 32.0065 41.3367 32.0065 41.962C32.0065 42.578 31.8712 43.124 31.6005 43.6C31.3299 44.076 30.9472 44.4493 30.4525 44.72C29.9579 44.9907 29.3652 45.126 28.6745 45.126Z" fill="#4B5563"/>
<path d="M240.58 45.098C240.431 45.098 240.3 45.0747 240.188 45.028C240.076 44.9813 239.983 44.916 239.908 44.832C239.843 44.748 239.782 44.6593 239.726 44.566L237.92 41.85C237.78 41.626 237.631 41.444 237.472 41.304C237.323 41.164 237.155 41.066 236.968 41.01C236.781 40.954 236.557 40.926 236.296 40.926H234.798C234.602 40.926 234.453 40.8747 234.35 40.772C234.247 40.66 234.196 40.5153 234.196 40.338C234.196 40.1513 234.247 40.0113 234.35 39.918C234.453 39.8153 234.602 39.764 234.798 39.764H237.094C237.841 39.764 238.401 39.6193 238.774 39.33C239.147 39.0313 239.348 38.5833 239.376 37.986L239.586 38.322H234.756C234.579 38.322 234.439 38.28 234.336 38.196C234.243 38.1027 234.196 37.972 234.196 37.804C234.196 37.6453 234.243 37.524 234.336 37.44C234.439 37.3467 234.579 37.3 234.756 37.3H239.586L239.348 37.622C239.273 37.1367 239.054 36.7727 238.69 36.53C238.335 36.278 237.831 36.152 237.178 36.152H234.756C234.579 36.152 234.439 36.11 234.336 36.026C234.243 35.9327 234.196 35.802 234.196 35.634C234.196 35.4753 234.243 35.354 234.336 35.27C234.439 35.1767 234.579 35.13 234.756 35.13H241.644C241.831 35.13 241.971 35.1767 242.064 35.27C242.167 35.354 242.218 35.4753 242.218 35.634C242.218 35.802 242.167 35.9327 242.064 36.026C241.971 36.11 241.831 36.152 241.644 36.152H239.39L239.586 35.83C239.931 36.0073 240.202 36.2407 240.398 36.53C240.594 36.8193 240.715 37.1553 240.762 37.538L240.482 37.3H241.644C241.831 37.3 241.971 37.3467 242.064 37.44C242.167 37.524 242.218 37.6453 242.218 37.804C242.218 37.972 242.167 38.1027 242.064 38.196C241.971 38.28 241.831 38.322 241.644 38.322H240.524L240.79 37.93C240.809 38.5273 240.683 39.0453 240.412 39.484C240.151 39.9227 239.768 40.2633 239.264 40.506C238.769 40.7393 238.167 40.856 237.458 40.856V40.716H237.766C238.149 40.716 238.485 40.8 238.774 40.968C239.063 41.136 239.348 41.43 239.628 41.85L241.112 44.076C241.224 44.244 241.271 44.4073 241.252 44.566C241.243 44.7153 241.177 44.8413 241.056 44.944C240.944 45.0467 240.785 45.098 240.58 45.098ZM243.809 45C243.557 45 243.375 44.944 243.263 44.832C243.151 44.7107 243.095 44.5473 243.095 44.342C243.095 44.2113 243.127 44.0853 243.193 43.964C243.258 43.8427 243.351 43.7167 243.473 43.586L246.455 40.394C246.912 39.9087 247.239 39.4653 247.435 39.064C247.64 38.6533 247.743 38.2427 247.743 37.832C247.743 37.3093 247.584 36.9127 247.267 36.642C246.949 36.3713 246.483 36.236 245.867 36.236C245.493 36.236 245.134 36.292 244.789 36.404C244.443 36.516 244.098 36.698 243.753 36.95C243.613 37.0433 243.482 37.0853 243.361 37.076C243.239 37.0667 243.132 37.02 243.039 36.936C242.955 36.852 242.899 36.7493 242.871 36.628C242.843 36.5067 242.847 36.3807 242.885 36.25C242.922 36.1193 243.011 36.0073 243.151 35.914C243.533 35.6247 243.977 35.4007 244.481 35.242C244.985 35.0833 245.498 35.004 246.021 35.004C246.702 35.004 247.276 35.1113 247.743 35.326C248.219 35.5313 248.578 35.8347 248.821 36.236C249.063 36.6373 249.185 37.1273 249.185 37.706C249.185 38.098 249.119 38.4807 248.989 38.854C248.867 39.2273 248.676 39.61 248.415 40.002C248.163 40.3847 247.831 40.7907 247.421 41.22L244.593 44.188V43.782H249.045C249.25 43.782 249.409 43.8333 249.521 43.936C249.633 44.0387 249.689 44.188 249.689 44.384C249.689 44.58 249.633 44.734 249.521 44.846C249.409 44.9487 249.25 45 249.045 45H243.809ZM251.783 46.414C251.68 46.5447 251.568 46.6193 251.447 46.638C251.335 46.6567 251.237 46.6333 251.153 46.568C251.069 46.5027 251.022 46.4093 251.013 46.288C251.004 46.176 251.055 46.05 251.167 45.91C251.335 45.7047 251.447 45.49 251.503 45.266C251.568 45.0513 251.601 44.86 251.601 44.692L251.657 45.056C251.377 45.056 251.148 44.9767 250.971 44.818C250.803 44.65 250.719 44.4307 250.719 44.16C250.719 43.8987 250.798 43.6887 250.957 43.53C251.116 43.362 251.33 43.278 251.601 43.278C251.881 43.278 252.1 43.376 252.259 43.572C252.427 43.7587 252.511 44.0293 252.511 44.384C252.511 44.5893 252.488 44.804 252.441 45.028C252.404 45.252 252.334 45.4807 252.231 45.714C252.128 45.9473 251.979 46.1807 251.783 46.414ZM257.051 45.126C255.903 45.126 255.026 44.692 254.419 43.824C253.822 42.9467 253.523 41.6913 253.523 40.058C253.523 38.9473 253.659 38.0187 253.929 37.272C254.2 36.5253 254.597 35.9607 255.119 35.578C255.642 35.1953 256.286 35.004 257.051 35.004C258.209 35.004 259.086 35.4333 259.683 36.292C260.281 37.1413 260.579 38.392 260.579 40.044C260.579 41.136 260.444 42.06 260.173 42.816C259.903 43.572 259.506 44.146 258.983 44.538C258.461 44.93 257.817 45.126 257.051 45.126ZM257.051 43.922C257.77 43.922 258.297 43.6093 258.633 42.984C258.979 42.3493 259.151 41.3693 259.151 40.044C259.151 38.7093 258.979 37.7387 258.633 37.132C258.297 36.516 257.77 36.208 257.051 36.208C256.342 36.208 255.815 36.516 255.469 37.132C255.124 37.7387 254.951 38.7093 254.951 40.044C254.951 41.3693 255.124 42.3493 255.469 42.984C255.815 43.6093 256.342 43.922 257.051 43.922ZM265.026 45.126C263.878 45.126 263.001 44.692 262.394 43.824C261.797 42.9467 261.498 41.6913 261.498 40.058C261.498 38.9473 261.633 38.0187 261.904 37.272C262.175 36.5253 262.571 35.9607 263.094 35.578C263.617 35.1953 264.261 35.004 265.026 35.004C266.183 35.004 267.061 35.4333 267.658 36.292C268.255 37.1413 268.554 38.392 268.554 40.044C268.554 41.136 268.419 42.06 268.148 42.816C267.877 43.572 267.481 44.146 266.958 44.538C266.435 44.93 265.791 45.126 265.026 45.126ZM265.026 43.922C265.745 43.922 266.272 43.6093 266.608 42.984C266.953 42.3493 267.126 41.3693 267.126 40.044C267.126 38.7093 266.953 37.7387 266.608 37.132C266.272 36.516 265.745 36.208 265.026 36.208C264.317 36.208 263.789 36.516 263.444 37.132C263.099 37.7387 262.926 38.7093 262.926 40.044C262.926 41.3693 263.099 42.3493 263.444 42.984C263.789 43.6093 264.317 43.922 265.026 43.922ZM270.634 46.414C270.532 46.5447 270.42 46.6193 270.298 46.638C270.186 46.6567 270.088 46.6333 270.004 46.568C269.92 46.5027 269.874 46.4093 269.864 46.288C269.855 46.176 269.906 46.05 270.018 45.91C270.186 45.7047 270.298 45.49 270.354 45.266C270.42 45.0513 270.452 44.86 270.452 44.692L270.508 45.056C270.228 45.056 270 44.9767 269.822 44.818C269.654 44.65 269.57 44.4307 269.57 44.16C269.57 43.8987 269.65 43.6887 269.808 43.53C269.967 43.362 270.182 43.278 270.452 43.278C270.732 43.278 270.952 43.376 271.11 43.572C271.278 43.7587 271.362 44.0293 271.362 44.384C271.362 44.5893 271.339 44.804 271.292 45.028C271.255 45.252 271.185 45.4807 271.082 45.714C270.98 45.9473 270.83 46.1807 270.634 46.414ZM275.903 45.126C274.755 45.126 273.877 44.692 273.271 43.824C272.673 42.9467 272.375 41.6913 272.375 40.058C272.375 38.9473 272.51 38.0187 272.781 37.272C273.051 36.5253 273.448 35.9607 273.971 35.578C274.493 35.1953 275.137 35.004 275.903 35.004C277.06 35.004 277.937 35.4333 278.535 36.292C279.132 37.1413 279.431 38.392 279.431 40.044C279.431 41.136 279.295 42.06 279.025 42.816C278.754 43.572 278.357 44.146 277.835 44.538C277.312 44.93 276.668 45.126 275.903 45.126ZM275.903 43.922C276.621 43.922 277.149 43.6093 277.485 42.984C277.83 42.3493 278.003 41.3693 278.003 40.044C278.003 38.7093 277.83 37.7387 277.485 37.132C277.149 36.516 276.621 36.208 275.903 36.208C275.193 36.208 274.666 36.516 274.321 37.132C273.975 37.7387 273.803 38.7093 273.803 40.044C273.803 41.3693 273.975 42.3493 274.321 42.984C274.666 43.6093 275.193 43.922 275.903 43.922ZM283.877 45.126C282.729 45.126 281.852 44.692 281.245 43.824C280.648 42.9467 280.349 41.6913 280.349 40.058C280.349 38.9473 280.485 38.0187 280.755 37.272C281.026 36.5253 281.423 35.9607 281.945 35.578C282.468 35.1953 283.112 35.004 283.877 35.004C285.035 35.004 285.912 35.4333 286.509 36.292C287.107 37.1413 287.405 38.392 287.405 40.044C287.405 41.136 287.27 42.06 286.999 42.816C286.729 43.572 286.332 44.146 285.809 44.538C285.287 44.93 284.643 45.126 283.877 45.126ZM283.877 43.922C284.596 43.922 285.123 43.6093 285.459 42.984C285.805 42.3493 285.977 41.3693 285.977 40.044C285.977 38.7093 285.805 37.7387 285.459 37.132C285.123 36.516 284.596 36.208 283.877 36.208C283.168 36.208 282.641 36.516 282.295 37.132C281.95 37.7387 281.777 38.7093 281.777 40.044C281.777 41.3693 281.95 42.3493 282.295 42.984C282.641 43.6093 283.168 43.922 283.877 43.922ZM291.852 45.126C290.704 45.126 289.826 44.692 289.22 43.824C288.622 42.9467 288.324 41.6913 288.324 40.058C288.324 38.9473 288.459 38.0187 288.73 37.272C289 36.5253 289.397 35.9607 289.92 35.578C290.442 35.1953 291.086 35.004 291.852 35.004C293.009 35.004 293.886 35.4333 294.484 36.292C295.081 37.1413 295.38 38.392 295.38 40.044C295.38 41.136 295.244 42.06 294.974 42.816C294.703 43.572 294.306 44.146 293.784 44.538C293.261 44.93 292.617 45.126 291.852 45.126ZM291.852 43.922C292.57 43.922 293.098 43.6093 293.434 42.984C293.779 42.3493 293.952 41.3693 293.952 40.044C293.952 38.7093 293.779 37.7387 293.434 37.132C293.098 36.516 292.57 36.208 291.852 36.208C291.142 36.208 290.615 36.516 290.27 37.132C289.924 37.7387 289.752 38.7093 289.752 40.044C289.752 41.3693 289.924 42.3493 290.27 42.984C290.615 43.6093 291.142 43.922 291.852 43.922Z" fill="#111827"/>
<path d="M2.14694 76C1.9416 76 1.7876 75.9533 1.68494 75.86C1.5916 75.7573 1.54494 75.622 1.54494 75.454C1.54494 75.3513 1.56827 75.2533 1.61494 75.16C1.67094 75.0573 1.7456 74.9547 1.83894 74.852L4.97494 71.492C5.45094 70.9787 5.7916 70.5073 5.99694 70.078C6.2116 69.6393 6.31894 69.196 6.31894 68.748C6.31894 68.188 6.14627 67.7633 5.80094 67.474C5.46494 67.1753 4.97027 67.026 4.31694 67.026C3.89694 67.026 3.50027 67.0913 3.12694 67.222C2.7536 67.3527 2.39427 67.5533 2.04894 67.824C1.9276 67.9173 1.8156 67.9593 1.71294 67.95C1.6196 67.9407 1.5356 67.9033 1.46094 67.838C1.38627 67.7727 1.33494 67.6887 1.30694 67.586C1.27894 67.4833 1.27894 67.3807 1.30694 67.278C1.34427 67.1753 1.41894 67.082 1.53094 66.998C1.89494 66.6993 2.3336 66.4613 2.84694 66.284C3.36027 66.0973 3.88294 66.004 4.41494 66.004C5.0776 66.004 5.6376 66.1067 6.09494 66.312C6.55227 66.5173 6.8976 66.8207 7.13094 67.222C7.36427 67.614 7.48094 68.0947 7.48094 68.664C7.48094 69.056 7.4156 69.4433 7.28494 69.826C7.1636 70.1993 6.97227 70.582 6.71094 70.974C6.45894 71.366 6.1276 71.772 5.71694 72.192L2.73494 75.342V75.02H7.45294C7.63027 75.02 7.76094 75.062 7.84494 75.146C7.93827 75.2207 7.98494 75.3373 7.98494 75.496C7.98494 75.664 7.93827 75.79 7.84494 75.874C7.76094 75.958 7.63027 76 7.45294 76H2.14694ZM12.5155 76.126C11.3861 76.126 10.5275 75.692 9.93947 74.824C9.35147 73.956 9.05747 72.7007 9.05747 71.058C9.05747 69.9567 9.18813 69.0327 9.44947 68.286C9.7108 67.53 10.0981 66.9607 10.6115 66.578C11.1341 66.1953 11.7688 66.004 12.5155 66.004C13.6541 66.004 14.5128 66.4333 15.0915 67.292C15.6795 68.1413 15.9735 69.392 15.9735 71.044C15.9735 72.1453 15.8428 73.074 15.5815 73.83C15.3201 74.586 14.9328 75.16 14.4195 75.552C13.9061 75.9347 13.2715 76.126 12.5155 76.126ZM12.5155 75.132C13.2995 75.132 13.8781 74.8007 14.2515 74.138C14.6341 73.466 14.8255 72.4347 14.8255 71.044C14.8255 69.644 14.6341 68.622 14.2515 67.978C13.8781 67.3247 13.2995 66.998 12.5155 66.998C11.7408 66.998 11.1621 67.3247 10.7795 67.978C10.3968 68.6313 10.2055 69.6533 10.2055 71.044C10.2055 72.4347 10.3968 73.466 10.7795 74.138C11.1621 74.8007 11.7408 75.132 12.5155 75.132ZM18.096 76C17.8907 76 17.7367 75.9533 17.634 75.86C17.5407 75.7573 17.494 75.622 17.494 75.454C17.494 75.3513 17.5173 75.2533 17.564 75.16C17.62 75.0573 17.6947 74.9547 17.788 74.852L20.924 71.492C21.4 70.9787 21.7407 70.5073 21.946 70.078C22.1607 69.6393 22.268 69.196 22.268 68.748C22.268 68.188 22.0953 67.7633 21.75 67.474C21.414 67.1753 20.9193 67.026 20.266 67.026C19.846 67.026 19.4493 67.0913 19.076 67.222C18.7027 67.3527 18.3433 67.5533 17.998 67.824C17.8767 67.9173 17.7647 67.9593 17.662 67.95C17.5687 67.9407 17.4847 67.9033 17.41 67.838C17.3353 67.7727 17.284 67.6887 17.256 67.586C17.228 67.4833 17.228 67.3807 17.256 67.278C17.2933 67.1753 17.368 67.082 17.48 66.998C17.844 66.6993 18.2827 66.4613 18.796 66.284C19.3093 66.0973 19.832 66.004 20.364 66.004C21.0267 66.004 21.5867 66.1067 22.044 66.312C22.5013 66.5173 22.8467 66.8207 23.08 67.222C23.3133 67.614 23.43 68.0947 23.43 68.664C23.43 69.056 23.3647 69.4433 23.234 69.826C23.1127 70.1993 22.9213 70.582 22.66 70.974C22.408 71.366 22.0767 71.772 21.666 72.192L18.684 75.342V75.02H23.402C23.5793 75.02 23.71 75.062 23.794 75.146C23.8873 75.2207 23.934 75.3373 23.934 75.496C23.934 75.664 23.8873 75.79 23.794 75.874C23.71 75.958 23.5793 76 23.402 76H18.096ZM28.8005 76.126C28.0259 76.126 27.3632 75.9393 26.8125 75.566C26.2712 75.1833 25.8605 74.6327 25.5805 73.914C25.3005 73.1953 25.1605 72.3273 25.1605 71.31C25.1605 70.4513 25.2492 69.6953 25.4265 69.042C25.6039 68.3887 25.8652 67.838 26.2105 67.39C26.5559 66.9327 26.9759 66.5873 27.4705 66.354C27.9652 66.1207 28.5252 66.004 29.1505 66.004C29.5799 66.004 30.0185 66.088 30.4665 66.256C30.9239 66.424 31.3252 66.662 31.6705 66.97C31.7732 67.0447 31.8339 67.138 31.8525 67.25C31.8805 67.3527 31.8805 67.4553 31.8525 67.558C31.8245 67.6513 31.7732 67.7307 31.6985 67.796C31.6332 67.8613 31.5492 67.8987 31.4465 67.908C31.3439 67.908 31.2365 67.866 31.1245 67.782C30.8072 67.5113 30.4805 67.32 30.1445 67.208C29.8085 67.0867 29.4679 67.026 29.1225 67.026C28.5159 67.026 27.9979 67.1753 27.5685 67.474C27.1485 67.7727 26.8265 68.2253 26.6025 68.832C26.3879 69.4293 26.2805 70.1807 26.2805 71.086V72.388H26.1545C26.2105 71.856 26.3645 71.3987 26.6165 71.016C26.8779 70.624 27.2092 70.3253 27.6105 70.12C28.0119 69.9147 28.4645 69.812 28.9685 69.812C29.5472 69.812 30.0605 69.9427 30.5085 70.204C30.9565 70.4653 31.3065 70.834 31.5585 71.31C31.8105 71.7767 31.9365 72.3133 31.9365 72.92C31.9365 73.536 31.8059 74.0867 31.5445 74.572C31.2832 75.0573 30.9145 75.44 30.4385 75.72C29.9625 75.9907 29.4165 76.126 28.8005 76.126ZM28.7305 75.146C29.1412 75.146 29.5052 75.0573 29.8225 74.88C30.1399 74.6933 30.3872 74.4367 30.5645 74.11C30.7419 73.774 30.8305 73.3913 30.8305 72.962C30.8305 72.5327 30.7419 72.1547 30.5645 71.828C30.3872 71.5013 30.1399 71.2447 29.8225 71.058C29.5052 70.8713 29.1412 70.778 28.7305 70.778C28.3199 70.778 27.9559 70.8713 27.6385 71.058C27.3212 71.2447 27.0739 71.5013 26.8965 71.828C26.7192 72.1547 26.6305 72.5327 26.6305 72.962C26.6305 73.3913 26.7192 73.774 26.8965 74.11C27.0739 74.4367 27.3212 74.6933 27.6385 74.88C27.9559 75.0573 28.3199 75.146 28.7305 75.146Z" fill="#4B5563"/>
<path d="M251.58 76.098C251.431 76.098 251.3 76.0747 251.188 76.028C251.076 75.9813 250.983 75.916 250.908 75.832C250.843 75.748 250.782 75.6593 250.726 75.566L248.92 72.85C248.78 72.626 248.631 72.444 248.472 72.304C248.323 72.164 248.155 72.066 247.968 72.01C247.781 71.954 247.557 71.926 247.296 71.926H245.798C245.602 71.926 245.453 71.8747 245.35 71.772C245.247 71.66 245.196 71.5153 245.196 71.338C245.196 71.1513 245.247 71.0113 245.35 70.918C245.453 70.8153 245.602 70.764 245.798 70.764H248.094C248.841 70.764 249.401 70.6193 249.774 70.33C250.147 70.0313 250.348 69.5833 250.376 68.986L250.586 69.322H245.756C245.579 69.322 245.439 69.28 245.336 69.196C245.243 69.1027 245.196 68.972 245.196 68.804C245.196 68.6453 245.243 68.524 245.336 68.44C245.439 68.3467 245.579 68.3 245.756 68.3H250.586L250.348 68.622C250.273 68.1367 250.054 67.7727 249.69 67.53C249.335 67.278 248.831 67.152 248.178 67.152H245.756C245.579 67.152 245.439 67.11 245.336 67.026C245.243 66.9327 245.196 66.802 245.196 66.634C245.196 66.4753 245.243 66.354 245.336 66.27C245.439 66.1767 245.579 66.13 245.756 66.13H252.644C252.831 66.13 252.971 66.1767 253.064 66.27C253.167 66.354 253.218 66.4753 253.218 66.634C253.218 66.802 253.167 66.9327 253.064 67.026C252.971 67.11 252.831 67.152 252.644 67.152H250.39L250.586 66.83C250.931 67.0073 251.202 67.2407 251.398 67.53C251.594 67.8193 251.715 68.1553 251.762 68.538L251.482 68.3H252.644C252.831 68.3 252.971 68.3467 253.064 68.44C253.167 68.524 253.218 68.6453 253.218 68.804C253.218 68.972 253.167 69.1027 253.064 69.196C252.971 69.28 252.831 69.322 252.644 69.322H251.524L251.79 68.93C251.809 69.5273 251.683 70.0453 251.412 70.484C251.151 70.9227 250.768 71.2633 250.264 71.506C249.769 71.7393 249.167 71.856 248.458 71.856V71.716H248.766C249.149 71.716 249.485 71.8 249.774 71.968C250.063 72.136 250.348 72.43 250.628 72.85L252.112 75.076C252.224 75.244 252.271 75.4073 252.252 75.566C252.243 75.7153 252.177 75.8413 252.056 75.944C251.944 76.0467 251.785 76.098 251.58 76.098ZM257.329 76.126C256.815 76.126 256.297 76.056 255.775 75.916C255.252 75.7667 254.776 75.538 254.347 75.23C254.207 75.146 254.113 75.0387 254.067 74.908C254.02 74.7773 254.011 74.6513 254.039 74.53C254.067 74.3993 254.123 74.292 254.207 74.208C254.3 74.124 254.412 74.0773 254.543 74.068C254.673 74.0493 254.813 74.0867 254.963 74.18C255.327 74.4133 255.7 74.5907 256.083 74.712C256.475 74.8333 256.881 74.894 257.301 74.894C257.73 74.894 258.099 74.8147 258.407 74.656C258.715 74.4973 258.948 74.278 259.107 73.998C259.275 73.7087 259.359 73.3727 259.359 72.99C259.359 72.402 259.186 71.9213 258.841 71.548C258.495 71.1747 258.015 70.988 257.399 70.988C257.044 70.988 256.713 71.0533 256.405 71.184C256.097 71.3053 255.803 71.5107 255.523 71.8C255.457 71.8747 255.369 71.9447 255.257 72.01C255.154 72.066 255.037 72.094 254.907 72.094C254.711 72.094 254.561 72.0427 254.459 71.94C254.356 71.8373 254.305 71.6973 254.305 71.52V66.774C254.305 66.5687 254.361 66.41 254.473 66.298C254.585 66.186 254.743 66.13 254.949 66.13H259.639C259.844 66.13 260.003 66.1813 260.115 66.284C260.227 66.3867 260.283 66.536 260.283 66.732C260.283 66.928 260.227 67.082 260.115 67.194C260.003 67.2967 259.844 67.348 259.639 67.348H255.719V70.904H255.327C255.579 70.5493 255.91 70.274 256.321 70.078C256.741 69.882 257.203 69.784 257.707 69.784C258.332 69.784 258.873 69.9147 259.331 70.176C259.788 70.4373 260.143 70.806 260.395 71.282C260.647 71.7487 260.773 72.2947 260.773 72.92C260.773 73.5547 260.633 74.1147 260.353 74.6C260.073 75.076 259.676 75.4493 259.163 75.72C258.649 75.9907 258.038 76.126 257.329 76.126ZM265.149 76.126C264.001 76.126 263.124 75.692 262.517 74.824C261.92 73.9467 261.621 72.6913 261.621 71.058C261.621 69.9473 261.756 69.0187 262.027 68.272C262.298 67.5253 262.694 66.9607 263.217 66.578C263.74 66.1953 264.384 66.004 265.149 66.004C266.306 66.004 267.184 66.4333 267.781 67.292C268.378 68.1413 268.677 69.392 268.677 71.044C268.677 72.136 268.542 73.06 268.271 73.816C268 74.572 267.604 75.146 267.081 75.538C266.558 75.93 265.914 76.126 265.149 76.126ZM265.149 74.922C265.868 74.922 266.395 74.6093 266.731 73.984C267.076 73.3493 267.249 72.3693 267.249 71.044C267.249 69.7093 267.076 68.7387 266.731 68.132C266.395 67.516 265.868 67.208 265.149 67.208C264.44 67.208 263.912 67.516 263.567 68.132C263.222 68.7387 263.049 69.7093 263.049 71.044C263.049 72.3693 263.222 73.3493 263.567 73.984C263.912 74.6093 264.44 74.922 265.149 74.922ZM270.758 77.414C270.655 77.5447 270.543 77.6193 270.422 77.638C270.31 77.6567 270.212 77.6333 270.128 77.568C270.044 77.5027 269.997 77.4093 269.988 77.288C269.978 77.176 270.03 77.05 270.142 76.91C270.31 76.7047 270.422 76.49 270.478 76.266C270.543 76.0513 270.576 75.86 270.576 75.692L270.632 76.056C270.352 76.056 270.123 75.9767 269.946 75.818C269.778 75.65 269.694 75.4307 269.694 75.16C269.694 74.8987 269.773 74.6887 269.932 74.53C270.09 74.362 270.305 74.278 270.576 74.278C270.856 74.278 271.075 74.376 271.234 74.572C271.402 74.7587 271.486 75.0293 271.486 75.384C271.486 75.5893 271.462 75.804 271.416 76.028C271.378 76.252 271.308 76.4807 271.206 76.714C271.103 76.9473 270.954 77.1807 270.758 77.414ZM276.026 76.126C274.878 76.126 274.001 75.692 273.394 74.824C272.797 73.9467 272.498 72.6913 272.498 71.058C272.498 69.9473 272.633 69.0187 272.904 68.272C273.175 67.5253 273.571 66.9607 274.094 66.578C274.617 66.1953 275.261 66.004 276.026 66.004C277.183 66.004 278.061 66.4333 278.658 67.292C279.255 68.1413 279.554 69.392 279.554 71.044C279.554 72.136 279.419 73.06 279.148 73.816C278.877 74.572 278.481 75.146 277.958 75.538C277.435 75.93 276.791 76.126 276.026 76.126ZM276.026 74.922C276.745 74.922 277.272 74.6093 277.608 73.984C277.953 73.3493 278.126 72.3693 278.126 71.044C278.126 69.7093 277.953 68.7387 277.608 68.132C277.272 67.516 276.745 67.208 276.026 67.208C275.317 67.208 274.789 67.516 274.444 68.132C274.099 68.7387 273.926 69.7093 273.926 71.044C273.926 72.3693 274.099 73.3493 274.444 73.984C274.789 74.6093 275.317 74.922 276.026 74.922ZM284 76.126C282.852 76.126 281.975 75.692 281.368 74.824C280.771 73.9467 280.472 72.6913 280.472 71.058C280.472 69.9473 280.608 69.0187 280.878 68.272C281.149 67.5253 281.546 66.9607 282.068 66.578C282.591 66.1953 283.235 66.004 284 66.004C285.158 66.004 286.035 66.4333 286.632 67.292C287.23 68.1413 287.528 69.392 287.528 71.044C287.528 72.136 287.393 73.06 287.122 73.816C286.852 74.572 286.455 75.146 285.932 75.538C285.41 75.93 284.766 76.126 284 76.126ZM284 74.922C284.719 74.922 285.246 74.6093 285.582 73.984C285.928 73.3493 286.1 72.3693 286.1 71.044C286.1 69.7093 285.928 68.7387 285.582 68.132C285.246 67.516 284.719 67.208 284 67.208C283.291 67.208 282.764 67.516 282.418 68.132C282.073 68.7387 281.9 69.7093 281.9 71.044C281.9 72.3693 282.073 73.3493 282.418 73.984C282.764 74.6093 283.291 74.922 284 74.922ZM291.975 76.126C290.827 76.126 289.95 75.692 289.343 74.824C288.746 73.9467 288.447 72.6913 288.447 71.058C288.447 69.9473 288.582 69.0187 288.853 68.272C289.124 67.5253 289.52 66.9607 290.043 66.578C290.566 66.1953 291.21 66.004 291.975 66.004C293.132 66.004 294.01 66.4333 294.607 67.292C295.204 68.1413 295.503 69.392 295.503 71.044C295.503 72.136 295.368 73.06 295.097 73.816C294.826 74.572 294.43 75.146 293.907 75.538C293.384 75.93 292.74 76.126 291.975 76.126ZM291.975 74.922C292.694 74.922 293.221 74.6093 293.557 73.984C293.902 73.3493 294.075 72.3693 294.075 71.044C294.075 69.7093 293.902 68.7387 293.557 68.132C293.221 67.516 292.694 67.208 291.975 67.208C291.266 67.208 290.738 67.516 290.393 68.132C290.048 68.7387 289.875 69.7093 289.875 71.044C289.875 72.3693 290.048 73.3493 290.393 73.984C290.738 74.6093 291.266 74.922 291.975 74.922Z" fill="#111827"/>
</svg>
